<?xml version="1.0" encoding="UTF-8" standalone="no"?>
<!DOCTYPE svg PUBLIC "-//W3C//DTD SVG 1.1//EN"
 "http://www.w3.org/Graphics/SVG/1.1/DTD/svg11.dtd">
<!-- Generated by graphviz version 2.43.0 (0)
 -->
<!-- Title: main Pages: 1 -->
<svg width="215pt" height="212pt"
 viewBox="0.00 0.00 215.00 212.00" xmlns="http://www.w3.org/2000/svg" xmlns:xlink="http://www.w3.org/1999/xlink">
<g id="graph0" class="graph" transform="scale(1 1) rotate(0) translate(4 208)">
<title>main</title>
<!-- Node1 -->
<g id="Node000001" class="node">
<title>Node1</title>
<g id="a_Node000001"><a xlink:title=" ">
<polygon fill="#999999" stroke="#666666" points="41,-111 0,-111 0,-92 41,-92 41,-111"/>
<text text-anchor="middle" x="20.5" y="-99" font-family="Helvetica,sans-Serif" font-size="10.00">main</text>
</a>
</g>
</g>
<!-- Node2 -->
<g id="Node000002" class="node">
<title>Node2</title>
<g id="a_Node000002"><a xlink:href="Project2_8cpp.html#a983aa5fd6a63f47aa1283735353142d8" target="_top" xlink:title=" ">
<polygon fill="white" stroke="#666666" points="176.5,-204 107.5,-204 107.5,-185 176.5,-185 176.5,-204"/>
<text text-anchor="middle" x="142" y="-192" font-family="Helvetica,sans-Serif" font-size="10.00">bubbleSort</text>
</a>
</g>
</g>
<!-- Node1&#45;&gt;Node2 -->
<g id="edge1_Node000001_Node000002" class="edge">
<title>Node1&#45;&gt;Node2</title>
<g id="a_edge1_Node000001_Node000002"><a xlink:title=" ">
<path fill="none" stroke="#63b8ff" d="M25.99,-111.16C33.95,-127.21 52.07,-159.3 77,-176.5 83.14,-180.74 90.26,-183.98 97.47,-186.46"/>
<polygon fill="#63b8ff" stroke="#63b8ff" points="96.69,-189.89 107.28,-189.4 98.7,-183.18 96.69,-189.89"/>
</a>
</g>
</g>
<!-- Node3 -->
<g id="Node000003" class="node">
<title>Node3</title>
<g id="a_Node000003"><a xlink:href="archived_8cpp.html#a6ba34437d085c5a5c3308d957e533f2d" target="_top" xlink:title=" ">
<polygon fill="white" stroke="#666666" points="181.5,-167 102.5,-167 102.5,-148 181.5,-148 181.5,-167"/>
<text text-anchor="middle" x="142" y="-155" font-family="Helvetica,sans-Serif" font-size="10.00">displayMenu</text>
</a>
</g>
</g>
<!-- Node1&#45;&gt;Node3 -->
<g id="edge2_Node000001_Node000003" class="edge">
<title>Node1&#45;&gt;Node3</title>
<g id="a_edge2_Node000001_Node000003"><a xlink:title=" ">
<path fill="none" stroke="#63b8ff" d="M33.15,-111.16C43.93,-119.68 60.71,-131.88 77,-139.5 81.97,-141.82 87.29,-143.9 92.68,-145.75"/>
<polygon fill="#63b8ff" stroke="#63b8ff" points="91.77,-149.13 102.36,-148.83 93.89,-142.46 91.77,-149.13"/>
</a>
</g>
</g>
<!-- Node4 -->
<g id="Node000004" class="node">
<title>Node4</title>
<g id="a_Node000004"><a xlink:href="archived_8cpp.html#a1c205b3d5a823f80a5436151b35f8ccb" target="_top" xlink:title=" ">
<polygon fill="white" stroke="#666666" points="185,-130 99,-130 99,-111 185,-111 185,-130"/>
<text text-anchor="middle" x="142" y="-118" font-family="Helvetica,sans-Serif" font-size="10.00">getIntFromCin</text>
</a>
</g>
</g>
<!-- Node1&#45;&gt;Node4 -->
<g id="edge3_Node000001_Node000004" class="edge">
<title>Node1&#45;&gt;Node4</title>
<g id="a_edge3_Node000001_Node000004"><a xlink:title=" ">
<path fill="none" stroke="#63b8ff" d="M41.23,-104.64C54.19,-106.7 71.79,-109.5 88.6,-112.17"/>
<polygon fill="#63b8ff" stroke="#63b8ff" points="88.5,-115.7 98.92,-113.81 89.59,-108.78 88.5,-115.7"/>
</a>
</g>
</g>
<!-- Node5 -->
<g id="Node000005" class="node">
<title>Node5</title>
<g id="a_Node000005"><a xlink:href="archived_8cpp.html#a087c7440bb107ad9b917128515ecf85c" target="_top" xlink:title=" ">
<polygon fill="white" stroke="#666666" points="176,-93 108,-93 108,-74 176,-74 176,-93"/>
<text text-anchor="middle" x="142" y="-81" font-family="Helvetica,sans-Serif" font-size="10.00">mountCSV</text>
</a>
</g>
</g>
<!-- Node1&#45;&gt;Node5 -->
<g id="edge4_Node000001_Node000005" class="edge">
<title>Node1&#45;&gt;Node5</title>
<g id="a_edge4_Node000001_Node000005"><a xlink:title=" ">
<path fill="none" stroke="#63b8ff" d="M41.23,-98.53C56.52,-96.23 78.27,-92.95 97.56,-90.04"/>
<polygon fill="#63b8ff" stroke="#63b8ff" points="98.31,-93.47 107.67,-88.52 97.26,-86.55 98.31,-93.47"/>
</a>
</g>
</g>
<!-- Node6 -->
<g id="Node000006" class="node">
<title>Node6</title>
<g id="a_Node000006"><a xlink:href="archived_8cpp.html#a37784eaa85670cb1d02f0de2afca5b21" target="_top" xlink:title=" ">
<polygon fill="white" stroke="#666666" points="187.5,-56 96.5,-56 96.5,-37 187.5,-37 187.5,-56"/>
<text text-anchor="middle" x="142" y="-44" font-family="Helvetica,sans-Serif" font-size="10.00">printAllCourses</text>
</a>
</g>
</g>
<!-- Node1&#45;&gt;Node6 -->
<g id="edge5_Node000001_Node000006" class="edge">
<title>Node1&#45;&gt;Node6</title>
<g id="a_edge5_Node000001_Node000006"><a xlink:title=" ">
<path fill="none" stroke="#63b8ff" d="M34.12,-91.8C44.99,-83.83 61.36,-72.71 77,-65.5 82,-63.19 87.35,-61.09 92.74,-59.19"/>
<polygon fill="#63b8ff" stroke="#63b8ff" points="94.03,-62.45 102.44,-56 91.84,-55.8 94.03,-62.45"/>
</a>
</g>
</g>
<!-- Node7 -->
<g id="Node000007" class="node">
<title>Node7</title>
<g id="a_Node000007"><a xlink:href="archived_8cpp.html#a500d088daa5e2900bef8711061cce741" target="_top" xlink:title=" ">
<polygon fill="white" stroke="#666666" points="207,-19 77,-19 77,0 207,0 207,-19"/>
<text text-anchor="middle" x="142" y="-7" font-family="Helvetica,sans-Serif" font-size="10.00">printCourseInformation</text>
</a>
</g>
</g>
<!-- Node1&#45;&gt;Node7 -->
<g id="edge6_Node000001_Node000007" class="edge">
<title>Node1&#45;&gt;Node7</title>
<g id="a_edge6_Node000001_Node000007"><a xlink:title=" ">
<path fill="none" stroke="#63b8ff" d="M26.22,-91.89C34.38,-76.24 52.64,-45.33 77,-28.5 79.9,-26.5 83.02,-24.7 86.25,-23.09"/>
<polygon fill="#63b8ff" stroke="#63b8ff" points="87.84,-26.22 95.63,-19.03 85.06,-19.79 87.84,-26.22"/>
</a>
</g>
</g>
</g>
</svg>
