<?xml version="1.0" encoding="UTF-8" standalone="no"?>
<!DOCTYPE svg PUBLIC "-//W3C//DTD SVG 1.1//EN"
 "http://www.w3.org/Graphics/SVG/1.1/DTD/svg11.dtd">
<!-- Generated by graphviz version 2.43.0 (0)
 -->
<!-- Title: src/Sorters/BubbleSort.cpp Pages: 1 -->
<svg width="425pt" height="192pt"
 viewBox="0.00 0.00 424.78 192.00" xmlns="http://www.w3.org/2000/svg" xmlns:xlink="http://www.w3.org/1999/xlink">
<g id="graph0" class="graph" transform="scale(1 1) rotate(0) translate(4 188)">
<title>src/Sorters/BubbleSort.cpp</title>
<!-- Node1 -->
<g id="Node000001" class="node">
<title>Node1</title>
<g id="a_Node000001"><a xlink:title=" ">
<polygon fill="#999999" stroke="#666666" points="249.28,-184 104.28,-184 104.28,-165 249.28,-165 249.28,-184"/>
<text text-anchor="middle" x="176.78" y="-172" font-family="Helvetica,sans-Serif" font-size="10.00">src/Sorters/BubbleSort.cpp</text>
</a>
</g>
</g>
<!-- Node2 -->
<g id="Node000002" class="node">
<title>Node2</title>
<g id="a_Node000002"><a xlink:href="BubbleSort_8hpp.html" target="_top" xlink:title=" ">
<polygon fill="white" stroke="#666666" points="148.78,-129 20.78,-129 20.78,-110 148.78,-110 148.78,-129"/>
<text text-anchor="middle" x="84.78" y="-117" font-family="Helvetica,sans-Serif" font-size="10.00">Sorters/BubbleSort.hpp</text>
</a>
</g>
</g>
<!-- Node1&#45;&gt;Node2 -->
<g id="edge1_Node000001_Node000002" class="edge">
<title>Node1&#45;&gt;Node2</title>
<g id="a_edge1_Node000001_Node000002"><a xlink:title=" ">
<path fill="none" stroke="#63b8ff" d="M161.99,-164.98C147.59,-156.69 125.47,-143.94 108.58,-134.22"/>
<polygon fill="#63b8ff" stroke="#63b8ff" points="110.24,-131.13 99.83,-129.17 106.74,-137.19 110.24,-131.13"/>
</a>
</g>
</g>
<!-- Node3 -->
<g id="Node000003" class="node">
<title>Node3</title>
<g id="a_Node000003"><a xlink:title=" ">
<polygon fill="#e0e0e0" stroke="#999999" points="50.28,-19 3.28,-19 3.28,0 50.28,0 50.28,-19"/>
<text text-anchor="middle" x="26.78" y="-7" font-family="Helvetica,sans-Serif" font-size="10.00">vector</text>
</a>
</g>
</g>
<!-- Node1&#45;&gt;Node3 -->
<g id="edge10_Node000001_Node000003" class="edge">
<title>Node1&#45;&gt;Node3</title>
<g id="a_edge10_Node000001_Node000003"><a xlink:title=" ">
<path fill="none" stroke="#63b8ff" d="M116.25,-164.99C74.65,-157.75 24.68,-145.84 11.78,-129 -10.83,-99.48 5.58,-53.18 17.45,-28.09"/>
<polygon fill="#63b8ff" stroke="#63b8ff" points="20.64,-29.53 21.99,-19.02 14.38,-26.4 20.64,-29.53"/>
</a>
</g>
</g>
<!-- Node4 -->
<g id="Node000004" class="node">
<title>Node4</title>
<g id="a_Node000004"><a xlink:href="Course_8hpp.html" target="_top" xlink:title=" ">
<polygon fill="white" stroke="#666666" points="228.28,-74 55.28,-74 55.28,-55 228.28,-55 228.28,-74"/>
<text text-anchor="middle" x="141.78" y="-62" font-family="Helvetica,sans-Serif" font-size="10.00">CourseManagement/Course.hpp</text>
</a>
</g>
</g>
<!-- Node1&#45;&gt;Node4 -->
<g id="edge6_Node000001_Node000004" class="edge">
<title>Node1&#45;&gt;Node4</title>
<g id="a_edge6_Node000001_Node000004"><a xlink:title=" ">
<path fill="none" stroke="#63b8ff" d="M174.34,-164.83C170.86,-152.56 164.18,-129.46 157.78,-110 154.92,-101.32 151.52,-91.79 148.6,-83.77"/>
<polygon fill="#63b8ff" stroke="#63b8ff" points="151.85,-82.48 145.11,-74.32 145.29,-84.91 151.85,-82.48"/>
</a>
</g>
</g>
<!-- Node6 -->
<g id="Node000006" class="node">
<title>Node6</title>
<g id="a_Node000006"><a xlink:href="Err_8hpp.html" target="_top" xlink:title=" ">
<polygon fill="white" stroke="#666666" points="334.28,-129 207.28,-129 207.28,-110 334.28,-110 334.28,-129"/>
<text text-anchor="middle" x="270.78" y="-117" font-family="Helvetica,sans-Serif" font-size="10.00">ValidationTools/Err.hpp</text>
</a>
</g>
</g>
<!-- Node1&#45;&gt;Node6 -->
<g id="edge7_Node000001_Node000006" class="edge">
<title>Node1&#45;&gt;Node6</title>
<g id="a_edge7_Node000001_Node000006"><a xlink:title=" ">
<path fill="none" stroke="#63b8ff" d="M191.88,-164.98C206.59,-156.69 229.2,-143.94 246.45,-134.22"/>
<polygon fill="#63b8ff" stroke="#63b8ff" points="248.41,-137.13 255.4,-129.17 244.97,-131.03 248.41,-137.13"/>
</a>
</g>
</g>
<!-- Node9 -->
<g id="Node000009" class="node">
<title>Node9</title>
<g id="a_Node000009"><a xlink:title=" ">
<polygon fill="#e0e0e0" stroke="#999999" points="416.78,-129 352.78,-129 352.78,-110 416.78,-110 416.78,-129"/>
<text text-anchor="middle" x="384.78" y="-117" font-family="Helvetica,sans-Serif" font-size="10.00">algorithm</text>
</a>
</g>
</g>
<!-- Node1&#45;&gt;Node9 -->
<g id="edge11_Node000001_Node000009" class="edge">
<title>Node1&#45;&gt;Node9</title>
<g id="a_edge11_Node000001_Node000009"><a xlink:title=" ">
<path fill="none" stroke="#63b8ff" d="M210.19,-164.98C246.14,-155.82 303.39,-141.24 342.46,-131.28"/>
<polygon fill="#63b8ff" stroke="#63b8ff" points="343.64,-134.59 352.47,-128.73 341.91,-127.81 343.64,-134.59"/>
</a>
</g>
</g>
<!-- Node2&#45;&gt;Node3 -->
<g id="edge2_Node000002_Node000003" class="edge">
<title>Node2&#45;&gt;Node3</title>
<g id="a_edge2_Node000002_Node000003"><a xlink:title=" ">
<path fill="none" stroke="#63b8ff" d="M75.12,-109.85C66.32,-101.48 53.53,-88.02 45.78,-74 38.02,-59.98 33.08,-42.43 30.19,-29.33"/>
<polygon fill="#63b8ff" stroke="#63b8ff" points="33.55,-28.29 28.15,-19.17 26.69,-29.67 33.55,-28.29"/>
</a>
</g>
</g>
<!-- Node2&#45;&gt;Node4 -->
<g id="edge3_Node000002_Node000004" class="edge">
<title>Node2&#45;&gt;Node4</title>
<g id="a_edge3_Node000002_Node000004"><a xlink:title=" ">
<path fill="none" stroke="#63b8ff" d="M93.93,-109.98C102.28,-102.23 114.81,-90.58 124.95,-81.14"/>
<polygon fill="#63b8ff" stroke="#63b8ff" points="127.51,-83.54 132.45,-74.17 122.74,-78.42 127.51,-83.54"/>
</a>
</g>
</g>
<!-- Node4&#45;&gt;Node3 -->
<g id="edge5_Node000004_Node000003" class="edge">
<title>Node4&#45;&gt;Node3</title>
<g id="a_edge5_Node000004_Node000003"><a xlink:title=" ">
<path fill="none" stroke="#63b8ff" d="M123.3,-54.98C104.8,-46.46 76.09,-33.23 54.79,-23.41"/>
<polygon fill="#63b8ff" stroke="#63b8ff" points="56.14,-20.18 45.59,-19.17 53.21,-26.53 56.14,-20.18"/>
</a>
</g>
</g>
<!-- Node5 -->
<g id="Node000005" class="node">
<title>Node5</title>
<g id="a_Node000005"><a xlink:title=" ">
<polygon fill="#e0e0e0" stroke="#999999" points="163.78,-19 119.78,-19 119.78,0 163.78,0 163.78,-19"/>
<text text-anchor="middle" x="141.78" y="-7" font-family="Helvetica,sans-Serif" font-size="10.00">string</text>
</a>
</g>
</g>
<!-- Node4&#45;&gt;Node5 -->
<g id="edge4_Node000004_Node000005" class="edge">
<title>Node4&#45;&gt;Node5</title>
<g id="a_edge4_Node000004_Node000005"><a xlink:title=" ">
<path fill="none" stroke="#63b8ff" d="M141.78,-54.75C141.78,-47.8 141.78,-37.85 141.78,-29.13"/>
<polygon fill="#63b8ff" stroke="#63b8ff" points="145.28,-29.09 141.78,-19.09 138.28,-29.09 145.28,-29.09"/>
</a>
</g>
</g>
<!-- Node7 -->
<g id="Node000007" class="node">
<title>Node7</title>
<g id="a_Node000007"><a xlink:title=" ">
<polygon fill="#e0e0e0" stroke="#999999" points="379.78,-74 319.78,-74 319.78,-55 379.78,-55 379.78,-74"/>
<text text-anchor="middle" x="349.78" y="-62" font-family="Helvetica,sans-Serif" font-size="10.00">iostream</text>
</a>
</g>
</g>
<!-- Node6&#45;&gt;Node7 -->
<g id="edge8_Node000006_Node000007" class="edge">
<title>Node6&#45;&gt;Node7</title>
<g id="a_edge8_Node000006_Node000007"><a xlink:title=" ">
<path fill="none" stroke="#63b8ff" d="M283.47,-109.98C295.6,-101.84 314.13,-89.41 328.52,-79.76"/>
<polygon fill="#63b8ff" stroke="#63b8ff" points="330.5,-82.65 336.85,-74.17 326.6,-76.84 330.5,-82.65"/>
</a>
</g>
</g>
<!-- Node8 -->
<g id="Node000008" class="node">
<title>Node8</title>
<g id="a_Node000008"><a xlink:title=" ">
<polygon fill="#e0e0e0" stroke="#999999" points="301.28,-74 246.28,-74 246.28,-55 301.28,-55 301.28,-74"/>
<text text-anchor="middle" x="273.78" y="-62" font-family="Helvetica,sans-Serif" font-size="10.00">fstream</text>
</a>
</g>
</g>
<!-- Node6&#45;&gt;Node8 -->
<g id="edge9_Node000006_Node000008" class="edge">
<title>Node6&#45;&gt;Node8</title>
<g id="a_edge9_Node000006_Node000008"><a xlink:title=" ">
<path fill="none" stroke="#63b8ff" d="M271.27,-109.75C271.66,-102.8 272.23,-92.85 272.72,-84.13"/>
<polygon fill="#63b8ff" stroke="#63b8ff" points="276.22,-84.27 273.29,-74.09 269.23,-83.88 276.22,-84.27"/>
</a>
</g>
</g>
</g>
</svg>
