<?xml version="1.0" encoding="UTF-8" standalone="no"?>
<!DOCTYPE svg PUBLIC "-//W3C//DTD SVG 1.1//EN"
 "http://www.w3.org/Graphics/SVG/1.1/DTD/svg11.dtd">
<!-- Generated by graphviz version 2.43.0 (0)
 -->
<!-- Title: Sorter::bubbleSort Pages: 1 -->
<svg width="597pt" height="27pt"
 viewBox="0.00 0.00 597.00 27.00" xmlns="http://www.w3.org/2000/svg" xmlns:xlink="http://www.w3.org/1999/xlink">
<g id="graph0" class="graph" transform="scale(1 1) rotate(0) translate(4 23)">
<title>Sorter::bubbleSort</title>
<!-- Node1 -->
<g id="Node000001" class="node">
<title>Node1</title>
<g id="a_Node000001"><a xlink:title=" ">
<polygon fill="#999999" stroke="#666666" points="104,-19 0,-19 0,0 104,0 104,-19"/>
<text text-anchor="middle" x="52" y="-7" font-family="Helvetica,sans-Serif" font-size="10.00">Sorter::bubbleSort</text>
</a>
</g>
</g>
<!-- Node2 -->
<g id="Node000002" class="node">
<title>Node2</title>
<g id="a_Node000002"><a xlink:href="namespacesorter.html#ae4b450a6801a9b31bcdd3b4d15e0cae1" target="_top" xlink:title=" ">
<polygon fill="white" stroke="#666666" points="283,-19 140,-19 140,0 283,0 283,-19"/>
<text text-anchor="middle" x="211.5" y="-7" font-family="Helvetica,sans-Serif" font-size="10.00">sorter::performBubbleSort</text>
</a>
</g>
</g>
<!-- Node1&#45;&gt;Node2 -->
<g id="edge1_Node000001_Node000002" class="edge">
<title>Node1&#45;&gt;Node2</title>
<g id="a_edge1_Node000001_Node000002"><a xlink:title=" ">
<path fill="none" stroke="#63b8ff" d="M104.14,-9.5C112.33,-9.5 120.99,-9.5 129.68,-9.5"/>
<polygon fill="#63b8ff" stroke="#63b8ff" points="129.87,-13 139.87,-9.5 129.87,-6 129.87,-13"/>
</a>
</g>
</g>
<!-- Node3 -->
<g id="Node000003" class="node">
<title>Node3</title>
<g id="a_Node000003"><a xlink:href="classErrLog.html#a881e5dfb84c92034197bd001ad2391a6" target="_top" xlink:title="Generates a log text file in the logs folder.">
<polygon fill="white" stroke="#666666" points="425,-19 319,-19 319,0 425,0 425,-19"/>
<text text-anchor="middle" x="372" y="-7" font-family="Helvetica,sans-Serif" font-size="10.00">ErrLog::genLogFile</text>
</a>
</g>
</g>
<!-- Node2&#45;&gt;Node3 -->
<g id="edge2_Node000002_Node000003" class="edge">
<title>Node2&#45;&gt;Node3</title>
<g id="a_edge2_Node000002_Node000003"><a xlink:title=" ">
<path fill="none" stroke="#63b8ff" d="M283.41,-9.5C291.75,-9.5 300.22,-9.5 308.44,-9.5"/>
<polygon fill="#63b8ff" stroke="#63b8ff" points="308.69,-13 318.69,-9.5 308.69,-6 308.69,-13"/>
</a>
</g>
</g>
<!-- Node4 -->
<g id="Node000004" class="node">
<title>Node4</title>
<g id="a_Node000004"><a xlink:href="classErrLog.html#af7345266274741d05394ccb688e228ad" target="_top" xlink:title="generates a timestamp for files">
<polygon fill="white" stroke="#666666" points="589,-19 461,-19 461,0 589,0 589,-19"/>
<text text-anchor="middle" x="525" y="-7" font-family="Helvetica,sans-Serif" font-size="10.00">ErrLog::genTimeStamp</text>
</a>
</g>
</g>
<!-- Node3&#45;&gt;Node4 -->
<g id="edge3_Node000003_Node000004" class="edge">
<title>Node3&#45;&gt;Node4</title>
<g id="a_edge3_Node000003_Node000004"><a xlink:title=" ">
<path fill="none" stroke="#63b8ff" d="M425.39,-9.5C433.59,-9.5 442.2,-9.5 450.77,-9.5"/>
<polygon fill="#63b8ff" stroke="#63b8ff" points="450.78,-13 460.78,-9.5 450.78,-6 450.78,-13"/>
</a>
</g>
</g>
</g>
</svg>
