<?xml version="1.0" encoding="UTF-8" standalone="no"?>
<!DOCTYPE svg PUBLIC "-//W3C//DTD SVG 1.1//EN"
 "http://www.w3.org/Graphics/SVG/1.1/DTD/svg11.dtd">
<!-- Generated by graphviz version 2.43.0 (0)
 -->
<!-- Title: CourseManager::loadCourses Pages: 1 -->
<svg width="644pt" height="64pt"
 viewBox="0.00 0.00 644.00 64.00" xmlns="http://www.w3.org/2000/svg" xmlns:xlink="http://www.w3.org/1999/xlink">
<g id="graph0" class="graph" transform="scale(1 1) rotate(0) translate(4 60)">
<title>CourseManager::loadCourses</title>
<!-- Node1 -->
<g id="Node000001" class="node">
<title>Node1</title>
<g id="a_Node000001"><a xlink:title="Loads master vector of Course objects into memory from a CSV file.">
<polygon fill="#999999" stroke="#666666" points="159,-37 0,-37 0,-18 159,-18 159,-37"/>
<text text-anchor="middle" x="79.5" y="-25" font-family="Helvetica,sans-Serif" font-size="10.00">CourseManager::loadCourses</text>
</a>
</g>
</g>
<!-- Node2 -->
<g id="Node000002" class="node">
<title>Node2</title>
<g id="a_Node000002"><a xlink:href="namespaceVarLoader.html#ac05c3669519ffaa45aa1fd78f01aa4d7" target="_top" xlink:title="Takes a CSV and parses it to resolve them into course objects.">
<polygon fill="white" stroke="#666666" points="317,-37 195,-37 195,-18 317,-18 317,-37"/>
<text text-anchor="middle" x="256" y="-25" font-family="Helvetica,sans-Serif" font-size="10.00">VarLoader::mountCSV</text>
</a>
</g>
</g>
<!-- Node1&#45;&gt;Node2 -->
<g id="edge1_Node000001_Node000002" class="edge">
<title>Node1&#45;&gt;Node2</title>
<g id="a_edge1_Node000001_Node000002"><a xlink:title=" ">
<path fill="none" stroke="#63b8ff" d="M159.07,-27.5C167.63,-27.5 176.29,-27.5 184.74,-27.5"/>
<polygon fill="#63b8ff" stroke="#63b8ff" points="184.91,-31 194.91,-27.5 184.91,-24 184.91,-31"/>
</a>
</g>
</g>
<!-- Node3 -->
<g id="Node000003" class="node">
<title>Node3</title>
<g id="a_Node000003"><a xlink:href="classErrLog.html#a881e5dfb84c92034197bd001ad2391a6" target="_top" xlink:title="Generates a log text file in the logs folder.">
<polygon fill="white" stroke="#666666" points="465.5,-56 359.5,-56 359.5,-37 465.5,-37 465.5,-56"/>
<text text-anchor="middle" x="412.5" y="-44" font-family="Helvetica,sans-Serif" font-size="10.00">ErrLog::genLogFile</text>
</a>
</g>
</g>
<!-- Node2&#45;&gt;Node3 -->
<g id="edge2_Node000002_Node000003" class="edge">
<title>Node2&#45;&gt;Node3</title>
<g id="a_edge2_Node000002_Node000003"><a xlink:title=" ">
<path fill="none" stroke="#63b8ff" d="M317.18,-34.9C327.71,-36.2 338.68,-37.55 349.27,-38.85"/>
<polygon fill="#63b8ff" stroke="#63b8ff" points="348.91,-42.33 359.27,-40.08 349.77,-35.38 348.91,-42.33"/>
</a>
</g>
</g>
<!-- Node5 -->
<g id="Node000005" class="node">
<title>Node5</title>
<g id="a_Node000005"><a xlink:href="namespaceVarLoader.html#abd49e6ee2c902e65b2d7f196b7c4f435" target="_top" xlink:title=" ">
<polygon fill="white" stroke="#666666" points="472,-19 353,-19 353,0 472,0 472,-19"/>
<text text-anchor="middle" x="412.5" y="-7" font-family="Helvetica,sans-Serif" font-size="10.00">VarLoader::parseLine</text>
</a>
</g>
</g>
<!-- Node2&#45;&gt;Node5 -->
<g id="edge4_Node000002_Node000005" class="edge">
<title>Node2&#45;&gt;Node5</title>
<g id="a_edge4_Node000002_Node000005"><a xlink:title=" ">
<path fill="none" stroke="#63b8ff" d="M317.18,-20.49C325.58,-19.51 334.27,-18.5 342.81,-17.5"/>
<polygon fill="#63b8ff" stroke="#63b8ff" points="343.23,-20.98 352.76,-16.34 342.42,-14.02 343.23,-20.98"/>
</a>
</g>
</g>
<!-- Node4 -->
<g id="Node000004" class="node">
<title>Node4</title>
<g id="a_Node000004"><a xlink:href="classErrLog.html#af7345266274741d05394ccb688e228ad" target="_top" xlink:title="generates a timestamp for files">
<polygon fill="white" stroke="#666666" points="636,-56 508,-56 508,-37 636,-37 636,-56"/>
<text text-anchor="middle" x="572" y="-44" font-family="Helvetica,sans-Serif" font-size="10.00">ErrLog::genTimeStamp</text>
</a>
</g>
</g>
<!-- Node3&#45;&gt;Node4 -->
<g id="edge3_Node000003_Node000004" class="edge">
<title>Node3&#45;&gt;Node4</title>
<g id="a_edge3_Node000003_Node000004"><a xlink:title=" ">
<path fill="none" stroke="#63b8ff" d="M465.51,-46.5C475.76,-46.5 486.7,-46.5 497.51,-46.5"/>
<polygon fill="#63b8ff" stroke="#63b8ff" points="497.8,-50 507.8,-46.5 497.8,-43 497.8,-50"/>
</a>
</g>
</g>
</g>
</svg>
