<?xml version="1.0" encoding="UTF-8" standalone="no"?>
<!DOCTYPE svg PUBLIC "-//W3C//DTD SVG 1.1//EN"
 "http://www.w3.org/Graphics/SVG/1.1/DTD/svg11.dtd">
<!-- Generated by graphviz version 2.43.0 (0)
 -->
<!-- Title: ErrLog::genTimeStamp Pages: 1 -->
<svg width="729pt" height="83pt"
 viewBox="0.00 0.00 729.00 83.00" xmlns="http://www.w3.org/2000/svg" xmlns:xlink="http://www.w3.org/1999/xlink">
<g id="graph0" class="graph" transform="scale(1 1) rotate(0) translate(4 79)">
<title>ErrLog::genTimeStamp</title>
<!-- Node1 -->
<g id="Node000001" class="node">
<title>Node1</title>
<g id="a_Node000001"><a xlink:title="generates a timestamp for files">
<polygon fill="#999999" stroke="#666666" points="721,-56 593,-56 593,-37 721,-37 721,-56"/>
<text text-anchor="middle" x="657" y="-44" font-family="Helvetica,sans-Serif" font-size="10.00">ErrLog::genTimeStamp</text>
</a>
</g>
</g>
<!-- Node2 -->
<g id="Node000002" class="node">
<title>Node2</title>
<g id="a_Node000002"><a xlink:href="classErrLog.html#a881e5dfb84c92034197bd001ad2391a6" target="_top" xlink:title="Generates a log text file in the logs folder.">
<polygon fill="white" stroke="#666666" points="557,-56 451,-56 451,-37 557,-37 557,-56"/>
<text text-anchor="middle" x="504" y="-44" font-family="Helvetica,sans-Serif" font-size="10.00">ErrLog::genLogFile</text>
</a>
</g>
</g>
<!-- Node1&#45;&gt;Node2 -->
<g id="edge1_Node000001_Node000002" class="edge">
<title>Node1&#45;&gt;Node2</title>
<g id="a_edge1_Node000001_Node000002"><a xlink:title=" ">
<path fill="none" stroke="#63b8ff" d="M582.81,-46.5C574.23,-46.5 565.61,-46.5 557.4,-46.5"/>
<polygon fill="#63b8ff" stroke="#63b8ff" points="582.84,-50 592.84,-46.5 582.84,-43 582.84,-50"/>
</a>
</g>
</g>
<!-- Node3 -->
<g id="Node000003" class="node">
<title>Node3</title>
<g id="a_Node000003"><a xlink:href="main_8cpp.html#a0ddf1224851353fc92bfbff6f499fa97" target="_top" xlink:title=" ">
<polygon fill="white" stroke="#666666" points="41,-75 0,-75 0,-56 41,-56 41,-75"/>
<text text-anchor="middle" x="20.5" y="-63" font-family="Helvetica,sans-Serif" font-size="10.00">main</text>
</a>
</g>
</g>
<!-- Node2&#45;&gt;Node3 -->
<g id="edge2_Node000002_Node000003" class="edge">
<title>Node2&#45;&gt;Node3</title>
<g id="a_edge2_Node000002_Node000003"><a xlink:title=" ">
<path fill="none" stroke="#63b8ff" d="M457.29,-58.3C443.77,-61.26 428.87,-64.02 415,-65.5 272.35,-80.72 98.94,-70.97 41.23,-66.97"/>
<polygon fill="#63b8ff" stroke="#63b8ff" points="458.35,-61.65 467.32,-56.01 456.79,-54.82 458.35,-61.65"/>
</a>
</g>
</g>
<!-- Node4 -->
<g id="Node000004" class="node">
<title>Node4</title>
<g id="a_Node000004"><a xlink:href="namespaceVarLoader.html#ac05c3669519ffaa45aa1fd78f01aa4d7" target="_top" xlink:title="Takes a CSV and parses it to resolve them into course objects.">
<polygon fill="white" stroke="#666666" points="404.5,-56 282.5,-56 282.5,-37 404.5,-37 404.5,-56"/>
<text text-anchor="middle" x="343.5" y="-44" font-family="Helvetica,sans-Serif" font-size="10.00">VarLoader::mountCSV</text>
</a>
</g>
</g>
<!-- Node2&#45;&gt;Node4 -->
<g id="edge3_Node000002_Node000004" class="edge">
<title>Node2&#45;&gt;Node4</title>
<g id="a_edge3_Node000002_Node000004"><a xlink:title=" ">
<path fill="none" stroke="#63b8ff" d="M440.48,-46.5C428.72,-46.5 416.44,-46.5 404.75,-46.5"/>
<polygon fill="#63b8ff" stroke="#63b8ff" points="440.66,-50 450.66,-46.5 440.66,-43 440.66,-50"/>
</a>
</g>
</g>
<!-- Node6 -->
<g id="Node000006" class="node">
<title>Node6</title>
<g id="a_Node000006"><a xlink:href="namespacesorter.html#ae4b450a6801a9b31bcdd3b4d15e0cae1" target="_top" xlink:title=" ">
<polygon fill="white" stroke="#666666" points="415,-19 272,-19 272,0 415,0 415,-19"/>
<text text-anchor="middle" x="343.5" y="-7" font-family="Helvetica,sans-Serif" font-size="10.00">sorter::performBubbleSort</text>
</a>
</g>
</g>
<!-- Node2&#45;&gt;Node6 -->
<g id="edge6_Node000002_Node000006" class="edge">
<title>Node2&#45;&gt;Node6</title>
<g id="a_edge6_Node000002_Node000006"><a xlink:title=" ">
<path fill="none" stroke="#63b8ff" d="M452.21,-34.64C430.64,-29.61 405.82,-23.82 385.45,-19.06"/>
<polygon fill="#63b8ff" stroke="#63b8ff" points="451.65,-38.11 462.18,-36.97 453.24,-31.29 451.65,-38.11"/>
</a>
</g>
</g>
<!-- Node5 -->
<g id="Node000005" class="node">
<title>Node5</title>
<g id="a_Node000005"><a xlink:href="classCourseManager.html#a822e86d0e530f3a2d9cbc1336de6c303" target="_top" xlink:title="Loads master vector of Course objects into memory from a CSV file.">
<polygon fill="white" stroke="#666666" points="236,-56 77,-56 77,-37 236,-37 236,-56"/>
<text text-anchor="middle" x="156.5" y="-44" font-family="Helvetica,sans-Serif" font-size="10.00">CourseManager::loadCourses</text>
</a>
</g>
</g>
<!-- Node4&#45;&gt;Node5 -->
<g id="edge4_Node000004_Node000005" class="edge">
<title>Node4&#45;&gt;Node5</title>
<g id="a_edge4_Node000004_Node000005"><a xlink:title=" ">
<path fill="none" stroke="#63b8ff" d="M272.22,-46.5C260.43,-46.5 248.12,-46.5 236.13,-46.5"/>
<polygon fill="#63b8ff" stroke="#63b8ff" points="272.44,-50 282.44,-46.5 272.44,-43 272.44,-50"/>
</a>
</g>
</g>
<!-- Node5&#45;&gt;Node3 -->
<g id="edge5_Node000005_Node000003" class="edge">
<title>Node5&#45;&gt;Node3</title>
<g id="a_edge5_Node000005_Node000003"><a xlink:title=" ">
<path fill="none" stroke="#63b8ff" d="M78.06,-57.48C64.37,-59.42 51.27,-61.28 41.13,-62.72"/>
<polygon fill="#63b8ff" stroke="#63b8ff" points="78.7,-60.92 88.11,-56.06 77.72,-53.99 78.7,-60.92"/>
</a>
</g>
</g>
<!-- Node7 -->
<g id="Node000007" class="node">
<title>Node7</title>
<g id="a_Node000007"><a xlink:href="classSorter.html#a529cf055195450c48514dd4e546a8b78" target="_top" xlink:title=" ">
<polygon fill="white" stroke="#666666" points="208.5,-19 104.5,-19 104.5,0 208.5,0 208.5,-19"/>
<text text-anchor="middle" x="156.5" y="-7" font-family="Helvetica,sans-Serif" font-size="10.00">Sorter::bubbleSort</text>
</a>
</g>
</g>
<!-- Node6&#45;&gt;Node7 -->
<g id="edge7_Node000006_Node000007" class="edge">
<title>Node6&#45;&gt;Node7</title>
<g id="a_edge7_Node000006_Node000007"><a xlink:title=" ">
<path fill="none" stroke="#63b8ff" d="M261.57,-9.5C243.59,-9.5 225.03,-9.5 208.64,-9.5"/>
<polygon fill="#63b8ff" stroke="#63b8ff" points="261.77,-13 271.77,-9.5 261.77,-6 261.77,-13"/>
</a>
</g>
</g>
</g>
</svg>
