<?xml version="1.0" encoding="UTF-8" standalone="no"?>
<!DOCTYPE svg PUBLIC "-//W3C//DTD SVG 1.1//EN"
 "http://www.w3.org/Graphics/SVG/1.1/DTD/svg11.dtd">
<!-- Generated by graphviz version 2.43.0 (0)
 -->
<!-- Title: include/CourseManagement/CourseManager.hpp Pages: 1 -->
<svg width="588pt" height="203pt"
 viewBox="0.00 0.00 587.50 203.00" xmlns="http://www.w3.org/2000/svg" xmlns:xlink="http://www.w3.org/1999/xlink">
<g id="graph0" class="graph" transform="scale(1 1) rotate(0) translate(4 199)">
<title>include/CourseManagement/CourseManager.hpp</title>
<!-- Node1 -->
<g id="Node000001" class="node">
<title>Node1</title>
<g id="a_Node000001"><a xlink:title=" ">
<polygon fill="#999999" stroke="#666666" points="420.5,-195 267.5,-195 267.5,-165 420.5,-165 420.5,-195"/>
<text text-anchor="start" x="275.5" y="-183" font-family="Helvetica,sans-Serif" font-size="10.00">include/CourseManagement</text>
<text text-anchor="middle" x="344" y="-172" font-family="Helvetica,sans-Serif" font-size="10.00">/CourseManager.hpp</text>
</a>
</g>
</g>
<!-- Node1&#45;&gt;Node1 -->
<g id="edge3_Node000001_Node000001" class="edge">
<title>Node1&#45;&gt;Node1</title>
<g id="a_edge3_Node000001_Node000001"><a xlink:title=" ">
<path fill="none" stroke="#63b8ff" d="M420.75,-190.04C431.39,-188.39 438.5,-185.04 438.5,-180 438.5,-176.77 435.58,-174.24 430.69,-172.4"/>
<polygon fill="#63b8ff" stroke="#63b8ff" points="431.3,-168.95 420.75,-169.96 429.63,-175.74 431.3,-168.95"/>
</a>
</g>
</g>
<!-- Node2 -->
<g id="Node000002" class="node">
<title>Node2</title>
<g id="a_Node000002"><a xlink:title=" ">
<polygon fill="#e0e0e0" stroke="#999999" points="44,-19 0,-19 0,0 44,0 44,-19"/>
<text text-anchor="middle" x="22" y="-7" font-family="Helvetica,sans-Serif" font-size="10.00">string</text>
</a>
</g>
</g>
<!-- Node1&#45;&gt;Node2 -->
<g id="edge1_Node000001_Node000002" class="edge">
<title>Node1&#45;&gt;Node2</title>
<g id="a_edge1_Node000001_Node000002"><a xlink:title=" ">
<path fill="none" stroke="#63b8ff" d="M267.36,-176.84C192.85,-170.24 82.84,-147.64 26,-74 16.4,-61.57 16.23,-43.36 17.98,-29.62"/>
<polygon fill="#63b8ff" stroke="#63b8ff" points="21.5,-29.81 19.73,-19.36 14.6,-28.63 21.5,-29.81"/>
</a>
</g>
</g>
<!-- Node3 -->
<g id="Node000003" class="node">
<title>Node3</title>
<g id="a_Node000003"><a xlink:title=" ">
<polygon fill="#e0e0e0" stroke="#999999" points="386.5,-19 339.5,-19 339.5,0 386.5,0 386.5,-19"/>
<text text-anchor="middle" x="363" y="-7" font-family="Helvetica,sans-Serif" font-size="10.00">vector</text>
</a>
</g>
</g>
<!-- Node1&#45;&gt;Node3 -->
<g id="edge2_Node000001_Node000003" class="edge">
<title>Node1&#45;&gt;Node3</title>
<g id="a_edge2_Node000001_Node000003"><a xlink:title=" ">
<path fill="none" stroke="#63b8ff" d="M355.86,-164.72C362.93,-155.24 371.25,-142.16 375,-129 384.83,-94.49 375.82,-52.32 369,-28.73"/>
<polygon fill="#63b8ff" stroke="#63b8ff" points="372.29,-27.55 366,-19.02 365.6,-29.61 372.29,-27.55"/>
</a>
</g>
</g>
<!-- Node4 -->
<g id="Node000004" class="node">
<title>Node4</title>
<g id="a_Node000004"><a xlink:href="Validator_8hpp.html" target="_top" xlink:title=" ">
<polygon fill="white" stroke="#666666" points="366.5,-129 209.5,-129 209.5,-110 366.5,-110 366.5,-129"/>
<text text-anchor="middle" x="288" y="-117" font-family="Helvetica,sans-Serif" font-size="10.00">ValidationTools/Validator.hpp</text>
</a>
</g>
</g>
<!-- Node1&#45;&gt;Node4 -->
<g id="edge4_Node000001_Node000004" class="edge">
<title>Node1&#45;&gt;Node4</title>
<g id="a_edge4_Node000001_Node000004"><a xlink:title=" ">
<path fill="none" stroke="#63b8ff" d="M330.44,-164.84C322.32,-156.35 311.95,-145.52 303.5,-136.69"/>
<polygon fill="#63b8ff" stroke="#63b8ff" points="305.83,-134.07 296.39,-129.27 300.78,-138.91 305.83,-134.07"/>
</a>
</g>
</g>
<!-- Node7 -->
<g id="Node000007" class="node">
<title>Node7</title>
<g id="a_Node000007"><a xlink:href="Err_8hpp.html" target="_top" xlink:title=" ">
<polygon fill="white" stroke="#666666" points="556.5,-129 429.5,-129 429.5,-110 556.5,-110 556.5,-129"/>
<text text-anchor="middle" x="493" y="-117" font-family="Helvetica,sans-Serif" font-size="10.00">ValidationTools/Err.hpp</text>
</a>
</g>
</g>
<!-- Node1&#45;&gt;Node7 -->
<g id="edge11_Node000001_Node000007" class="edge">
<title>Node1&#45;&gt;Node7</title>
<g id="a_edge11_Node000001_Node000007"><a xlink:title=" ">
<path fill="none" stroke="#63b8ff" d="M379.69,-164.99C404.66,-155.18 437.7,-142.21 461.66,-132.81"/>
<polygon fill="#63b8ff" stroke="#63b8ff" points="462.97,-136.05 471,-129.14 460.41,-129.54 462.97,-136.05"/>
</a>
</g>
</g>
<!-- Node4&#45;&gt;Node2 -->
<g id="edge5_Node000004_Node000002" class="edge">
<title>Node4&#45;&gt;Node2</title>
<g id="a_edge5_Node000004_Node000002"><a xlink:title=" ">
<path fill="none" stroke="#63b8ff" d="M209.5,-113.22C146.79,-107.42 65.49,-95.88 41,-74 28.54,-62.87 24.1,-43.94 22.59,-29.64"/>
<polygon fill="#63b8ff" stroke="#63b8ff" points="26.07,-29.14 21.92,-19.4 19.09,-29.61 26.07,-29.14"/>
</a>
</g>
</g>
<!-- Node4&#45;&gt;Node3 -->
<g id="edge6_Node000004_Node000003" class="edge">
<title>Node4&#45;&gt;Node3</title>
<g id="a_edge6_Node000004_Node000003"><a xlink:title=" ">
<path fill="none" stroke="#63b8ff" d="M303.15,-109.76C315.53,-101.89 332.63,-89.23 343,-74 352.15,-60.57 357.28,-42.73 360.05,-29.38"/>
<polygon fill="#63b8ff" stroke="#63b8ff" points="363.52,-29.88 361.85,-19.42 356.63,-28.64 363.52,-29.88"/>
</a>
</g>
</g>
<!-- Node5 -->
<g id="Node000005" class="node">
<title>Node5</title>
<g id="a_Node000005"><a xlink:title=" ">
<polygon fill="#e0e0e0" stroke="#999999" points="334.5,-74 241.5,-74 241.5,-55 334.5,-55 334.5,-74"/>
<text text-anchor="middle" x="288" y="-62" font-family="Helvetica,sans-Serif" font-size="10.00">unordered_map</text>
</a>
</g>
</g>
<!-- Node4&#45;&gt;Node5 -->
<g id="edge7_Node000004_Node000005" class="edge">
<title>Node4&#45;&gt;Node5</title>
<g id="a_edge7_Node000004_Node000005"><a xlink:title=" ">
<path fill="none" stroke="#63b8ff" d="M288,-109.75C288,-102.8 288,-92.85 288,-84.13"/>
<polygon fill="#63b8ff" stroke="#63b8ff" points="291.5,-84.09 288,-74.09 284.5,-84.09 291.5,-84.09"/>
</a>
</g>
</g>
<!-- Node6 -->
<g id="Node000006" class="node">
<title>Node6</title>
<g id="a_Node000006"><a xlink:href="Course_8hpp.html" target="_top" xlink:title=" ">
<polygon fill="white" stroke="#666666" points="223.5,-74 50.5,-74 50.5,-55 223.5,-55 223.5,-74"/>
<text text-anchor="middle" x="137" y="-62" font-family="Helvetica,sans-Serif" font-size="10.00">CourseManagement/Course.hpp</text>
</a>
</g>
</g>
<!-- Node4&#45;&gt;Node6 -->
<g id="edge8_Node000004_Node000006" class="edge">
<title>Node4&#45;&gt;Node6</title>
<g id="a_edge8_Node000004_Node000006"><a xlink:title=" ">
<path fill="none" stroke="#63b8ff" d="M263.74,-109.98C238.68,-101.19 199.37,-87.39 171.17,-77.49"/>
<polygon fill="#63b8ff" stroke="#63b8ff" points="172.3,-74.18 161.7,-74.17 169.98,-80.78 172.3,-74.18"/>
</a>
</g>
</g>
<!-- Node6&#45;&gt;Node2 -->
<g id="edge9_Node000006_Node000002" class="edge">
<title>Node6&#45;&gt;Node2</title>
<g id="a_edge9_Node000006_Node000002"><a xlink:title=" ">
<path fill="none" stroke="#63b8ff" d="M118.52,-54.98C100.02,-46.46 71.32,-33.23 50.02,-23.41"/>
<polygon fill="#63b8ff" stroke="#63b8ff" points="51.36,-20.18 40.81,-19.17 48.43,-26.53 51.36,-20.18"/>
</a>
</g>
</g>
<!-- Node6&#45;&gt;Node3 -->
<g id="edge10_Node000006_Node000003" class="edge">
<title>Node6&#45;&gt;Node3</title>
<g id="a_edge10_Node000006_Node000003"><a xlink:title=" ">
<path fill="none" stroke="#63b8ff" d="M173.31,-54.98C216.33,-44.9 287.43,-28.22 329.28,-18.41"/>
<polygon fill="#63b8ff" stroke="#63b8ff" points="330.32,-21.76 339.26,-16.07 328.72,-14.94 330.32,-21.76"/>
</a>
</g>
</g>
<!-- Node8 -->
<g id="Node000008" class="node">
<title>Node8</title>
<g id="a_Node000008"><a xlink:title=" ">
<polygon fill="#e0e0e0" stroke="#999999" points="506,-74 446,-74 446,-55 506,-55 506,-74"/>
<text text-anchor="middle" x="476" y="-62" font-family="Helvetica,sans-Serif" font-size="10.00">iostream</text>
</a>
</g>
</g>
<!-- Node7&#45;&gt;Node8 -->
<g id="edge12_Node000007_Node000008" class="edge">
<title>Node7&#45;&gt;Node8</title>
<g id="a_edge12_Node000007_Node000008"><a xlink:title=" ">
<path fill="none" stroke="#63b8ff" d="M490.19,-109.75C487.94,-102.72 484.7,-92.62 481.88,-83.84"/>
<polygon fill="#63b8ff" stroke="#63b8ff" points="485.14,-82.54 478.75,-74.09 478.48,-84.68 485.14,-82.54"/>
</a>
</g>
</g>
<!-- Node9 -->
<g id="Node000009" class="node">
<title>Node9</title>
<g id="a_Node000009"><a xlink:title=" ">
<polygon fill="#e0e0e0" stroke="#999999" points="579.5,-74 524.5,-74 524.5,-55 579.5,-55 579.5,-74"/>
<text text-anchor="middle" x="552" y="-62" font-family="Helvetica,sans-Serif" font-size="10.00">fstream</text>
</a>
</g>
</g>
<!-- Node7&#45;&gt;Node9 -->
<g id="edge13_Node000007_Node000009" class="edge">
<title>Node7&#45;&gt;Node9</title>
<g id="a_edge13_Node000007_Node000009"><a xlink:title=" ">
<path fill="none" stroke="#63b8ff" d="M502.48,-109.98C511.2,-102.15 524.34,-90.34 534.9,-80.86"/>
<polygon fill="#63b8ff" stroke="#63b8ff" points="537.25,-83.46 542.35,-74.17 532.57,-78.25 537.25,-83.46"/>
</a>
</g>
</g>
</g>
</svg>
