<?xml version="1.0" encoding="UTF-8" standalone="no"?>
<!DOCTYPE svg PUBLIC "-//W3C//DTD SVG 1.1//EN"
 "http://www.w3.org/Graphics/SVG/1.1/DTD/svg11.dtd">
<!-- Generated by graphviz version 2.43.0 (0)
 -->
<!-- Title: src/CourseManagement/CourseManager.cpp Pages: 1 -->
<svg width="1114pt" height="258pt"
 viewBox="0.00 0.00 1114.00 258.00" xmlns="http://www.w3.org/2000/svg" xmlns:xlink="http://www.w3.org/1999/xlink">
<g id="graph0" class="graph" transform="scale(1 1) rotate(0) translate(4 254)">
<title>src/CourseManagement/CourseManager.cpp</title>
<!-- Node1 -->
<g id="Node000001" class="node">
<title>Node1</title>
<g id="a_Node000001"><a xlink:title=" ">
<polygon fill="#999999" stroke="#666666" points="600,-250 468,-250 468,-220 600,-220 600,-250"/>
<text text-anchor="start" x="476" y="-238" font-family="Helvetica,sans-Serif" font-size="10.00">src/CourseManagement</text>
<text text-anchor="middle" x="534" y="-227" font-family="Helvetica,sans-Serif" font-size="10.00">/CourseManager.cpp</text>
</a>
</g>
</g>
<!-- Node2 -->
<g id="Node000002" class="node">
<title>Node2</title>
<g id="a_Node000002"><a xlink:title=" ">
<polygon fill="#e0e0e0" stroke="#999999" points="60,-74 0,-74 0,-55 60,-55 60,-74"/>
<text text-anchor="middle" x="30" y="-62" font-family="Helvetica,sans-Serif" font-size="10.00">iostream</text>
</a>
</g>
</g>
<!-- Node1&#45;&gt;Node2 -->
<g id="edge1_Node000001_Node000002" class="edge">
<title>Node1&#45;&gt;Node2</title>
<g id="a_edge1_Node000001_Node000002"><a xlink:title=" ">
<path fill="none" stroke="#63b8ff" d="M467.7,-232.67C363.18,-229.52 165.82,-218.98 106,-184 67.62,-161.55 45.4,-111.16 35.76,-83.88"/>
<polygon fill="#63b8ff" stroke="#63b8ff" points="38.97,-82.43 32.49,-74.06 32.33,-84.65 38.97,-82.43"/>
</a>
</g>
</g>
<!-- Node3 -->
<g id="Node000003" class="node">
<title>Node3</title>
<g id="a_Node000003"><a xlink:title=" ">
<polygon fill="#e0e0e0" stroke="#999999" points="336,-19 292,-19 292,0 336,0 336,-19"/>
<text text-anchor="middle" x="314" y="-7" font-family="Helvetica,sans-Serif" font-size="10.00">string</text>
</a>
</g>
</g>
<!-- Node1&#45;&gt;Node3 -->
<g id="edge2_Node000001_Node000003" class="edge">
<title>Node1&#45;&gt;Node3</title>
<g id="a_edge2_Node000001_Node000003"><a xlink:title=" ">
<path fill="none" stroke="#63b8ff" d="M467.93,-232.95C386.63,-230.1 255.56,-219.9 225,-184 202.96,-158.11 270.32,-66.01 300.34,-27.56"/>
<polygon fill="#63b8ff" stroke="#63b8ff" points="303.33,-29.42 306.77,-19.41 297.83,-25.09 303.33,-29.42"/>
</a>
</g>
</g>
<!-- Node4 -->
<g id="Node000004" class="node">
<title>Node4</title>
<g id="a_Node000004"><a xlink:title=" ">
<polygon fill="#e0e0e0" stroke="#999999" points="774.5,-19 727.5,-19 727.5,0 774.5,0 774.5,-19"/>
<text text-anchor="middle" x="751" y="-7" font-family="Helvetica,sans-Serif" font-size="10.00">vector</text>
</a>
</g>
</g>
<!-- Node1&#45;&gt;Node4 -->
<g id="edge3_Node000001_Node000004" class="edge">
<title>Node1&#45;&gt;Node4</title>
<g id="a_edge3_Node000001_Node000004"><a xlink:title=" ">
<path fill="none" stroke="#63b8ff" d="M538.88,-219.71C549.11,-190.47 573.35,-125.27 591,-110 633.75,-73 668.31,-108.63 713,-74 728.04,-62.35 738.39,-42.93 744.45,-28.63"/>
<polygon fill="#63b8ff" stroke="#63b8ff" points="747.71,-29.89 748.11,-19.31 741.2,-27.34 747.71,-29.89"/>
</a>
</g>
</g>
<!-- Node5 -->
<g id="Node000005" class="node">
<title>Node5</title>
<g id="a_Node000005"><a xlink:title=" ">
<polygon fill="#e0e0e0" stroke="#999999" points="908,-184 844,-184 844,-165 908,-165 908,-184"/>
<text text-anchor="middle" x="876" y="-172" font-family="Helvetica,sans-Serif" font-size="10.00">algorithm</text>
</a>
</g>
</g>
<!-- Node1&#45;&gt;Node5 -->
<g id="edge4_Node000001_Node000005" class="edge">
<title>Node1&#45;&gt;Node5</title>
<g id="a_edge4_Node000001_Node000005"><a xlink:title=" ">
<path fill="none" stroke="#63b8ff" d="M600.18,-223.12C660.2,-213.18 751.09,-197.95 830,-184 831.26,-183.78 832.54,-183.55 833.83,-183.32"/>
<polygon fill="#63b8ff" stroke="#63b8ff" points="834.62,-186.73 843.84,-181.51 833.38,-179.84 834.62,-186.73"/>
</a>
</g>
</g>
<!-- Node6 -->
<g id="Node000006" class="node">
<title>Node6</title>
<g id="a_Node000006"><a xlink:title=" ">
<polygon fill="#e0e0e0" stroke="#999999" points="160.5,-74 105.5,-74 105.5,-55 160.5,-55 160.5,-74"/>
<text text-anchor="middle" x="133" y="-62" font-family="Helvetica,sans-Serif" font-size="10.00">fstream</text>
</a>
</g>
</g>
<!-- Node1&#45;&gt;Node6 -->
<g id="edge5_Node000001_Node000006" class="edge">
<title>Node1&#45;&gt;Node6</title>
<g id="a_edge5_Node000001_Node000006"><a xlink:title=" ">
<path fill="none" stroke="#63b8ff" d="M467.78,-232.62C393.07,-229.33 268.86,-218.58 168,-184 121.85,-168.18 97.37,-171.27 73,-129 61.58,-109.2 84.4,-90.71 105.1,-78.84"/>
<polygon fill="#63b8ff" stroke="#63b8ff" points="106.89,-81.85 114.04,-74.03 103.57,-75.69 106.89,-81.85"/>
</a>
</g>
</g>
<!-- Node7 -->
<g id="Node000007" class="node">
<title>Node7</title>
<g id="a_Node000007"><a xlink:title=" ">
<polygon fill="#e0e0e0" stroke="#999999" points="975.5,-184 926.5,-184 926.5,-165 975.5,-165 975.5,-184"/>
<text text-anchor="middle" x="951" y="-172" font-family="Helvetica,sans-Serif" font-size="10.00">cctype</text>
</a>
</g>
</g>
<!-- Node1&#45;&gt;Node7 -->
<g id="edge6_Node000001_Node000007" class="edge">
<title>Node1&#45;&gt;Node7</title>
<g id="a_edge6_Node000001_Node000007"><a xlink:title=" ">
<path fill="none" stroke="#63b8ff" d="M600.1,-227.71C674.64,-220.09 799.58,-205.74 916.36,-183.91"/>
<polygon fill="#63b8ff" stroke="#63b8ff" points="917.02,-187.35 926.19,-182.05 915.71,-180.47 917.02,-187.35"/>
</a>
</g>
</g>
<!-- Node8 -->
<g id="Node000008" class="node">
<title>Node8</title>
<g id="a_Node000008"><a xlink:title=" ">
<polygon fill="#e0e0e0" stroke="#999999" points="1050,-184 994,-184 994,-165 1050,-165 1050,-184"/>
<text text-anchor="middle" x="1022" y="-172" font-family="Helvetica,sans-Serif" font-size="10.00">sstream</text>
</a>
</g>
</g>
<!-- Node1&#45;&gt;Node8 -->
<g id="edge7_Node000001_Node000008" class="edge">
<title>Node1&#45;&gt;Node8</title>
<g id="a_edge7_Node000001_Node000008"><a xlink:title=" ">
<path fill="none" stroke="#63b8ff" d="M600.06,-229.08C686.17,-222.13 841.58,-207.76 983.59,-184.06"/>
<polygon fill="#63b8ff" stroke="#63b8ff" points="984.51,-187.45 993.79,-182.33 983.34,-180.55 984.51,-187.45"/>
</a>
</g>
</g>
<!-- Node9 -->
<g id="Node000009" class="node">
<title>Node9</title>
<g id="a_Node000009"><a xlink:title=" ">
<polygon fill="#e0e0e0" stroke="#999999" points="1106,-129 1068,-129 1068,-110 1106,-110 1106,-129"/>
<text text-anchor="middle" x="1087" y="-117" font-family="Helvetica,sans-Serif" font-size="10.00">map</text>
</a>
</g>
</g>
<!-- Node1&#45;&gt;Node9 -->
<g id="edge8_Node000001_Node000009" class="edge">
<title>Node1&#45;&gt;Node9</title>
<g id="a_edge8_Node000001_Node000009"><a xlink:title=" ">
<path fill="none" stroke="#63b8ff" d="M600.13,-226.57C654.11,-219.29 731.83,-206.01 797,-184 814.89,-177.96 817.03,-170.79 835,-165 927.98,-135.06 958.83,-150.64 1058,-128.92"/>
<polygon fill="#63b8ff" stroke="#63b8ff" points="1058.83,-132.32 1067.81,-126.7 1057.29,-125.49 1058.83,-132.32"/>
</a>
</g>
</g>
<!-- Node10 -->
<g id="Node000010" class="node">
<title>Node10</title>
<g id="a_Node000010"><a xlink:href="Course_8hpp.html" target="_top" xlink:title=" ">
<polygon fill="white" stroke="#666666" points="703.5,-74 530.5,-74 530.5,-55 703.5,-55 703.5,-74"/>
<text text-anchor="middle" x="617" y="-62" font-family="Helvetica,sans-Serif" font-size="10.00">CourseManagement/Course.hpp</text>
</a>
</g>
</g>
<!-- Node1&#45;&gt;Node10 -->
<g id="edge9_Node000001_Node000010" class="edge">
<title>Node1&#45;&gt;Node10</title>
<g id="a_edge9_Node000001_Node000010"><a xlink:title=" ">
<path fill="none" stroke="#63b8ff" d="M533.56,-219.8C533.46,-195.45 536.18,-144.97 558,-110 565.96,-97.25 578.98,-86.85 590.78,-79.32"/>
<polygon fill="#63b8ff" stroke="#63b8ff" points="592.67,-82.27 599.45,-74.13 589.07,-76.26 592.67,-82.27"/>
</a>
</g>
</g>
<!-- Node11 -->
<g id="Node000011" class="node">
<title>Node11</title>
<g id="a_Node000011"><a xlink:href="CourseManager_8hpp.html" target="_top" xlink:title=" ">
<polygon fill="white" stroke="#666666" points="449.5,-184 234.5,-184 234.5,-165 449.5,-165 449.5,-184"/>
<text text-anchor="middle" x="342" y="-172" font-family="Helvetica,sans-Serif" font-size="10.00">CourseManagement/CourseManager.hpp</text>
</a>
</g>
</g>
<!-- Node1&#45;&gt;Node11 -->
<g id="edge12_Node000001_Node000011" class="edge">
<title>Node1&#45;&gt;Node11</title>
<g id="a_edge12_Node000001_Node000011"><a xlink:title=" ">
<path fill="none" stroke="#63b8ff" d="M488.01,-219.99C454.88,-209.89 410.71,-196.44 379.66,-186.98"/>
<polygon fill="#63b8ff" stroke="#63b8ff" points="380.66,-183.62 370.07,-184.05 378.62,-190.32 380.66,-183.62"/>
</a>
</g>
</g>
<!-- Node12 -->
<g id="Node000012" class="node">
<title>Node12</title>
<g id="a_Node000012"><a xlink:href="Validator_8hpp.html" target="_top" xlink:title=" ">
<polygon fill="white" stroke="#666666" points="505.5,-129 348.5,-129 348.5,-110 505.5,-110 505.5,-129"/>
<text text-anchor="middle" x="427" y="-117" font-family="Helvetica,sans-Serif" font-size="10.00">ValidationTools/Validator.hpp</text>
</a>
</g>
</g>
<!-- Node1&#45;&gt;Node12 -->
<g id="edge36_Node000001_Node000012" class="edge">
<title>Node1&#45;&gt;Node12</title>
<g id="a_edge36_Node000001_Node000012"><a xlink:title=" ">
<path fill="none" stroke="#63b8ff" d="M522.97,-219.78C511.68,-205.48 493.36,-183.04 476,-165 466.26,-154.88 454.66,-144.28 445.18,-135.97"/>
<polygon fill="#63b8ff" stroke="#63b8ff" points="447.36,-133.22 437.51,-129.32 442.77,-138.51 447.36,-133.22"/>
</a>
</g>
</g>
<!-- Node14 -->
<g id="Node000014" class="node">
<title>Node14</title>
<g id="a_Node000014"><a xlink:href="Err_8hpp.html" target="_top" xlink:title=" ">
<polygon fill="white" stroke="#666666" points="209.5,-129 82.5,-129 82.5,-110 209.5,-110 209.5,-129"/>
<text text-anchor="middle" x="146" y="-117" font-family="Helvetica,sans-Serif" font-size="10.00">ValidationTools/Err.hpp</text>
</a>
</g>
</g>
<!-- Node1&#45;&gt;Node14 -->
<g id="edge37_Node000001_Node000014" class="edge">
<title>Node1&#45;&gt;Node14</title>
<g id="a_edge37_Node000001_Node000014"><a xlink:title=" ">
<path fill="none" stroke="#63b8ff" d="M467.91,-230.42C381.88,-224.73 237.17,-211.35 192,-184 174.4,-173.34 161.55,-153.14 153.97,-138.37"/>
<polygon fill="#63b8ff" stroke="#63b8ff" points="157.06,-136.71 149.58,-129.2 150.75,-139.74 157.06,-136.71"/>
</a>
</g>
</g>
<!-- Node15 -->
<g id="Node000015" class="node">
<title>Node15</title>
<g id="a_Node000015"><a xlink:href="Sorter_8hpp.html" target="_top" xlink:title=" ">
<polygon fill="white" stroke="#666666" points="788,-184 684,-184 684,-165 788,-165 788,-184"/>
<text text-anchor="middle" x="736" y="-172" font-family="Helvetica,sans-Serif" font-size="10.00">Sorters/Sorter.hpp</text>
</a>
</g>
</g>
<!-- Node1&#45;&gt;Node15 -->
<g id="edge24_Node000001_Node000015" class="edge">
<title>Node1&#45;&gt;Node15</title>
<g id="a_edge24_Node000001_Node000015"><a xlink:title=" ">
<path fill="none" stroke="#63b8ff" d="M582.38,-219.99C617.4,-209.85 664.11,-196.32 696.8,-186.85"/>
<polygon fill="#63b8ff" stroke="#63b8ff" points="697.83,-190.2 706.46,-184.05 695.89,-183.47 697.83,-190.2"/>
</a>
</g>
</g>
<!-- Node10&#45;&gt;Node3 -->
<g id="edge10_Node000010_Node000003" class="edge">
<title>Node10&#45;&gt;Node3</title>
<g id="a_edge10_Node000010_Node000003"><a xlink:title=" ">
<path fill="none" stroke="#63b8ff" d="M568.32,-54.98C505.9,-44.07 399.39,-25.44 346.2,-16.13"/>
<polygon fill="#63b8ff" stroke="#63b8ff" points="346.76,-12.68 336.31,-14.4 345.55,-19.57 346.76,-12.68"/>
</a>
</g>
</g>
<!-- Node10&#45;&gt;Node4 -->
<g id="edge11_Node000010_Node000004" class="edge">
<title>Node10&#45;&gt;Node4</title>
<g id="a_edge11_Node000010_Node000004"><a xlink:title=" ">
<path fill="none" stroke="#63b8ff" d="M638.53,-54.98C660.47,-46.3 694.74,-32.75 719.69,-22.88"/>
<polygon fill="#63b8ff" stroke="#63b8ff" points="721.07,-26.1 729.08,-19.17 718.49,-19.59 721.07,-26.1"/>
</a>
</g>
</g>
<!-- Node11&#45;&gt;Node3 -->
<g id="edge13_Node000011_Node000003" class="edge">
<title>Node11&#45;&gt;Node3</title>
<g id="a_edge13_Node000011_Node000003"><a xlink:title=" ">
<path fill="none" stroke="#63b8ff" d="M329.79,-164.86C319.65,-156.88 305.96,-144.01 300,-129 286.67,-95.44 297.98,-52.65 306.56,-28.75"/>
<polygon fill="#63b8ff" stroke="#63b8ff" points="309.91,-29.79 310.21,-19.2 303.37,-27.29 309.91,-29.79"/>
</a>
</g>
</g>
<!-- Node11&#45;&gt;Node4 -->
<g id="edge14_Node000011_Node000004" class="edge">
<title>Node11&#45;&gt;Node4</title>
<g id="a_edge14_Node000011_Node000004"><a xlink:title=" ">
<path fill="none" stroke="#63b8ff" d="M341.25,-164.98C340.51,-156.03 339.42,-141.54 339,-129 337.79,-93.19 341.03,-74.64 371,-55 427.68,-17.85 635.44,-11.65 717.41,-10.66"/>
<polygon fill="#63b8ff" stroke="#63b8ff" points="717.48,-14.16 727.45,-10.56 717.41,-7.16 717.48,-14.16"/>
</a>
</g>
</g>
<!-- Node11&#45;&gt;Node11 -->
<g id="edge15_Node000011_Node000011" class="edge">
<title>Node11&#45;&gt;Node11</title>
<g id="a_edge15_Node000011_Node000011"><a xlink:title=" ">
<path fill="none" stroke="#63b8ff" d="M400.42,-184.01C435.02,-186.08 467.5,-182.91 467.5,-174.5 467.5,-166.91 441.06,-163.59 410.47,-164.53"/>
<polygon fill="#63b8ff" stroke="#63b8ff" points="410.25,-161.04 400.42,-164.99 410.57,-168.03 410.25,-161.04"/>
</a>
</g>
</g>
<!-- Node11&#45;&gt;Node12 -->
<g id="edge16_Node000011_Node000012" class="edge">
<title>Node11&#45;&gt;Node12</title>
<g id="a_edge16_Node000011_Node000012"><a xlink:title=" ">
<path fill="none" stroke="#63b8ff" d="M355.66,-164.98C368.84,-156.77 389.03,-144.18 404.57,-134.49"/>
<polygon fill="#63b8ff" stroke="#63b8ff" points="406.46,-137.43 413.09,-129.17 402.76,-131.49 406.46,-137.43"/>
</a>
</g>
</g>
<!-- Node11&#45;&gt;Node14 -->
<g id="edge21_Node000011_Node000014" class="edge">
<title>Node11&#45;&gt;Node14</title>
<g id="a_edge21_Node000011_Node000014"><a xlink:title=" ">
<path fill="none" stroke="#63b8ff" d="M310.51,-164.98C277.18,-155.97 224.4,-141.7 187.65,-131.76"/>
<polygon fill="#63b8ff" stroke="#63b8ff" points="188.3,-128.31 177.74,-129.08 186.48,-135.07 188.3,-128.31"/>
</a>
</g>
</g>
<!-- Node12&#45;&gt;Node3 -->
<g id="edge17_Node000012_Node000003" class="edge">
<title>Node12&#45;&gt;Node3</title>
<g id="a_edge17_Node000012_Node000003"><a xlink:title=" ">
<path fill="none" stroke="#63b8ff" d="M414.94,-109.84C403.27,-101.25 385.28,-87.45 371,-74 355.08,-59 338.56,-40.18 327.43,-26.94"/>
<polygon fill="#63b8ff" stroke="#63b8ff" points="330.03,-24.59 320.96,-19.13 324.65,-29.06 330.03,-24.59"/>
</a>
</g>
</g>
<!-- Node12&#45;&gt;Node4 -->
<g id="edge18_Node000012_Node000004" class="edge">
<title>Node12&#45;&gt;Node4</title>
<g id="a_edge18_Node000012_Node000004"><a xlink:title=" ">
<path fill="none" stroke="#63b8ff" d="M436.65,-110C452.87,-96.19 487.16,-69.02 521,-55 587.24,-27.57 671.3,-16.82 717.24,-12.78"/>
<polygon fill="#63b8ff" stroke="#63b8ff" points="717.58,-16.26 727.26,-11.95 717,-9.29 717.58,-16.26"/>
</a>
</g>
</g>
<!-- Node12&#45;&gt;Node10 -->
<g id="edge20_Node000012_Node000010" class="edge">
<title>Node12&#45;&gt;Node10</title>
<g id="a_edge20_Node000012_Node000010"><a xlink:title=" ">
<path fill="none" stroke="#63b8ff" d="M457.53,-109.98C489.7,-101.01 540.56,-86.82 576.17,-76.89"/>
<polygon fill="#63b8ff" stroke="#63b8ff" points="577.54,-80.14 586.23,-74.08 575.66,-73.4 577.54,-80.14"/>
</a>
</g>
</g>
<!-- Node13 -->
<g id="Node000013" class="node">
<title>Node13</title>
<g id="a_Node000013"><a xlink:title=" ">
<polygon fill="#e0e0e0" stroke="#999999" points="473.5,-74 380.5,-74 380.5,-55 473.5,-55 473.5,-74"/>
<text text-anchor="middle" x="427" y="-62" font-family="Helvetica,sans-Serif" font-size="10.00">unordered_map</text>
</a>
</g>
</g>
<!-- Node12&#45;&gt;Node13 -->
<g id="edge19_Node000012_Node000013" class="edge">
<title>Node12&#45;&gt;Node13</title>
<g id="a_edge19_Node000012_Node000013"><a xlink:title=" ">
<path fill="none" stroke="#63b8ff" d="M427,-109.75C427,-102.8 427,-92.85 427,-84.13"/>
<polygon fill="#63b8ff" stroke="#63b8ff" points="430.5,-84.09 427,-74.09 423.5,-84.09 430.5,-84.09"/>
</a>
</g>
</g>
<!-- Node14&#45;&gt;Node2 -->
<g id="edge22_Node000014_Node000002" class="edge">
<title>Node14&#45;&gt;Node2</title>
<g id="a_edge22_Node000014_Node000002"><a xlink:title=" ">
<path fill="none" stroke="#63b8ff" d="M127.36,-109.98C108.7,-101.46 79.75,-88.23 58.26,-78.41"/>
<polygon fill="#63b8ff" stroke="#63b8ff" points="59.53,-75.14 48.98,-74.17 56.62,-81.51 59.53,-75.14"/>
</a>
</g>
</g>
<!-- Node14&#45;&gt;Node6 -->
<g id="edge23_Node000014_Node000006" class="edge">
<title>Node14&#45;&gt;Node6</title>
<g id="a_edge23_Node000014_Node000006"><a xlink:title=" ">
<path fill="none" stroke="#63b8ff" d="M143.85,-109.75C142.13,-102.72 139.65,-92.62 137.5,-83.84"/>
<polygon fill="#63b8ff" stroke="#63b8ff" points="140.89,-82.97 135.11,-74.09 134.09,-84.63 140.89,-82.97"/>
</a>
</g>
</g>
<!-- Node15&#45;&gt;Node4 -->
<g id="edge25_Node000015_Node000004" class="edge">
<title>Node15&#45;&gt;Node4</title>
<g id="a_edge25_Node000015_Node000004"><a xlink:title=" ">
<path fill="none" stroke="#63b8ff" d="M784.71,-164.94C822.13,-157.26 869.34,-144.78 881,-129 914.37,-83.85 832.78,-42.44 784.12,-22.68"/>
<polygon fill="#63b8ff" stroke="#63b8ff" points="785.17,-19.33 774.58,-18.91 782.6,-25.84 785.17,-19.33"/>
</a>
</g>
</g>
<!-- Node15&#45;&gt;Node9 -->
<g id="edge26_Node000015_Node000009" class="edge">
<title>Node15&#45;&gt;Node9</title>
<g id="a_edge26_Node000015_Node000009"><a xlink:title=" ">
<path fill="none" stroke="#63b8ff" d="M788.11,-166.78C866.27,-156.64 1009.15,-137.83 1057.8,-128.78"/>
<polygon fill="#63b8ff" stroke="#63b8ff" points="1058.72,-132.17 1067.83,-126.76 1057.33,-125.31 1058.72,-132.17"/>
</a>
</g>
</g>
<!-- Node16 -->
<g id="Node000016" class="node">
<title>Node16</title>
<g id="a_Node000016"><a xlink:href="BubbleSort_8hpp.html" target="_top" xlink:title=" ">
<polygon fill="white" stroke="#666666" points="728,-129 600,-129 600,-110 728,-110 728,-129"/>
<text text-anchor="middle" x="664" y="-117" font-family="Helvetica,sans-Serif" font-size="10.00">Sorters/BubbleSort.hpp</text>
</a>
</g>
</g>
<!-- Node15&#45;&gt;Node16 -->
<g id="edge27_Node000015_Node000016" class="edge">
<title>Node15&#45;&gt;Node16</title>
<g id="a_edge27_Node000015_Node000016"><a xlink:title=" ">
<path fill="none" stroke="#63b8ff" d="M724.43,-164.98C713.58,-157 697.12,-144.88 684.12,-135.31"/>
<polygon fill="#63b8ff" stroke="#63b8ff" points="685.91,-132.28 675.78,-129.17 681.76,-137.92 685.91,-132.28"/>
</a>
</g>
</g>
<!-- Node17 -->
<g id="Node000017" class="node">
<title>Node17</title>
<g id="a_Node000017"><a xlink:href="QuickSort_8hpp.html" target="_top" xlink:title=" ">
<polygon fill="white" stroke="#666666" points="1050,-129 928,-129 928,-110 1050,-110 1050,-129"/>
<text text-anchor="middle" x="989" y="-117" font-family="Helvetica,sans-Serif" font-size="10.00">Sorters/QuickSort.hpp</text>
</a>
</g>
</g>
<!-- Node15&#45;&gt;Node17 -->
<g id="edge30_Node000015_Node000017" class="edge">
<title>Node15&#45;&gt;Node17</title>
<g id="a_edge30_Node000015_Node000017"><a xlink:title=" ">
<path fill="none" stroke="#63b8ff" d="M771.53,-164.98C813.54,-155.76 883.73,-141.03 933.03,-131.07"/>
<polygon fill="#63b8ff" stroke="#63b8ff" points="933.79,-134.49 942.9,-129.08 932.41,-127.62 933.79,-134.49"/>
</a>
</g>
</g>
<!-- Node18 -->
<g id="Node000018" class="node">
<title>Node18</title>
<g id="a_Node000018"><a xlink:href="MergeSort_8hpp.html" target="_top" xlink:title=" ">
<polygon fill="white" stroke="#666666" points="871.5,-129 746.5,-129 746.5,-110 871.5,-110 871.5,-129"/>
<text text-anchor="middle" x="809" y="-117" font-family="Helvetica,sans-Serif" font-size="10.00">Sorters/MergeSort.hpp</text>
</a>
</g>
</g>
<!-- Node15&#45;&gt;Node18 -->
<g id="edge33_Node000015_Node000018" class="edge">
<title>Node15&#45;&gt;Node18</title>
<g id="a_edge33_Node000015_Node000018"><a xlink:title=" ">
<path fill="none" stroke="#63b8ff" d="M747.73,-164.98C758.73,-157 775.42,-144.88 788.6,-135.31"/>
<polygon fill="#63b8ff" stroke="#63b8ff" points="791.02,-137.88 797.06,-129.17 786.91,-132.21 791.02,-137.88"/>
</a>
</g>
</g>
<!-- Node16&#45;&gt;Node4 -->
<g id="edge28_Node000016_Node000004" class="edge">
<title>Node16&#45;&gt;Node4</title>
<g id="a_edge28_Node000016_Node000004"><a xlink:title=" ">
<path fill="none" stroke="#63b8ff" d="M694.88,-109.91C712.92,-103.2 734.35,-91.93 746,-74 754.57,-60.81 755.16,-42.69 753.99,-29.17"/>
<polygon fill="#63b8ff" stroke="#63b8ff" points="757.45,-28.61 752.74,-19.12 750.5,-29.48 757.45,-28.61"/>
</a>
</g>
</g>
<!-- Node16&#45;&gt;Node10 -->
<g id="edge29_Node000016_Node000010" class="edge">
<title>Node16&#45;&gt;Node10</title>
<g id="a_edge29_Node000016_Node000010"><a xlink:title=" ">
<path fill="none" stroke="#63b8ff" d="M656.24,-109.75C649.53,-102.18 639.66,-91.05 631.49,-81.84"/>
<polygon fill="#63b8ff" stroke="#63b8ff" points="633.87,-79.25 624.62,-74.09 628.63,-83.89 633.87,-79.25"/>
</a>
</g>
</g>
<!-- Node17&#45;&gt;Node4 -->
<g id="edge31_Node000017_Node000004" class="edge">
<title>Node17&#45;&gt;Node4</title>
<g id="a_edge31_Node000017_Node000004"><a xlink:title=" ">
<path fill="none" stroke="#63b8ff" d="M981.13,-109.73C968.37,-96.03 941.78,-69.62 914,-55 872.24,-33.02 818.61,-21.09 784.5,-15.26"/>
<polygon fill="#63b8ff" stroke="#63b8ff" points="785.02,-11.8 774.58,-13.65 783.89,-18.71 785.02,-11.8"/>
</a>
</g>
</g>
<!-- Node17&#45;&gt;Node15 -->
<g id="edge32_Node000017_Node000015" class="edge">
<title>Node17&#45;&gt;Node15</title>
<g id="a_edge32_Node000017_Node000015"><a xlink:title=" ">
<path fill="none" stroke="#63b8ff" d="M953.16,-129.08C911.02,-138.33 840.82,-153.07 791.62,-163"/>
<polygon fill="#63b8ff" stroke="#63b8ff" points="790.88,-159.58 781.76,-164.98 792.26,-166.44 790.88,-159.58"/>
</a>
</g>
</g>
<!-- Node18&#45;&gt;Node4 -->
<g id="edge34_Node000018_Node000004" class="edge">
<title>Node18&#45;&gt;Node4</title>
<g id="a_edge34_Node000018_Node000004"><a xlink:title=" ">
<path fill="none" stroke="#63b8ff" d="M806.43,-109.96C802.5,-97.47 794.35,-73.65 784,-55 778.59,-45.24 771.3,-35.19 764.95,-27.11"/>
<polygon fill="#63b8ff" stroke="#63b8ff" points="767.58,-24.79 758.56,-19.23 762.14,-29.2 767.58,-24.79"/>
</a>
</g>
</g>
<!-- Node18&#45;&gt;Node10 -->
<g id="edge35_Node000018_Node000010" class="edge">
<title>Node18&#45;&gt;Node10</title>
<g id="a_edge35_Node000018_Node000010"><a xlink:title=" ">
<path fill="none" stroke="#63b8ff" d="M778.15,-109.98C745.5,-100.97 693.8,-86.7 657.8,-76.76"/>
<polygon fill="#63b8ff" stroke="#63b8ff" points="658.66,-73.37 648.09,-74.08 656.8,-80.12 658.66,-73.37"/>
</a>
</g>
</g>
</g>
</svg>
