<?xml version="1.0" encoding="UTF-8" standalone="no"?>
<!DOCTYPE svg PUBLIC "-//W3C//DTD SVG 1.1//EN"
 "http://www.w3.org/Graphics/SVG/1.1/DTD/svg11.dtd">
<!-- Generated by graphviz version 2.43.0 (0)
 -->
<!-- Title: src/CourseManagement/Course.cpp Pages: 1 -->
<svg width="315pt" height="148pt"
 viewBox="0.00 0.00 315.30 148.00" xmlns="http://www.w3.org/2000/svg" xmlns:xlink="http://www.w3.org/1999/xlink">
<g id="graph0" class="graph" transform="scale(1 1) rotate(0) translate(4 144)">
<title>src/CourseManagement/Course.cpp</title>
<!-- Node1 -->
<g id="Node000001" class="node">
<title>Node1</title>
<g id="a_Node000001"><a xlink:title=" ">
<polygon fill="#999999" stroke="#666666" points="215,-140 83,-140 83,-110 215,-110 215,-140"/>
<text text-anchor="start" x="91" y="-128" font-family="Helvetica,sans-Serif" font-size="10.00">src/CourseManagement</text>
<text text-anchor="middle" x="149" y="-117" font-family="Helvetica,sans-Serif" font-size="10.00">/Course.cpp</text>
</a>
</g>
</g>
<!-- Node2 -->
<g id="Node000002" class="node">
<title>Node2</title>
<g id="a_Node000002"><a xlink:title=" ">
<polygon fill="#e0e0e0" stroke="#999999" points="64,-74 0,-74 0,-55 64,-55 64,-74"/>
<text text-anchor="middle" x="32" y="-62" font-family="Helvetica,sans-Serif" font-size="10.00">algorithm</text>
</a>
</g>
</g>
<!-- Node1&#45;&gt;Node2 -->
<g id="edge1_Node000001_Node000002" class="edge">
<title>Node1&#45;&gt;Node2</title>
<g id="a_edge1_Node000001_Node000002"><a xlink:title=" ">
<path fill="none" stroke="#63b8ff" d="M120.98,-109.99C101.98,-100.49 77.03,-88.02 58.39,-78.69"/>
<polygon fill="#63b8ff" stroke="#63b8ff" points="59.79,-75.48 49.28,-74.14 56.66,-81.74 59.79,-75.48"/>
</a>
</g>
</g>
<!-- Node3 -->
<g id="Node000003" class="node">
<title>Node3</title>
<g id="a_Node000003"><a xlink:title=" ">
<polygon fill="#e0e0e0" stroke="#999999" points="184,-19 140,-19 140,0 184,0 184,-19"/>
<text text-anchor="middle" x="162" y="-7" font-family="Helvetica,sans-Serif" font-size="10.00">string</text>
</a>
</g>
</g>
<!-- Node1&#45;&gt;Node3 -->
<g id="edge2_Node000001_Node000003" class="edge">
<title>Node1&#45;&gt;Node3</title>
<g id="a_edge2_Node000001_Node000003"><a xlink:title=" ">
<path fill="none" stroke="#63b8ff" d="M132.36,-109.79C118.42,-96.07 102.11,-74.55 111,-55 116.62,-42.63 127.57,-32.36 137.89,-24.81"/>
<polygon fill="#63b8ff" stroke="#63b8ff" points="139.96,-27.63 146.27,-19.12 136.03,-21.84 139.96,-27.63"/>
</a>
</g>
</g>
<!-- Node4 -->
<g id="Node000004" class="node">
<title>Node4</title>
<g id="a_Node000004"><a xlink:title=" ">
<polygon fill="#e0e0e0" stroke="#999999" points="274.5,-19 227.5,-19 227.5,0 274.5,0 274.5,-19"/>
<text text-anchor="middle" x="251" y="-7" font-family="Helvetica,sans-Serif" font-size="10.00">vector</text>
</a>
</g>
</g>
<!-- Node1&#45;&gt;Node4 -->
<g id="edge3_Node000001_Node000004" class="edge">
<title>Node1&#45;&gt;Node4</title>
<g id="a_edge3_Node000001_Node000004"><a xlink:title=" ">
<path fill="none" stroke="#63b8ff" d="M215.23,-119.98C247.21,-114.29 282.92,-101.63 303,-74 315.86,-56.31 294.6,-37 275.52,-24.38"/>
<polygon fill="#63b8ff" stroke="#63b8ff" points="277.37,-21.41 267.04,-19.08 273.66,-27.35 277.37,-21.41"/>
</a>
</g>
</g>
<!-- Node5 -->
<g id="Node000005" class="node">
<title>Node5</title>
<g id="a_Node000005"><a xlink:href="Course_8hpp.html" target="_top" xlink:title=" ">
<polygon fill="white" stroke="#666666" points="293.5,-74 120.5,-74 120.5,-55 293.5,-55 293.5,-74"/>
<text text-anchor="middle" x="207" y="-62" font-family="Helvetica,sans-Serif" font-size="10.00">CourseManagement/Course.hpp</text>
</a>
</g>
</g>
<!-- Node1&#45;&gt;Node5 -->
<g id="edge4_Node000001_Node000005" class="edge">
<title>Node1&#45;&gt;Node5</title>
<g id="a_edge4_Node000001_Node000005"><a xlink:title=" ">
<path fill="none" stroke="#63b8ff" d="M163.04,-109.84C171.55,-101.26 182.41,-90.3 191.22,-81.42"/>
<polygon fill="#63b8ff" stroke="#63b8ff" points="193.75,-83.83 198.31,-74.27 188.78,-78.9 193.75,-83.83"/>
</a>
</g>
</g>
<!-- Node5&#45;&gt;Node3 -->
<g id="edge5_Node000005_Node000003" class="edge">
<title>Node5&#45;&gt;Node3</title>
<g id="a_edge5_Node000005_Node000003"><a xlink:title=" ">
<path fill="none" stroke="#63b8ff" d="M199.57,-54.75C193.15,-47.18 183.69,-36.05 175.88,-26.84"/>
<polygon fill="#63b8ff" stroke="#63b8ff" points="178.43,-24.45 169.29,-19.09 173.1,-28.98 178.43,-24.45"/>
</a>
</g>
</g>
<!-- Node5&#45;&gt;Node4 -->
<g id="edge6_Node000005_Node000004" class="edge">
<title>Node5&#45;&gt;Node4</title>
<g id="a_edge6_Node000005_Node000004"><a xlink:title=" ">
<path fill="none" stroke="#63b8ff" d="M214.27,-54.75C220.54,-47.18 229.79,-36.05 237.43,-26.84"/>
<polygon fill="#63b8ff" stroke="#63b8ff" points="240.17,-29.02 243.87,-19.09 234.79,-24.55 240.17,-29.02"/>
</a>
</g>
</g>
</g>
</svg>
