<?xml version="1.0" encoding="UTF-8" standalone="no"?>
<!DOCTYPE svg PUBLIC "-//W3C//DTD SVG 1.1//EN"
 "http://www.w3.org/Graphics/SVG/1.1/DTD/svg11.dtd">
<!-- Generated by graphviz version 2.43.0 (0)
 -->
<!-- Title: include/CourseManagement/Course.hpp Pages: 1 -->
<svg width="1026pt" height="236pt"
 viewBox="0.00 0.00 1025.50 236.00" xmlns="http://www.w3.org/2000/svg" xmlns:xlink="http://www.w3.org/1999/xlink">
<g id="graph0" class="graph" transform="scale(1 1) rotate(0) translate(4 232)">
<title>include/CourseManagement/Course.hpp</title>
<!-- Node1 -->
<g id="Node000001" class="node">
<title>Node1</title>
<g id="a_Node000001"><a xlink:title=" ">
<polygon fill="#999999" stroke="#666666" points="607.5,-228 454.5,-228 454.5,-198 607.5,-198 607.5,-228"/>
<text text-anchor="start" x="462.5" y="-216" font-family="Helvetica,sans-Serif" font-size="10.00">include/CourseManagement</text>
<text text-anchor="middle" x="531" y="-205" font-family="Helvetica,sans-Serif" font-size="10.00">/Course.hpp</text>
</a>
</g>
</g>
<!-- Node2 -->
<g id="Node000002" class="node">
<title>Node2</title>
<g id="a_Node000002"><a xlink:href="BubbleSort_8hpp.html" target="_top" xlink:title=" ">
<polygon fill="white" stroke="#666666" points="349.5,-156.5 182.5,-156.5 182.5,-137.5 349.5,-137.5 349.5,-156.5"/>
<text text-anchor="middle" x="266" y="-144.5" font-family="Helvetica,sans-Serif" font-size="10.00">include/Sorters/BubbleSort.hpp</text>
</a>
</g>
</g>
<!-- Node1&#45;&gt;Node2 -->
<g id="edge1_Node000001_Node000002" class="edge">
<title>Node1&#45;&gt;Node2</title>
<g id="a_edge1_Node000001_Node000002"><a xlink:title=" ">
<path fill="none" stroke="#63b8ff" d="M463.08,-195.6C411.42,-183.12 342.42,-166.46 301.27,-156.52"/>
<polygon fill="#63b8ff" stroke="#63b8ff" points="462.3,-199.01 472.84,-197.95 463.95,-192.21 462.3,-199.01"/>
</a>
</g>
</g>
<!-- Node5 -->
<g id="Node000005" class="node">
<title>Node5</title>
<g id="a_Node000005"><a xlink:href="CourseManager_8cpp.html" target="_top" xlink:title=" ">
<polygon fill="white" stroke="#666666" points="538,-30 406,-30 406,0 538,0 538,-30"/>
<text text-anchor="start" x="414" y="-18" font-family="Helvetica,sans-Serif" font-size="10.00">src/CourseManagement</text>
<text text-anchor="middle" x="472" y="-7" font-family="Helvetica,sans-Serif" font-size="10.00">/CourseManager.cpp</text>
</a>
</g>
</g>
<!-- Node1&#45;&gt;Node5 -->
<g id="edge11_Node000001_Node000005" class="edge">
<title>Node1&#45;&gt;Node5</title>
<g id="a_edge11_Node000001_Node000005"><a xlink:title=" ">
<path fill="none" stroke="#63b8ff" d="M543.76,-188.43C547.51,-180.3 551.11,-170.97 553,-162 555.74,-148.95 555.23,-145.15 553,-132 547.82,-101.37 547.47,-91.68 530,-66 520.28,-51.71 505.47,-39.04 493.26,-30.03"/>
<polygon fill="#63b8ff" stroke="#63b8ff" points="540.5,-187.14 539.22,-197.66 546.78,-190.24 540.5,-187.14"/>
</a>
</g>
</g>
<!-- Node7 -->
<g id="Node000007" class="node">
<title>Node7</title>
<g id="a_Node000007"><a xlink:href="BubbleSort_8cpp.html" target="_top" xlink:title=" ">
<polygon fill="white" stroke="#666666" points="316.5,-90.5 171.5,-90.5 171.5,-71.5 316.5,-71.5 316.5,-90.5"/>
<text text-anchor="middle" x="244" y="-78.5" font-family="Helvetica,sans-Serif" font-size="10.00">src/Sorters/BubbleSort.cpp</text>
</a>
</g>
</g>
<!-- Node1&#45;&gt;Node7 -->
<g id="edge12_Node000001_Node000007" class="edge">
<title>Node1&#45;&gt;Node7</title>
<g id="a_edge12_Node000001_Node000007"><a xlink:title=" ">
<path fill="none" stroke="#63b8ff" d="M491.95,-193.5C457.17,-177.1 404.85,-152.62 359,-132 325.84,-117.08 287.01,-100.35 264.01,-90.52"/>
<polygon fill="#63b8ff" stroke="#63b8ff" points="490.74,-196.79 501.27,-197.9 493.73,-190.46 490.74,-196.79"/>
</a>
</g>
</g>
<!-- Node8 -->
<g id="Node000008" class="node">
<title>Node8</title>
<g id="a_Node000008"><a xlink:href="MergeSort_8hpp.html" target="_top" xlink:title=" ">
<polygon fill="white" stroke="#666666" points="164,-156.5 0,-156.5 0,-137.5 164,-137.5 164,-156.5"/>
<text text-anchor="middle" x="82" y="-144.5" font-family="Helvetica,sans-Serif" font-size="10.00">include/Sorters/MergeSort.hpp</text>
</a>
</g>
</g>
<!-- Node1&#45;&gt;Node8 -->
<g id="edge8_Node000001_Node000008" class="edge">
<title>Node1&#45;&gt;Node8</title>
<g id="a_edge8_Node000001_Node000008"><a xlink:title=" ">
<path fill="none" stroke="#63b8ff" d="M444.38,-200.16C372.06,-190.21 266.27,-175.48 174,-162 162.17,-160.27 149.49,-158.37 137.44,-156.55"/>
<polygon fill="#63b8ff" stroke="#63b8ff" points="443.97,-203.64 454.36,-201.53 444.93,-196.7 443.97,-203.64"/>
</a>
</g>
</g>
<!-- Node9 -->
<g id="Node000009" class="node">
<title>Node9</title>
<g id="a_Node000009"><a xlink:href="Course_8cpp.html" target="_top" xlink:title=" ">
<polygon fill="white" stroke="#666666" points="732,-162 600,-162 600,-132 732,-132 732,-162"/>
<text text-anchor="start" x="608" y="-150" font-family="Helvetica,sans-Serif" font-size="10.00">src/CourseManagement</text>
<text text-anchor="middle" x="666" y="-139" font-family="Helvetica,sans-Serif" font-size="10.00">/Course.cpp</text>
</a>
</g>
</g>
<!-- Node1&#45;&gt;Node9 -->
<g id="edge10_Node000001_Node000009" class="edge">
<title>Node1&#45;&gt;Node9</title>
<g id="a_edge10_Node000001_Node000009"><a xlink:title=" ">
<path fill="none" stroke="#63b8ff" d="M569.71,-193.65C590.94,-183.58 616.85,-171.3 636.44,-162.01"/>
<polygon fill="#63b8ff" stroke="#63b8ff" points="568.16,-190.51 560.63,-197.95 571.16,-196.83 568.16,-190.51"/>
</a>
</g>
</g>
<!-- Node10 -->
<g id="Node000010" class="node">
<title>Node10</title>
<g id="a_Node000010"><a xlink:href="MergeSort_8cpp.html" target="_top" xlink:title=" ">
<polygon fill="white" stroke="#666666" points="892,-156.5 750,-156.5 750,-137.5 892,-137.5 892,-156.5"/>
<text text-anchor="middle" x="821" y="-144.5" font-family="Helvetica,sans-Serif" font-size="10.00">src/Sorters/MergeSort.cpp</text>
</a>
</g>
</g>
<!-- Node1&#45;&gt;Node10 -->
<g id="edge13_Node000001_Node000010" class="edge">
<title>Node1&#45;&gt;Node10</title>
<g id="a_edge13_Node000001_Node000010"><a xlink:title=" ">
<path fill="none" stroke="#63b8ff" d="M604.62,-195.75C661.23,-183.26 737.18,-166.5 782.41,-156.52"/>
<polygon fill="#63b8ff" stroke="#63b8ff" points="603.65,-192.38 594.64,-197.95 605.16,-199.22 603.65,-192.38"/>
</a>
</g>
</g>
<!-- Node11 -->
<g id="Node000011" class="node">
<title>Node11</title>
<g id="a_Node000011"><a xlink:href="Validator_8cpp.html" target="_top" xlink:title=" ">
<polygon fill="white" stroke="#666666" points="1017.5,-162 910.5,-162 910.5,-132 1017.5,-132 1017.5,-162"/>
<text text-anchor="start" x="918.5" y="-150" font-family="Helvetica,sans-Serif" font-size="10.00">src/ValidationTools</text>
<text text-anchor="middle" x="964" y="-139" font-family="Helvetica,sans-Serif" font-size="10.00">/Validator.cpp</text>
</a>
</g>
</g>
<!-- Node1&#45;&gt;Node11 -->
<g id="edge14_Node000001_Node000011" class="edge">
<title>Node1&#45;&gt;Node11</title>
<g id="a_edge14_Node000001_Node000011"><a xlink:title=" ">
<path fill="none" stroke="#63b8ff" d="M618.19,-202.32C693.37,-193.47 804.7,-179.17 901,-162 904.09,-161.45 907.25,-160.85 910.45,-160.22"/>
<polygon fill="#63b8ff" stroke="#63b8ff" points="617.35,-198.9 607.83,-203.53 618.16,-205.85 617.35,-198.9"/>
</a>
</g>
</g>
<!-- Node12 -->
<g id="Node000012" class="node">
<title>Node12</title>
<g id="a_Node000012"><a xlink:href="Validator_8hpp.html" target="_top" xlink:title=" ">
<polygon fill="white" stroke="#666666" points="543.5,-162 436.5,-162 436.5,-132 543.5,-132 543.5,-162"/>
<text text-anchor="start" x="444.5" y="-150" font-family="Helvetica,sans-Serif" font-size="10.00">src/ValidationTools</text>
<text text-anchor="middle" x="490" y="-139" font-family="Helvetica,sans-Serif" font-size="10.00">/Validator.hpp</text>
</a>
</g>
</g>
<!-- Node1&#45;&gt;Node12 -->
<g id="edge15_Node000001_Node000012" class="edge">
<title>Node1&#45;&gt;Node12</title>
<g id="a_edge15_Node000001_Node000012"><a xlink:title=" ">
<path fill="none" stroke="#63b8ff" d="M516.42,-189.24C510.64,-180.21 504.16,-170.11 499.07,-162.16"/>
<polygon fill="#63b8ff" stroke="#63b8ff" points="513.56,-191.26 521.9,-197.8 519.45,-187.49 513.56,-191.26"/>
</a>
</g>
</g>
<!-- Node3 -->
<g id="Node000003" class="node">
<title>Node3</title>
<g id="a_Node000003"><a xlink:href="Sorter_8hpp.html" target="_top" xlink:title=" ">
<polygon fill="white" stroke="#666666" points="153,-90.5 11,-90.5 11,-71.5 153,-71.5 153,-90.5"/>
<text text-anchor="middle" x="82" y="-78.5" font-family="Helvetica,sans-Serif" font-size="10.00">include/Sorters/Sorter.hpp</text>
</a>
</g>
</g>
<!-- Node2&#45;&gt;Node3 -->
<g id="edge2_Node000002_Node000003" class="edge">
<title>Node2&#45;&gt;Node3</title>
<g id="a_edge2_Node000002_Node000003"><a xlink:title=" ">
<path fill="none" stroke="#63b8ff" d="M231.5,-134C195.17,-121.36 138.85,-101.78 106.72,-90.6"/>
<polygon fill="#63b8ff" stroke="#63b8ff" points="230.59,-137.39 241.18,-137.37 232.89,-130.78 230.59,-137.39"/>
</a>
</g>
</g>
<!-- Node2&#45;&gt;Node7 -->
<g id="edge7_Node000002_Node000007" class="edge">
<title>Node2&#45;&gt;Node7</title>
<g id="a_edge7_Node000002_Node000007"><a xlink:title=" ">
<path fill="none" stroke="#63b8ff" d="M259.75,-127.82C255.6,-115.74 250.33,-100.41 247.06,-90.91"/>
<polygon fill="#63b8ff" stroke="#63b8ff" points="256.47,-129.05 263.03,-137.37 263.09,-126.77 256.47,-129.05"/>
</a>
</g>
</g>
<!-- Node4 -->
<g id="Node000004" class="node">
<title>Node4</title>
<g id="a_Node000004"><a xlink:href="QuickSort_8hpp.html" target="_top" xlink:title=" ">
<polygon fill="white" stroke="#666666" points="162.5,-24.5 1.5,-24.5 1.5,-5.5 162.5,-5.5 162.5,-24.5"/>
<text text-anchor="middle" x="82" y="-12.5" font-family="Helvetica,sans-Serif" font-size="10.00">include/Sorters/QuickSort.hpp</text>
</a>
</g>
</g>
<!-- Node3&#45;&gt;Node4 -->
<g id="edge3_Node000003_Node000004" class="edge">
<title>Node3&#45;&gt;Node4</title>
<g id="a_edge3_Node000003_Node000004"><a xlink:title=" ">
<path fill="none" stroke="#63b8ff" d="M75.81,-61.45C74.75,-49.43 75.2,-34.32 77.15,-24.91"/>
<polygon fill="#63b8ff" stroke="#63b8ff" points="72.35,-61.96 77.21,-71.37 79.28,-60.98 72.35,-61.96"/>
</a>
</g>
</g>
<!-- Node3&#45;&gt;Node5 -->
<g id="edge5_Node000003_Node000005" class="edge">
<title>Node3&#45;&gt;Node5</title>
<g id="a_edge5_Node000003_Node000005"><a xlink:title=" ">
<path fill="none" stroke="#63b8ff" d="M140.88,-69.75C148.33,-68.47 155.84,-67.2 163,-66 246.75,-51.99 343.38,-36.45 405.96,-26.48"/>
<polygon fill="#63b8ff" stroke="#63b8ff" points="140.08,-66.33 130.82,-71.48 141.26,-73.23 140.08,-66.33"/>
</a>
</g>
</g>
<!-- Node6 -->
<g id="Node000006" class="node">
<title>Node6</title>
<g id="a_Node000006"><a xlink:href="main_8cpp.html" target="_top" xlink:title=" ">
<polygon fill="white" stroke="#666666" points="354.5,-24.5 275.5,-24.5 275.5,-5.5 354.5,-5.5 354.5,-24.5"/>
<text text-anchor="middle" x="315" y="-12.5" font-family="Helvetica,sans-Serif" font-size="10.00">src/main.cpp</text>
</a>
</g>
</g>
<!-- Node3&#45;&gt;Node6 -->
<g id="edge6_Node000003_Node000006" class="edge">
<title>Node3&#45;&gt;Node6</title>
<g id="a_edge6_Node000003_Node000006"><a xlink:title=" ">
<path fill="none" stroke="#63b8ff" d="M123.35,-68.64C169.25,-56.03 242.31,-35.97 283.7,-24.6"/>
<polygon fill="#63b8ff" stroke="#63b8ff" points="122.14,-65.34 113.42,-71.37 123.99,-72.09 122.14,-65.34"/>
</a>
</g>
</g>
<!-- Node4&#45;&gt;Node3 -->
<g id="edge4_Node000004_Node000003" class="edge">
<title>Node4&#45;&gt;Node3</title>
<g id="a_edge4_Node000004_Node000003"><a xlink:title=" ">
<path fill="none" stroke="#63b8ff" d="M88.22,-34.9C89.25,-46.98 88.78,-62.07 86.79,-71.37"/>
<polygon fill="#63b8ff" stroke="#63b8ff" points="91.68,-34.34 86.85,-24.91 84.74,-35.29 91.68,-34.34"/>
</a>
</g>
</g>
<!-- Node8&#45;&gt;Node3 -->
<g id="edge9_Node000008_Node000003" class="edge">
<title>Node8&#45;&gt;Node3</title>
<g id="a_edge9_Node000008_Node000003"><a xlink:title=" ">
<path fill="none" stroke="#63b8ff" d="M82,-127.08C82,-115.13 82,-100.22 82,-90.91"/>
<polygon fill="#63b8ff" stroke="#63b8ff" points="78.5,-127.37 82,-137.37 85.5,-127.37 78.5,-127.37"/>
</a>
</g>
</g>
<!-- Node12&#45;&gt;Node5 -->
<g id="edge20_Node000012_Node000005" class="edge">
<title>Node12&#45;&gt;Node5</title>
<g id="a_edge20_Node000012_Node000005"><a xlink:title=" ">
<path fill="none" stroke="#63b8ff" d="M505.19,-123.24C513.99,-107.11 522.06,-85.05 515,-66 509.82,-52.04 498.82,-39.37 489.23,-30.27"/>
<polygon fill="#63b8ff" stroke="#63b8ff" points="502.1,-121.59 500.03,-131.98 508.12,-125.14 502.1,-121.59"/>
</a>
</g>
</g>
<!-- Node13 -->
<g id="Node000013" class="node">
<title>Node13</title>
<g id="a_Node000013"><a xlink:href="CourseManager_8hpp.html" target="_top" xlink:title=" ">
<polygon fill="white" stroke="#666666" points="487.5,-96 334.5,-96 334.5,-66 487.5,-66 487.5,-96"/>
<text text-anchor="start" x="342.5" y="-84" font-family="Helvetica,sans-Serif" font-size="10.00">include/CourseManagement</text>
<text text-anchor="middle" x="411" y="-73" font-family="Helvetica,sans-Serif" font-size="10.00">/CourseManager.hpp</text>
</a>
</g>
</g>
<!-- Node12&#45;&gt;Node13 -->
<g id="edge16_Node000012_Node000013" class="edge">
<title>Node12&#45;&gt;Node13</title>
<g id="a_edge16_Node000012_Node000013"><a xlink:title=" ">
<path fill="none" stroke="#63b8ff" d="M464.67,-125.48C452.86,-115.91 439.11,-104.77 428.48,-96.16"/>
<polygon fill="#63b8ff" stroke="#63b8ff" points="462.49,-128.22 472.47,-131.8 466.9,-122.78 462.49,-128.22"/>
</a>
</g>
</g>
<!-- Node13&#45;&gt;Node5 -->
<g id="edge18_Node000013_Node000005" class="edge">
<title>Node13&#45;&gt;Node5</title>
<g id="a_edge18_Node000013_Node000005"><a xlink:title=" ">
<path fill="none" stroke="#63b8ff" d="M431.62,-58.37C440.49,-49.06 450.61,-38.44 458.5,-30.16"/>
<polygon fill="#63b8ff" stroke="#63b8ff" points="428.9,-56.14 424.54,-65.8 433.97,-60.97 428.9,-56.14"/>
</a>
</g>
</g>
<!-- Node13&#45;&gt;Node6 -->
<g id="edge19_Node000013_Node000006" class="edge">
<title>Node13&#45;&gt;Node6</title>
<g id="a_edge19_Node000013_Node000006"><a xlink:title=" ">
<path fill="none" stroke="#63b8ff" d="M381.3,-60.2C363.43,-48.29 341.6,-33.73 327.99,-24.66"/>
<polygon fill="#63b8ff" stroke="#63b8ff" points="379.43,-63.16 389.69,-65.8 383.32,-57.34 379.43,-63.16"/>
</a>
</g>
</g>
<!-- Node13&#45;&gt;Node13 -->
<g id="edge17_Node000013_Node000013" class="edge">
<title>Node13&#45;&gt;Node13</title>
<g id="a_edge17_Node000013_Node000013"><a xlink:title=" ">
<path fill="none" stroke="#63b8ff" d="M497.69,-89.36C502.58,-87.34 505.5,-84.55 505.5,-81 505.5,-75.46 498.39,-71.78 487.75,-69.96"/>
<polygon fill="#63b8ff" stroke="#63b8ff" points="496.5,-86.06 487.75,-92.04 498.32,-92.82 496.5,-86.06"/>
</a>
</g>
</g>
</g>
</svg>
