<?xml version="1.0" encoding="UTF-8" standalone="no"?>
<!DOCTYPE svg PUBLIC "-//W3C//DTD SVG 1.1//EN"
 "http://www.w3.org/Graphics/SVG/1.1/DTD/svg11.dtd">
<!-- Generated by graphviz version 2.43.0 (0)
 -->
<!-- Title: src/ValidationTools/Err.cpp Pages: 1 -->
<svg width="354pt" height="159pt"
 viewBox="0.00 0.00 353.68 159.00" xmlns="http://www.w3.org/2000/svg" xmlns:xlink="http://www.w3.org/1999/xlink">
<g id="graph0" class="graph" transform="scale(1 1) rotate(0) translate(4 155)">
<title>src/ValidationTools/Err.cpp</title>
<!-- Node1 -->
<g id="Node000001" class="node">
<title>Node1</title>
<g id="a_Node000001"><a xlink:title=" ">
<polygon fill="#999999" stroke="#666666" points="212.65,-151 105.65,-151 105.65,-121 212.65,-121 212.65,-151"/>
<text text-anchor="start" x="113.65" y="-139" font-family="Helvetica,sans-Serif" font-size="10.00">src/ValidationTools</text>
<text text-anchor="middle" x="159.15" y="-128" font-family="Helvetica,sans-Serif" font-size="10.00">/Err.cpp</text>
</a>
</g>
</g>
<!-- Node2 -->
<g id="Node000002" class="node">
<title>Node2</title>
<g id="a_Node000002"><a xlink:title=" ">
<polygon fill="#e0e0e0" stroke="#999999" points="163.15,-19 103.15,-19 103.15,0 163.15,0 163.15,-19"/>
<text text-anchor="middle" x="133.15" y="-7" font-family="Helvetica,sans-Serif" font-size="10.00">iostream</text>
</a>
</g>
</g>
<!-- Node1&#45;&gt;Node2 -->
<g id="edge1_Node000001_Node000002" class="edge">
<title>Node1&#45;&gt;Node2</title>
<g id="a_edge1_Node000001_Node000002"><a xlink:title=" ">
<path fill="none" stroke="#63b8ff" d="M105.28,-132.72C70.87,-128.13 28.63,-115.99 6.15,-85 -19.71,-49.33 46.82,-27.92 93.05,-17.74"/>
<polygon fill="#63b8ff" stroke="#63b8ff" points="93.79,-21.16 102.86,-15.68 92.35,-14.31 93.79,-21.16"/>
</a>
</g>
</g>
<!-- Node3 -->
<g id="Node000003" class="node">
<title>Node3</title>
<g id="a_Node000003"><a xlink:title=" ">
<polygon fill="#e0e0e0" stroke="#999999" points="65.15,-79.5 15.15,-79.5 15.15,-60.5 65.15,-60.5 65.15,-79.5"/>
<text text-anchor="middle" x="40.15" y="-67.5" font-family="Helvetica,sans-Serif" font-size="10.00">chrono</text>
</a>
</g>
</g>
<!-- Node1&#45;&gt;Node3 -->
<g id="edge2_Node000001_Node000003" class="edge">
<title>Node1&#45;&gt;Node3</title>
<g id="a_edge2_Node000001_Node000003"><a xlink:title=" ">
<path fill="none" stroke="#63b8ff" d="M133.04,-120.95C112.81,-110.08 84.98,-95.11 65.06,-84.4"/>
<polygon fill="#63b8ff" stroke="#63b8ff" points="66.46,-81.17 55.99,-79.52 63.14,-87.34 66.46,-81.17"/>
</a>
</g>
</g>
<!-- Node4 -->
<g id="Node000004" class="node">
<title>Node4</title>
<g id="a_Node000004"><a xlink:title=" ">
<polygon fill="#e0e0e0" stroke="#999999" points="139.15,-79.5 83.15,-79.5 83.15,-60.5 139.15,-60.5 139.15,-79.5"/>
<text text-anchor="middle" x="111.15" y="-67.5" font-family="Helvetica,sans-Serif" font-size="10.00">sstream</text>
</a>
</g>
</g>
<!-- Node1&#45;&gt;Node4 -->
<g id="edge3_Node000001_Node000004" class="edge">
<title>Node1&#45;&gt;Node4</title>
<g id="a_edge3_Node000001_Node000004"><a xlink:title=" ">
<path fill="none" stroke="#63b8ff" d="M148.5,-120.8C141.24,-111.11 131.58,-98.24 123.91,-88.01"/>
<polygon fill="#63b8ff" stroke="#63b8ff" points="126.59,-85.74 117.79,-79.84 120.99,-89.94 126.59,-85.74"/>
</a>
</g>
</g>
<!-- Node5 -->
<g id="Node000005" class="node">
<title>Node5</title>
<g id="a_Node000005"><a xlink:title=" ">
<polygon fill="#e0e0e0" stroke="#999999" points="308.65,-19 253.65,-19 253.65,0 308.65,0 308.65,-19"/>
<text text-anchor="middle" x="281.15" y="-7" font-family="Helvetica,sans-Serif" font-size="10.00">fstream</text>
</a>
</g>
</g>
<!-- Node1&#45;&gt;Node5 -->
<g id="edge4_Node000001_Node000005" class="edge">
<title>Node1&#45;&gt;Node5</title>
<g id="a_edge4_Node000001_Node000005"><a xlink:title=" ">
<path fill="none" stroke="#63b8ff" d="M212.93,-127.41C260.5,-119.46 324.7,-105.3 340.15,-85 348.23,-74.39 346.1,-66.93 340.15,-55 333.59,-41.82 321.05,-31.52 309.22,-24.16"/>
<polygon fill="#63b8ff" stroke="#63b8ff" points="310.84,-21.05 300.42,-19.1 307.35,-27.12 310.84,-21.05"/>
</a>
</g>
</g>
<!-- Node6 -->
<g id="Node000006" class="node">
<title>Node6</title>
<g id="a_Node000006"><a xlink:title=" ">
<polygon fill="#e0e0e0" stroke="#999999" points="331.15,-79.5 275.15,-79.5 275.15,-60.5 331.15,-60.5 331.15,-79.5"/>
<text text-anchor="middle" x="303.15" y="-67.5" font-family="Helvetica,sans-Serif" font-size="10.00">iomanip</text>
</a>
</g>
</g>
<!-- Node1&#45;&gt;Node6 -->
<g id="edge5_Node000001_Node000006" class="edge">
<title>Node1&#45;&gt;Node6</title>
<g id="a_edge5_Node000001_Node000006"><a xlink:title=" ">
<path fill="none" stroke="#63b8ff" d="M190.76,-120.95C215.79,-109.83 250.45,-94.42 274.64,-83.67"/>
<polygon fill="#63b8ff" stroke="#63b8ff" points="276.27,-86.78 283.99,-79.52 273.43,-80.38 276.27,-86.78"/>
</a>
</g>
</g>
<!-- Node7 -->
<g id="Node000007" class="node">
<title>Node7</title>
<g id="a_Node000007"><a xlink:href="Err_8hpp.html" target="_top" xlink:title=" ">
<polygon fill="white" stroke="#666666" points="256.65,-85 157.65,-85 157.65,-55 256.65,-55 256.65,-85"/>
<text text-anchor="start" x="165.65" y="-73" font-family="Helvetica,sans-Serif" font-size="10.00">../ValidationTools</text>
<text text-anchor="middle" x="207.15" y="-62" font-family="Helvetica,sans-Serif" font-size="10.00">/Err.hpp</text>
</a>
</g>
</g>
<!-- Node1&#45;&gt;Node7 -->
<g id="edge6_Node000001_Node000007" class="edge">
<title>Node1&#45;&gt;Node7</title>
<g id="a_edge6_Node000001_Node000007"><a xlink:title=" ">
<path fill="none" stroke="#63b8ff" d="M169.81,-120.8C175.84,-112.76 183.51,-102.53 190.33,-93.43"/>
<polygon fill="#63b8ff" stroke="#63b8ff" points="193.33,-95.26 196.53,-85.16 187.73,-91.06 193.33,-95.26"/>
</a>
</g>
</g>
<!-- Node7&#45;&gt;Node2 -->
<g id="edge7_Node000007_Node000002" class="edge">
<title>Node7&#45;&gt;Node2</title>
<g id="a_edge7_Node000007_Node000002"><a xlink:title=" ">
<path fill="none" stroke="#63b8ff" d="M189.24,-54.84C178.06,-46 163.68,-34.63 152.28,-25.62"/>
<polygon fill="#63b8ff" stroke="#63b8ff" points="154.26,-22.72 144.24,-19.27 149.92,-28.21 154.26,-22.72"/>
</a>
</g>
</g>
<!-- Node7&#45;&gt;Node5 -->
<g id="edge8_Node000007_Node000005" class="edge">
<title>Node7&#45;&gt;Node5</title>
<g id="a_edge8_Node000007_Node000005"><a xlink:title=" ">
<path fill="none" stroke="#63b8ff" d="M225.07,-54.84C236.25,-46 250.63,-34.63 262.03,-25.62"/>
<polygon fill="#63b8ff" stroke="#63b8ff" points="264.39,-28.21 270.07,-19.27 260.05,-22.72 264.39,-28.21"/>
</a>
</g>
</g>
</g>
</svg>
