<?xml version="1.0" encoding="UTF-8" standalone="no"?>
<!DOCTYPE svg PUBLIC "-//W3C//DTD SVG 1.1//EN"
 "http://www.w3.org/Graphics/SVG/1.1/DTD/svg11.dtd">
<!-- Generated by graphviz version 2.43.0 (0)
 -->
<!-- Title: src/ValidationTools/Err.hpp Pages: 1 -->
<svg width="687pt" height="170pt"
 viewBox="0.00 0.00 686.50 170.00" xmlns="http://www.w3.org/2000/svg" xmlns:xlink="http://www.w3.org/1999/xlink">
<g id="graph0" class="graph" transform="scale(1 1) rotate(0) translate(4 166)">
<title>src/ValidationTools/Err.hpp</title>
<!-- Node1 -->
<g id="Node000001" class="node">
<title>Node1</title>
<g id="a_Node000001"><a xlink:title=" ">
<polygon fill="#999999" stroke="#666666" points="409.5,-162 302.5,-162 302.5,-132 409.5,-132 409.5,-162"/>
<text text-anchor="start" x="310.5" y="-150" font-family="Helvetica,sans-Serif" font-size="10.00">src/ValidationTools</text>
<text text-anchor="middle" x="356" y="-139" font-family="Helvetica,sans-Serif" font-size="10.00">/Err.hpp</text>
</a>
</g>
</g>
<!-- Node2 -->
<g id="Node000002" class="node">
<title>Node2</title>
<g id="a_Node000002"><a xlink:href="CourseManager_8hpp.html" target="_top" xlink:title=" ">
<polygon fill="white" stroke="#666666" points="247.5,-96 94.5,-96 94.5,-66 247.5,-66 247.5,-96"/>
<text text-anchor="start" x="102.5" y="-84" font-family="Helvetica,sans-Serif" font-size="10.00">include/CourseManagement</text>
<text text-anchor="middle" x="171" y="-73" font-family="Helvetica,sans-Serif" font-size="10.00">/CourseManager.hpp</text>
</a>
</g>
</g>
<!-- Node1&#45;&gt;Node2 -->
<g id="edge1_Node000001_Node000002" class="edge">
<title>Node1&#45;&gt;Node2</title>
<g id="a_edge1_Node000001_Node000002"><a xlink:title=" ">
<path fill="none" stroke="#63b8ff" d="M305.67,-128.59C276.1,-118.36 239.2,-105.59 211.5,-96.01"/>
<polygon fill="#63b8ff" stroke="#63b8ff" points="304.81,-131.99 315.4,-131.95 307.09,-125.38 304.81,-131.99"/>
</a>
</g>
</g>
<!-- Node3 -->
<g id="Node000003" class="node">
<title>Node3</title>
<g id="a_Node000003"><a xlink:href="CourseManager_8cpp.html" target="_top" xlink:title=" ">
<polygon fill="white" stroke="#666666" points="132,-30 0,-30 0,0 132,0 132,-30"/>
<text text-anchor="start" x="8" y="-18" font-family="Helvetica,sans-Serif" font-size="10.00">src/CourseManagement</text>
<text text-anchor="middle" x="66" y="-7" font-family="Helvetica,sans-Serif" font-size="10.00">/CourseManager.cpp</text>
</a>
</g>
</g>
<!-- Node1&#45;&gt;Node3 -->
<g id="edge5_Node000001_Node000003" class="edge">
<title>Node1&#45;&gt;Node3</title>
<g id="a_edge5_Node000001_Node000003"><a xlink:title=" ">
<path fill="none" stroke="#63b8ff" d="M292.26,-142.15C221.72,-136.57 114.13,-123.69 85,-96 67,-78.89 64.69,-48.08 65.06,-30.1"/>
<polygon fill="#63b8ff" stroke="#63b8ff" points="292.15,-145.65 302.38,-142.92 292.68,-138.67 292.15,-145.65"/>
</a>
</g>
</g>
<!-- Node5 -->
<g id="Node000005" class="node">
<title>Node5</title>
<g id="a_Node000005"><a xlink:href="BubbleSort_8cpp.html" target="_top" xlink:title=" ">
<polygon fill="white" stroke="#666666" points="428.5,-90.5 283.5,-90.5 283.5,-71.5 428.5,-71.5 428.5,-90.5"/>
<text text-anchor="middle" x="356" y="-78.5" font-family="Helvetica,sans-Serif" font-size="10.00">src/Sorters/BubbleSort.cpp</text>
</a>
</g>
</g>
<!-- Node1&#45;&gt;Node5 -->
<g id="edge6_Node000001_Node000005" class="edge">
<title>Node1&#45;&gt;Node5</title>
<g id="a_edge6_Node000001_Node000005"><a xlink:title=" ">
<path fill="none" stroke="#63b8ff" d="M356,-121.6C356,-110.8 356,-98.78 356,-90.84"/>
<polygon fill="#63b8ff" stroke="#63b8ff" points="352.5,-121.8 356,-131.8 359.5,-121.8 352.5,-121.8"/>
</a>
</g>
</g>
<!-- Node6 -->
<g id="Node000006" class="node">
<title>Node6</title>
<g id="a_Node000006"><a xlink:href="Err_8cpp.html" target="_top" xlink:title=" ">
<polygon fill="white" stroke="#666666" points="553.5,-96 446.5,-96 446.5,-66 553.5,-66 553.5,-96"/>
<text text-anchor="start" x="454.5" y="-84" font-family="Helvetica,sans-Serif" font-size="10.00">src/ValidationTools</text>
<text text-anchor="middle" x="500" y="-73" font-family="Helvetica,sans-Serif" font-size="10.00">/Err.cpp</text>
</a>
</g>
</g>
<!-- Node1&#45;&gt;Node6 -->
<g id="edge7_Node000001_Node000006" class="edge">
<title>Node1&#45;&gt;Node6</title>
<g id="a_edge7_Node000001_Node000006"><a xlink:title=" ">
<path fill="none" stroke="#63b8ff" d="M396.99,-127.78C419.69,-117.69 447.48,-105.34 468.47,-96.01"/>
<polygon fill="#63b8ff" stroke="#63b8ff" points="395.32,-124.7 387.6,-131.95 398.16,-131.09 395.32,-124.7"/>
</a>
</g>
</g>
<!-- Node7 -->
<g id="Node000007" class="node">
<title>Node7</title>
<g id="a_Node000007"><a xlink:href="Validator_8cpp.html" target="_top" xlink:title=" ">
<polygon fill="white" stroke="#666666" points="678.5,-96 571.5,-96 571.5,-66 678.5,-66 678.5,-96"/>
<text text-anchor="start" x="579.5" y="-84" font-family="Helvetica,sans-Serif" font-size="10.00">src/ValidationTools</text>
<text text-anchor="middle" x="625" y="-73" font-family="Helvetica,sans-Serif" font-size="10.00">/Validator.cpp</text>
</a>
</g>
</g>
<!-- Node1&#45;&gt;Node7 -->
<g id="edge8_Node000001_Node000007" class="edge">
<title>Node1&#45;&gt;Node7</title>
<g id="a_edge8_Node000001_Node000007"><a xlink:title=" ">
<path fill="none" stroke="#63b8ff" d="M419.69,-130.85C465.87,-119.86 527.62,-105.17 571.3,-94.78"/>
<polygon fill="#63b8ff" stroke="#63b8ff" points="418.71,-127.48 409.79,-133.2 420.33,-134.29 418.71,-127.48"/>
</a>
</g>
</g>
<!-- Node2&#45;&gt;Node2 -->
<g id="edge2_Node000002_Node000002" class="edge">
<title>Node2&#45;&gt;Node2</title>
<g id="a_edge2_Node000002_Node000002"><a xlink:title=" ">
<path fill="none" stroke="#63b8ff" d="M257.69,-89.36C262.58,-87.34 265.5,-84.55 265.5,-81 265.5,-75.46 258.39,-71.78 247.75,-69.96"/>
<polygon fill="#63b8ff" stroke="#63b8ff" points="256.5,-86.06 247.75,-92.04 258.32,-92.82 256.5,-86.06"/>
</a>
</g>
</g>
<!-- Node2&#45;&gt;Node3 -->
<g id="edge3_Node000002_Node000003" class="edge">
<title>Node2&#45;&gt;Node3</title>
<g id="a_edge3_Node000002_Node000003"><a xlink:title=" ">
<path fill="none" stroke="#63b8ff" d="M139.33,-60.69C123.12,-50.82 103.75,-39.01 88.99,-30.01"/>
<polygon fill="#63b8ff" stroke="#63b8ff" points="137.6,-63.74 147.96,-65.95 141.24,-57.76 137.6,-63.74"/>
</a>
</g>
</g>
<!-- Node4 -->
<g id="Node000004" class="node">
<title>Node4</title>
<g id="a_Node000004"><a xlink:href="main_8cpp.html" target="_top" xlink:title=" ">
<polygon fill="white" stroke="#666666" points="229.5,-24.5 150.5,-24.5 150.5,-5.5 229.5,-5.5 229.5,-24.5"/>
<text text-anchor="middle" x="190" y="-12.5" font-family="Helvetica,sans-Serif" font-size="10.00">src/main.cpp</text>
</a>
</g>
</g>
<!-- Node2&#45;&gt;Node4 -->
<g id="edge4_Node000002_Node000004" class="edge">
<title>Node2&#45;&gt;Node4</title>
<g id="a_edge4_Node000002_Node000004"><a xlink:title=" ">
<path fill="none" stroke="#63b8ff" d="M178.14,-55.94C181.37,-45.06 184.99,-32.86 187.37,-24.84"/>
<polygon fill="#63b8ff" stroke="#63b8ff" points="174.71,-55.21 175.22,-65.8 181.42,-57.21 174.71,-55.21"/>
</a>
</g>
</g>
</g>
</svg>
