<?xml version="1.0" encoding="UTF-8" standalone="no"?>
<!DOCTYPE svg PUBLIC "-//W3C//DTD SVG 1.1//EN"
 "http://www.w3.org/Graphics/SVG/1.1/DTD/svg11.dtd">
<!-- Generated by graphviz version 2.43.0 (0)
 -->
<!-- Title: main Pages: 1 -->
<svg width="735pt" height="214pt"
 viewBox="0.00 0.00 735.00 214.00" xmlns="http://www.w3.org/2000/svg" xmlns:xlink="http://www.w3.org/1999/xlink">
<g id="graph0" class="graph" transform="scale(1 1) rotate(0) translate(4 210)">
<title>main</title>
<!-- Node1 -->
<g id="Node000001" class="node">
<title>Node1</title>
<g id="a_Node000001"><a xlink:title=" ">
<polygon fill="#999999" stroke="#666666" points="41,-111 0,-111 0,-92 41,-92 41,-111"/>
<text text-anchor="middle" x="20.5" y="-99" font-family="Helvetica,sans-Serif" font-size="10.00">main</text>
</a>
</g>
</g>
<!-- Node2 -->
<g id="Node000002" class="node">
<title>Node2</title>
<g id="a_Node000002"><a xlink:href="classCourseManager.html#a5d20c3df47279f70b97bcaf19cfe7b26" target="_top" xlink:title="Displays the textual menu choices for the application.">
<polygon fill="white" stroke="#666666" points="244,-206 83,-206 83,-187 244,-187 244,-206"/>
<text text-anchor="middle" x="163.5" y="-194" font-family="Helvetica,sans-Serif" font-size="10.00">CourseManager::displayMenu</text>
</a>
</g>
</g>
<!-- Node1&#45;&gt;Node2 -->
<g id="edge1_Node000001_Node000002" class="edge">
<title>Node1&#45;&gt;Node2</title>
<g id="a_edge1_Node000001_Node000002"><a xlink:title=" ">
<path fill="none" stroke="#63b8ff" d="M26.53,-111.39C34.88,-126.81 53.09,-156.47 77,-172.5 83.74,-177.02 91.32,-180.69 99.11,-183.68"/>
<polygon fill="#63b8ff" stroke="#63b8ff" points="98.08,-187.02 108.67,-186.99 100.37,-180.41 98.08,-187.02"/>
</a>
</g>
</g>
<!-- Node3 -->
<g id="Node000003" class="node">
<title>Node3</title>
<g id="a_Node000003"><a xlink:href="classErrLog.html#a881e5dfb84c92034197bd001ad2391a6" target="_top" xlink:title="Generates a log text file in the logs folder.">
<polygon fill="white" stroke="#666666" points="556.5,-149 450.5,-149 450.5,-130 556.5,-130 556.5,-149"/>
<text text-anchor="middle" x="503.5" y="-137" font-family="Helvetica,sans-Serif" font-size="10.00">ErrLog::genLogFile</text>
</a>
</g>
</g>
<!-- Node1&#45;&gt;Node3 -->
<g id="edge2_Node000001_Node000003" class="edge">
<title>Node1&#45;&gt;Node3</title>
<g id="a_edge2_Node000001_Node000003"><a xlink:title=" ">
<path fill="none" stroke="#63b8ff" d="M31.53,-111.19C41.93,-120.51 59.15,-133.98 77,-139.5 201.77,-178.12 357.17,-163.39 441.36,-150.59"/>
<polygon fill="#63b8ff" stroke="#63b8ff" points="441.93,-154.04 451.27,-149.04 440.85,-147.12 441.93,-154.04"/>
</a>
</g>
</g>
<!-- Node5 -->
<g id="Node000005" class="node">
<title>Node5</title>
<g id="a_Node000005"><a xlink:href="namespaceVarLoader.html#ad2f9faaa736bace31d2f5830ff18c411" target="_top" xlink:title="Safely takes an integer from a user, preventing buffer overflows.">
<polygon fill="white" stroke="#666666" points="233.5,-130 93.5,-130 93.5,-111 233.5,-111 233.5,-130"/>
<text text-anchor="middle" x="163.5" y="-118" font-family="Helvetica,sans-Serif" font-size="10.00">VarLoader::getIntFromCin</text>
</a>
</g>
</g>
<!-- Node1&#45;&gt;Node5 -->
<g id="edge4_Node000001_Node000005" class="edge">
<title>Node1&#45;&gt;Node5</title>
<g id="a_edge4_Node000001_Node000005"><a xlink:title=" ">
<path fill="none" stroke="#63b8ff" d="M41.11,-104.14C52.4,-105.66 67.43,-107.69 83.06,-109.8"/>
<polygon fill="#63b8ff" stroke="#63b8ff" points="83,-113.32 93.38,-111.19 83.94,-106.38 83,-113.32"/>
</a>
</g>
</g>
<!-- Node6 -->
<g id="Node000006" class="node">
<title>Node6</title>
<g id="a_Node000006"><a xlink:href="classCourseManager.html#a822e86d0e530f3a2d9cbc1336de6c303" target="_top" xlink:title="Loads master vector of Course objects into memory from a CSV file.">
<polygon fill="white" stroke="#666666" points="243,-93 84,-93 84,-74 243,-74 243,-93"/>
<text text-anchor="middle" x="163.5" y="-81" font-family="Helvetica,sans-Serif" font-size="10.00">CourseManager::loadCourses</text>
</a>
</g>
</g>
<!-- Node1&#45;&gt;Node6 -->
<g id="edge5_Node000001_Node000006" class="edge">
<title>Node1&#45;&gt;Node6</title>
<g id="a_edge5_Node000001_Node000006"><a xlink:title=" ">
<path fill="none" stroke="#63b8ff" d="M41.11,-99C51.15,-97.71 64.15,-96.06 77.9,-94.3"/>
<polygon fill="#63b8ff" stroke="#63b8ff" points="78.53,-97.75 88.01,-93.01 77.64,-90.8 78.53,-97.75"/>
</a>
</g>
</g>
<!-- Node9 -->
<g id="Node000009" class="node">
<title>Node9</title>
<g id="a_Node000009"><a xlink:href="classCourseManager.html#a4499ac20135f6073048ec8b9666b1c86" target="_top" xlink:title="Prints all courses in the provided vector to std::cout, including their ID, title,...">
<polygon fill="white" stroke="#666666" points="250,-56 77,-56 77,-37 250,-37 250,-56"/>
<text text-anchor="middle" x="163.5" y="-44" font-family="Helvetica,sans-Serif" font-size="10.00">CourseManager::printAllCourses</text>
</a>
</g>
</g>
<!-- Node1&#45;&gt;Node9 -->
<g id="edge9_Node000001_Node000009" class="edge">
<title>Node1&#45;&gt;Node9</title>
<g id="a_edge9_Node000001_Node000009"><a xlink:title=" ">
<path fill="none" stroke="#63b8ff" d="M33.08,-91.85C43.81,-83.39 60.56,-71.41 77,-64.5 82.07,-62.37 87.42,-60.48 92.86,-58.81"/>
<polygon fill="#63b8ff" stroke="#63b8ff" points="94.06,-62.11 102.73,-56.03 92.16,-55.37 94.06,-62.11"/>
</a>
</g>
</g>
<!-- Node10 -->
<g id="Node000010" class="node">
<title>Node10</title>
<g id="a_Node000010"><a xlink:href="classCourseManager.html#a7b4cf91c7bc91f19ac66aafb1ed192de" target="_top" xlink:title="Performs a linear search for a specific course by ID.">
<polygon fill="white" stroke="#666666" points="246,-19 81,-19 81,0 246,0 246,-19"/>
<text text-anchor="middle" x="163.5" y="-7" font-family="Helvetica,sans-Serif" font-size="10.00">CourseManager::searchCourse</text>
</a>
</g>
</g>
<!-- Node1&#45;&gt;Node10 -->
<g id="edge10_Node000001_Node000010" class="edge">
<title>Node1&#45;&gt;Node10</title>
<g id="a_edge10_Node000001_Node000010"><a xlink:title=" ">
<path fill="none" stroke="#63b8ff" d="M25.9,-91.79C33.73,-75.69 51.68,-43.64 77,-27.5 79.6,-25.84 82.33,-24.33 85.15,-22.96"/>
<polygon fill="#63b8ff" stroke="#63b8ff" points="86.58,-26.16 94.41,-19.03 83.84,-19.71 86.58,-26.16"/>
</a>
</g>
</g>
<!-- Node4 -->
<g id="Node000004" class="node">
<title>Node4</title>
<g id="a_Node000004"><a xlink:href="classErrLog.html#af7345266274741d05394ccb688e228ad" target="_top" xlink:title="generates a timestamp for files">
<polygon fill="white" stroke="#666666" points="727,-149 599,-149 599,-130 727,-130 727,-149"/>
<text text-anchor="middle" x="663" y="-137" font-family="Helvetica,sans-Serif" font-size="10.00">ErrLog::genTimeStamp</text>
</a>
</g>
</g>
<!-- Node3&#45;&gt;Node4 -->
<g id="edge3_Node000003_Node000004" class="edge">
<title>Node3&#45;&gt;Node4</title>
<g id="a_edge3_Node000003_Node000004"><a xlink:title=" ">
<path fill="none" stroke="#63b8ff" d="M556.51,-139.5C566.76,-139.5 577.7,-139.5 588.51,-139.5"/>
<polygon fill="#63b8ff" stroke="#63b8ff" points="588.8,-143 598.8,-139.5 588.8,-136 588.8,-143"/>
</a>
</g>
</g>
<!-- Node7 -->
<g id="Node000007" class="node">
<title>Node7</title>
<g id="a_Node000007"><a xlink:href="namespaceVarLoader.html#ac05c3669519ffaa45aa1fd78f01aa4d7" target="_top" xlink:title="Takes a CSV and parses it to resolve them into course objects.">
<polygon fill="white" stroke="#666666" points="408,-112 286,-112 286,-93 408,-93 408,-112"/>
<text text-anchor="middle" x="347" y="-100" font-family="Helvetica,sans-Serif" font-size="10.00">VarLoader::mountCSV</text>
</a>
</g>
</g>
<!-- Node6&#45;&gt;Node7 -->
<g id="edge6_Node000006_Node000007" class="edge">
<title>Node6&#45;&gt;Node7</title>
<g id="a_edge6_Node000006_Node000007"><a xlink:title=" ">
<path fill="none" stroke="#63b8ff" d="M243.05,-91.72C253.94,-92.86 265.07,-94.03 275.8,-95.15"/>
<polygon fill="#63b8ff" stroke="#63b8ff" points="275.63,-98.65 285.94,-96.21 276.35,-91.69 275.63,-98.65"/>
</a>
</g>
</g>
<!-- Node7&#45;&gt;Node3 -->
<g id="edge7_Node000007_Node000003" class="edge">
<title>Node7&#45;&gt;Node3</title>
<g id="a_edge7_Node000007_Node000003"><a xlink:title=" ">
<path fill="none" stroke="#63b8ff" d="M387.79,-112.03C407.62,-116.78 431.81,-122.57 452.85,-127.61"/>
<polygon fill="#63b8ff" stroke="#63b8ff" points="452.04,-131.01 462.58,-129.94 453.67,-124.21 452.04,-131.01"/>
</a>
</g>
</g>
<!-- Node8 -->
<g id="Node000008" class="node">
<title>Node8</title>
<g id="a_Node000008"><a xlink:href="namespaceVarLoader.html#abd49e6ee2c902e65b2d7f196b7c4f435" target="_top" xlink:title=" ">
<polygon fill="white" stroke="#666666" points="563,-112 444,-112 444,-93 563,-93 563,-112"/>
<text text-anchor="middle" x="503.5" y="-100" font-family="Helvetica,sans-Serif" font-size="10.00">VarLoader::parseLine</text>
</a>
</g>
</g>
<!-- Node7&#45;&gt;Node8 -->
<g id="edge8_Node000007_Node000008" class="edge">
<title>Node7&#45;&gt;Node8</title>
<g id="a_edge8_Node000007_Node000008"><a xlink:title=" ">
<path fill="none" stroke="#63b8ff" d="M408.18,-102.5C416.49,-102.5 425.08,-102.5 433.54,-102.5"/>
<polygon fill="#63b8ff" stroke="#63b8ff" points="433.76,-106 443.76,-102.5 433.76,-99 433.76,-106"/>
</a>
</g>
</g>
</g>
</svg>
