<?xml version="1.0" encoding="UTF-8" standalone="no"?>
<!DOCTYPE svg PUBLIC "-//W3C//DTD SVG 1.1//EN"
 "http://www.w3.org/Graphics/SVG/1.1/DTD/svg11.dtd">
<!-- Generated by graphviz version 2.43.0 (0)
 -->
<!-- Title: src/main.cpp Pages: 1 -->
<svg width="1126pt" height="247pt"
 viewBox="0.00 0.00 1126.24 247.00" xmlns="http://www.w3.org/2000/svg" xmlns:xlink="http://www.w3.org/1999/xlink">
<g id="graph0" class="graph" transform="scale(1 1) rotate(0) translate(4 243)">
<title>src/main.cpp</title>
<!-- Node1 -->
<g id="Node000001" class="node">
<title>Node1</title>
<g id="a_Node000001"><a xlink:title=" ">
<polygon fill="#999999" stroke="#666666" points="494.74,-239 415.74,-239 415.74,-220 494.74,-220 494.74,-239"/>
<text text-anchor="middle" x="455.24" y="-227" font-family="Helvetica,sans-Serif" font-size="10.00">src/main.cpp</text>
</a>
</g>
</g>
<!-- Node2 -->
<g id="Node000002" class="node">
<title>Node2</title>
<g id="a_Node000002"><a xlink:title=" ">
<polygon fill="#e0e0e0" stroke="#999999" points="79.24,-74 19.24,-74 19.24,-55 79.24,-55 79.24,-74"/>
<text text-anchor="middle" x="49.24" y="-62" font-family="Helvetica,sans-Serif" font-size="10.00">iostream</text>
</a>
</g>
</g>
<!-- Node1&#45;&gt;Node2 -->
<g id="edge1_Node000001_Node000002" class="edge">
<title>Node1&#45;&gt;Node2</title>
<g id="a_edge1_Node000001_Node000002"><a xlink:title=" ">
<path fill="none" stroke="#63b8ff" d="M415.37,-225.3C359.05,-220.12 253.36,-207.98 166.24,-184 103.38,-166.7 66.69,-183.06 30.24,-129 20.83,-115.05 28.38,-96.31 36.57,-82.81"/>
<polygon fill="#63b8ff" stroke="#63b8ff" points="39.53,-84.69 42.15,-74.43 33.7,-80.81 39.53,-84.69"/>
</a>
</g>
</g>
<!-- Node3 -->
<g id="Node000003" class="node">
<title>Node3</title>
<g id="a_Node000003"><a xlink:title=" ">
<polygon fill="#e0e0e0" stroke="#999999" points="275.24,-19 231.24,-19 231.24,0 275.24,0 275.24,-19"/>
<text text-anchor="middle" x="253.24" y="-7" font-family="Helvetica,sans-Serif" font-size="10.00">string</text>
</a>
</g>
</g>
<!-- Node1&#45;&gt;Node3 -->
<g id="edge2_Node000001_Node000003" class="edge">
<title>Node1&#45;&gt;Node3</title>
<g id="a_edge2_Node000001_Node000003"><a xlink:title=" ">
<path fill="none" stroke="#63b8ff" d="M415.49,-227.57C329.37,-224.96 128.56,-215.58 69.24,-184 40.86,-168.89 36.54,-157.8 22.24,-129 7.42,-99.16 -11.09,-80.59 10.24,-55 36.73,-23.22 161.29,-14.07 221.07,-11.49"/>
<polygon fill="#63b8ff" stroke="#63b8ff" points="221.25,-14.98 231.1,-11.09 220.97,-7.99 221.25,-14.98"/>
</a>
</g>
</g>
<!-- Node4 -->
<g id="Node000004" class="node">
<title>Node4</title>
<g id="a_Node000004"><a xlink:title=" ">
<polygon fill="#e0e0e0" stroke="#999999" points="732.74,-19 685.74,-19 685.74,0 732.74,0 732.74,-19"/>
<text text-anchor="middle" x="709.24" y="-7" font-family="Helvetica,sans-Serif" font-size="10.00">vector</text>
</a>
</g>
</g>
<!-- Node1&#45;&gt;Node4 -->
<g id="edge3_Node000001_Node000004" class="edge">
<title>Node1&#45;&gt;Node4</title>
<g id="a_edge3_Node000001_Node000004"><a xlink:title=" ">
<path fill="none" stroke="#63b8ff" d="M494.78,-227.53C559.2,-225.02 682.32,-216.05 709.24,-184 746.48,-139.67 727.8,-64.11 716.18,-29.2"/>
<polygon fill="#63b8ff" stroke="#63b8ff" points="719.35,-27.66 712.73,-19.38 712.74,-29.98 719.35,-27.66"/>
</a>
</g>
</g>
<!-- Node5 -->
<g id="Node000005" class="node">
<title>Node5</title>
<g id="a_Node000005"><a xlink:title=" ">
<polygon fill="#e0e0e0" stroke="#999999" points="245.24,-184 181.24,-184 181.24,-165 245.24,-165 245.24,-184"/>
<text text-anchor="middle" x="213.24" y="-172" font-family="Helvetica,sans-Serif" font-size="10.00">algorithm</text>
</a>
</g>
</g>
<!-- Node1&#45;&gt;Node5 -->
<g id="edge4_Node000001_Node000005" class="edge">
<title>Node1&#45;&gt;Node5</title>
<g id="a_edge4_Node000001_Node000005"><a xlink:title=" ">
<path fill="none" stroke="#63b8ff" d="M416.36,-219.98C372.26,-210.33 300.62,-194.64 255.26,-184.7"/>
<polygon fill="#63b8ff" stroke="#63b8ff" points="255.96,-181.27 245.45,-182.55 254.47,-188.11 255.96,-181.27"/>
</a>
</g>
</g>
<!-- Node6 -->
<g id="Node000006" class="node">
<title>Node6</title>
<g id="a_Node000006"><a xlink:title=" ">
<polygon fill="#e0e0e0" stroke="#999999" points="187.74,-74 132.74,-74 132.74,-55 187.74,-55 187.74,-74"/>
<text text-anchor="middle" x="160.24" y="-62" font-family="Helvetica,sans-Serif" font-size="10.00">fstream</text>
</a>
</g>
</g>
<!-- Node1&#45;&gt;Node6 -->
<g id="edge5_Node000001_Node000006" class="edge">
<title>Node1&#45;&gt;Node6</title>
<g id="a_edge5_Node000001_Node000006"><a xlink:title=" ">
<path fill="none" stroke="#63b8ff" d="M415.47,-228.33C345.08,-227.08 203.07,-220.05 172.24,-184 166.75,-177.58 171.89,-173.44 172.24,-165 173.26,-140.54 179.2,-134.16 175.24,-110 173.77,-101.05 170.75,-91.47 167.8,-83.51"/>
<polygon fill="#63b8ff" stroke="#63b8ff" points="171.03,-82.16 164.1,-74.15 164.52,-84.74 171.03,-82.16"/>
</a>
</g>
</g>
<!-- Node7 -->
<g id="Node000007" class="node">
<title>Node7</title>
<g id="a_Node000007"><a xlink:title=" ">
<polygon fill="#e0e0e0" stroke="#999999" points="563.74,-184 514.74,-184 514.74,-165 563.74,-165 563.74,-184"/>
<text text-anchor="middle" x="539.24" y="-172" font-family="Helvetica,sans-Serif" font-size="10.00">cctype</text>
</a>
</g>
</g>
<!-- Node1&#45;&gt;Node7 -->
<g id="edge6_Node000001_Node000007" class="edge">
<title>Node1&#45;&gt;Node7</title>
<g id="a_edge6_Node000001_Node000007"><a xlink:title=" ">
<path fill="none" stroke="#63b8ff" d="M468.74,-219.98C481.64,-211.84 501.34,-199.41 516.64,-189.76"/>
<polygon fill="#63b8ff" stroke="#63b8ff" points="518.91,-192.47 525.5,-184.17 515.18,-186.55 518.91,-192.47"/>
</a>
</g>
</g>
<!-- Node8 -->
<g id="Node000008" class="node">
<title>Node8</title>
<g id="a_Node000008"><a xlink:title=" ">
<polygon fill="#e0e0e0" stroke="#999999" points="638.24,-184 582.24,-184 582.24,-165 638.24,-165 638.24,-184"/>
<text text-anchor="middle" x="610.24" y="-172" font-family="Helvetica,sans-Serif" font-size="10.00">sstream</text>
</a>
</g>
</g>
<!-- Node1&#45;&gt;Node8 -->
<g id="edge7_Node000001_Node000008" class="edge">
<title>Node1&#45;&gt;Node8</title>
<g id="a_edge7_Node000001_Node000008"><a xlink:title=" ">
<path fill="none" stroke="#63b8ff" d="M480.15,-219.98C505.94,-211.16 546.46,-197.31 575.42,-187.41"/>
<polygon fill="#63b8ff" stroke="#63b8ff" points="576.81,-190.63 585.14,-184.08 574.55,-184.01 576.81,-190.63"/>
</a>
</g>
</g>
<!-- Node9 -->
<g id="Node000009" class="node">
<title>Node9</title>
<g id="a_Node000009"><a xlink:title=" ">
<polygon fill="#e0e0e0" stroke="#999999" points="700.24,-184 656.24,-184 656.24,-165 700.24,-165 700.24,-184"/>
<text text-anchor="middle" x="678.24" y="-172" font-family="Helvetica,sans-Serif" font-size="10.00">limits</text>
</a>
</g>
</g>
<!-- Node1&#45;&gt;Node9 -->
<g id="edge8_Node000001_Node000009" class="edge">
<title>Node1&#45;&gt;Node9</title>
<g id="a_edge8_Node000001_Node000009"><a xlink:title=" ">
<path fill="none" stroke="#63b8ff" d="M494.33,-219.92C531.16,-211.73 588.1,-198.79 646.21,-184.19"/>
<polygon fill="#63b8ff" stroke="#63b8ff" points="647.08,-187.58 655.92,-181.74 645.37,-180.79 647.08,-187.58"/>
</a>
</g>
</g>
<!-- Node10 -->
<g id="Node000010" class="node">
<title>Node10</title>
<g id="a_Node000010"><a xlink:href="CourseManager_8hpp.html" target="_top" xlink:title=" ">
<polygon fill="white" stroke="#666666" points="478.74,-184 263.74,-184 263.74,-165 478.74,-165 478.74,-184"/>
<text text-anchor="middle" x="371.24" y="-172" font-family="Helvetica,sans-Serif" font-size="10.00">CourseManagement/CourseManager.hpp</text>
</a>
</g>
</g>
<!-- Node1&#45;&gt;Node10 -->
<g id="edge9_Node000001_Node000010" class="edge">
<title>Node1&#45;&gt;Node10</title>
<g id="a_edge9_Node000001_Node000010"><a xlink:title=" ">
<path fill="none" stroke="#63b8ff" d="M441.75,-219.98C428.84,-211.84 409.14,-199.41 393.84,-189.76"/>
<polygon fill="#63b8ff" stroke="#63b8ff" points="395.31,-186.55 384.98,-184.17 391.57,-192.47 395.31,-186.55"/>
</a>
</g>
</g>
<!-- Node15 -->
<g id="Node000015" class="node">
<title>Node15</title>
<g id="a_Node000015"><a xlink:href="Sorter_8hpp.html" target="_top" xlink:title=" ">
<polygon fill="white" stroke="#666666" points="964.24,-184 860.24,-184 860.24,-165 964.24,-165 964.24,-184"/>
<text text-anchor="middle" x="912.24" y="-172" font-family="Helvetica,sans-Serif" font-size="10.00">Sorters/Sorter.hpp</text>
</a>
</g>
</g>
<!-- Node1&#45;&gt;Node15 -->
<g id="edge23_Node000001_Node000015" class="edge">
<title>Node1&#45;&gt;Node15</title>
<g id="a_edge23_Node000001_Node000015"><a xlink:title=" ">
<path fill="none" stroke="#63b8ff" d="M495,-223.89C574.72,-214.64 754.64,-193.78 850.07,-182.71"/>
<polygon fill="#63b8ff" stroke="#63b8ff" points="850.63,-186.17 860.16,-181.54 849.82,-179.22 850.63,-186.17"/>
</a>
</g>
</g>
<!-- Node10&#45;&gt;Node3 -->
<g id="edge10_Node000010_Node000003" class="edge">
<title>Node10&#45;&gt;Node3</title>
<g id="a_edge10_Node000010_Node000003"><a xlink:title=" ">
<path fill="none" stroke="#63b8ff" d="M339.68,-164.86C320.67,-158.09 297.48,-146.77 283.24,-129 259.89,-99.84 254.47,-54.75 253.36,-29.43"/>
<polygon fill="#63b8ff" stroke="#63b8ff" points="256.85,-29.22 253.1,-19.31 249.86,-29.4 256.85,-29.22"/>
</a>
</g>
</g>
<!-- Node10&#45;&gt;Node4 -->
<g id="edge11_Node000010_Node000004" class="edge">
<title>Node10&#45;&gt;Node4</title>
<g id="a_edge11_Node000010_Node000004"><a xlink:title=" ">
<path fill="none" stroke="#63b8ff" d="M403.26,-164.96C454.03,-150.64 555.12,-118.87 632.24,-74 655.24,-60.62 678.35,-40.44 693.17,-26.44"/>
<polygon fill="#63b8ff" stroke="#63b8ff" points="695.72,-28.84 700.49,-19.37 690.86,-23.8 695.72,-28.84"/>
</a>
</g>
</g>
<!-- Node10&#45;&gt;Node10 -->
<g id="edge12_Node000010_Node000010" class="edge">
<title>Node10&#45;&gt;Node10</title>
<g id="a_edge12_Node000010_Node000010"><a xlink:title=" ">
<path fill="none" stroke="#63b8ff" d="M429.66,-184.01C464.26,-186.08 496.74,-182.91 496.74,-174.5 496.74,-166.91 470.3,-163.59 439.71,-164.53"/>
<polygon fill="#63b8ff" stroke="#63b8ff" points="439.49,-161.04 429.66,-164.99 439.81,-168.03 439.49,-161.04"/>
</a>
</g>
</g>
<!-- Node11 -->
<g id="Node000011" class="node">
<title>Node11</title>
<g id="a_Node000011"><a xlink:href="Validator_8hpp.html" target="_top" xlink:title=" ">
<polygon fill="white" stroke="#666666" points="449.74,-129 292.74,-129 292.74,-110 449.74,-110 449.74,-129"/>
<text text-anchor="middle" x="371.24" y="-117" font-family="Helvetica,sans-Serif" font-size="10.00">ValidationTools/Validator.hpp</text>
</a>
</g>
</g>
<!-- Node10&#45;&gt;Node11 -->
<g id="edge13_Node000010_Node000011" class="edge">
<title>Node10&#45;&gt;Node11</title>
<g id="a_edge13_Node000010_Node000011"><a xlink:title=" ">
<path fill="none" stroke="#63b8ff" d="M371.24,-164.75C371.24,-157.8 371.24,-147.85 371.24,-139.13"/>
<polygon fill="#63b8ff" stroke="#63b8ff" points="374.74,-139.09 371.24,-129.09 367.74,-139.09 374.74,-139.09"/>
</a>
</g>
</g>
<!-- Node14 -->
<g id="Node000014" class="node">
<title>Node14</title>
<g id="a_Node000014"><a xlink:href="Err_8hpp.html" target="_top" xlink:title=" ">
<polygon fill="white" stroke="#666666" points="166.74,-129 39.74,-129 39.74,-110 166.74,-110 166.74,-129"/>
<text text-anchor="middle" x="103.24" y="-117" font-family="Helvetica,sans-Serif" font-size="10.00">ValidationTools/Err.hpp</text>
</a>
</g>
</g>
<!-- Node10&#45;&gt;Node14 -->
<g id="edge20_Node000010_Node000014" class="edge">
<title>Node10&#45;&gt;Node14</title>
<g id="a_edge20_Node000010_Node000014"><a xlink:title=" ">
<path fill="none" stroke="#63b8ff" d="M328.18,-164.98C281.53,-155.76 207.04,-141.03 156.68,-131.07"/>
<polygon fill="#63b8ff" stroke="#63b8ff" points="157.13,-127.59 146.64,-129.08 155.77,-134.46 157.13,-127.59"/>
</a>
</g>
</g>
<!-- Node11&#45;&gt;Node3 -->
<g id="edge14_Node000011_Node000003" class="edge">
<title>Node11&#45;&gt;Node3</title>
<g id="a_edge14_Node000011_Node000003"><a xlink:title=" ">
<path fill="none" stroke="#63b8ff" d="M348.85,-109.86C331.58,-102.35 307.91,-90.15 291.24,-74 277.86,-61.03 267.44,-42.38 260.93,-28.64"/>
<polygon fill="#63b8ff" stroke="#63b8ff" points="264.01,-26.96 256.72,-19.27 257.62,-29.83 264.01,-26.96"/>
</a>
</g>
</g>
<!-- Node11&#45;&gt;Node4 -->
<g id="edge15_Node000011_Node000004" class="edge">
<title>Node11&#45;&gt;Node4</title>
<g id="a_edge15_Node000011_Node000004"><a xlink:title=" ">
<path fill="none" stroke="#63b8ff" d="M377.92,-109.83C389.27,-95.79 413.77,-68.29 441.24,-55 519.09,-17.33 622.92,-10.79 675.56,-10.12"/>
<polygon fill="#63b8ff" stroke="#63b8ff" points="675.71,-13.62 685.69,-10.05 675.67,-6.62 675.71,-13.62"/>
</a>
</g>
</g>
<!-- Node12 -->
<g id="Node000012" class="node">
<title>Node12</title>
<g id="a_Node000012"><a xlink:title=" ">
<polygon fill="#e0e0e0" stroke="#999999" points="393.74,-74 300.74,-74 300.74,-55 393.74,-55 393.74,-74"/>
<text text-anchor="middle" x="347.24" y="-62" font-family="Helvetica,sans-Serif" font-size="10.00">unordered_map</text>
</a>
</g>
</g>
<!-- Node11&#45;&gt;Node12 -->
<g id="edge16_Node000011_Node000012" class="edge">
<title>Node11&#45;&gt;Node12</title>
<g id="a_edge16_Node000011_Node000012"><a xlink:title=" ">
<path fill="none" stroke="#63b8ff" d="M367.28,-109.75C364.03,-102.57 359.32,-92.18 355.29,-83.27"/>
<polygon fill="#63b8ff" stroke="#63b8ff" points="358.44,-81.75 351.13,-74.09 352.07,-84.64 358.44,-81.75"/>
</a>
</g>
</g>
<!-- Node13 -->
<g id="Node000013" class="node">
<title>Node13</title>
<g id="a_Node000013"><a xlink:href="Course_8hpp.html" target="_top" xlink:title=" ">
<polygon fill="white" stroke="#666666" points="623.74,-74 450.74,-74 450.74,-55 623.74,-55 623.74,-74"/>
<text text-anchor="middle" x="537.24" y="-62" font-family="Helvetica,sans-Serif" font-size="10.00">CourseManagement/Course.hpp</text>
</a>
</g>
</g>
<!-- Node11&#45;&gt;Node13 -->
<g id="edge17_Node000011_Node000013" class="edge">
<title>Node11&#45;&gt;Node13</title>
<g id="a_edge17_Node000011_Node000013"><a xlink:title=" ">
<path fill="none" stroke="#63b8ff" d="M397.91,-109.98C425.78,-101.09 469.69,-87.07 500.76,-77.15"/>
<polygon fill="#63b8ff" stroke="#63b8ff" points="501.9,-80.46 510.36,-74.08 499.77,-73.79 501.9,-80.46"/>
</a>
</g>
</g>
<!-- Node13&#45;&gt;Node3 -->
<g id="edge18_Node000013_Node000003" class="edge">
<title>Node13&#45;&gt;Node3</title>
<g id="a_edge18_Node000013_Node000003"><a xlink:title=" ">
<path fill="none" stroke="#63b8ff" d="M491.61,-54.98C433.94,-44.22 336.1,-25.96 285.58,-16.53"/>
<polygon fill="#63b8ff" stroke="#63b8ff" points="286.02,-13.06 275.55,-14.66 284.73,-19.94 286.02,-13.06"/>
</a>
</g>
</g>
<!-- Node13&#45;&gt;Node4 -->
<g id="edge19_Node000013_Node000004" class="edge">
<title>Node13&#45;&gt;Node4</title>
<g id="a_edge19_Node000013_Node000004"><a xlink:title=" ">
<path fill="none" stroke="#63b8ff" d="M564.88,-54.98C595.04,-45.69 643.34,-30.81 675.66,-20.85"/>
<polygon fill="#63b8ff" stroke="#63b8ff" points="677.03,-24.09 685.55,-17.8 674.96,-17.4 677.03,-24.09"/>
</a>
</g>
</g>
<!-- Node14&#45;&gt;Node2 -->
<g id="edge21_Node000014_Node000002" class="edge">
<title>Node14&#45;&gt;Node2</title>
<g id="a_edge21_Node000014_Node000002"><a xlink:title=" ">
<path fill="none" stroke="#63b8ff" d="M94.32,-109.75C86.46,-102.03 74.81,-90.6 65.32,-81.28"/>
<polygon fill="#63b8ff" stroke="#63b8ff" points="67.58,-78.6 57.99,-74.09 62.68,-83.59 67.58,-78.6"/>
</a>
</g>
</g>
<!-- Node14&#45;&gt;Node6 -->
<g id="edge22_Node000014_Node000006" class="edge">
<title>Node14&#45;&gt;Node6</title>
<g id="a_edge22_Node000014_Node000006"><a xlink:title=" ">
<path fill="none" stroke="#63b8ff" d="M112.4,-109.98C120.74,-102.23 133.27,-90.58 143.42,-81.14"/>
<polygon fill="#63b8ff" stroke="#63b8ff" points="145.98,-83.54 150.92,-74.17 141.21,-78.42 145.98,-83.54"/>
</a>
</g>
</g>
<!-- Node15&#45;&gt;Node4 -->
<g id="edge24_Node000015_Node000004" class="edge">
<title>Node15&#45;&gt;Node4</title>
<g id="a_edge24_Node000015_Node000004"><a xlink:title=" ">
<path fill="none" stroke="#63b8ff" d="M911.71,-164.72C910.49,-151.49 906.46,-126.25 893.24,-110 853.65,-61.33 783.7,-33.04 742.4,-19.78"/>
<polygon fill="#63b8ff" stroke="#63b8ff" points="743.39,-16.42 732.8,-16.81 741.31,-23.11 743.39,-16.42"/>
</a>
</g>
</g>
<!-- Node16 -->
<g id="Node000016" class="node">
<title>Node16</title>
<g id="a_Node000016"><a xlink:title=" ">
<polygon fill="#e0e0e0" stroke="#999999" points="1118.24,-129 1080.24,-129 1080.24,-110 1118.24,-110 1118.24,-129"/>
<text text-anchor="middle" x="1099.24" y="-117" font-family="Helvetica,sans-Serif" font-size="10.00">map</text>
</a>
</g>
</g>
<!-- Node15&#45;&gt;Node16 -->
<g id="edge25_Node000015_Node000016" class="edge">
<title>Node15&#45;&gt;Node16</title>
<g id="a_edge25_Node000015_Node000016"><a xlink:title=" ">
<path fill="none" stroke="#63b8ff" d="M943.67,-164.92C973.78,-156.65 1020.74,-143.64 1070.08,-129.29"/>
<polygon fill="#63b8ff" stroke="#63b8ff" points="1071.36,-132.57 1079.98,-126.41 1069.4,-125.85 1071.36,-132.57"/>
</a>
</g>
</g>
<!-- Node17 -->
<g id="Node000017" class="node">
<title>Node17</title>
<g id="a_Node000017"><a xlink:href="BubbleSort_8hpp.html" target="_top" xlink:title=" ">
<polygon fill="white" stroke="#666666" points="884.24,-129 756.24,-129 756.24,-110 884.24,-110 884.24,-129"/>
<text text-anchor="middle" x="820.24" y="-117" font-family="Helvetica,sans-Serif" font-size="10.00">Sorters/BubbleSort.hpp</text>
</a>
</g>
</g>
<!-- Node15&#45;&gt;Node17 -->
<g id="edge26_Node000015_Node000017" class="edge">
<title>Node15&#45;&gt;Node17</title>
<g id="a_edge26_Node000015_Node000017"><a xlink:title=" ">
<path fill="none" stroke="#63b8ff" d="M897.46,-164.98C883.06,-156.69 860.93,-143.94 844.05,-134.22"/>
<polygon fill="#63b8ff" stroke="#63b8ff" points="845.7,-131.13 835.29,-129.17 842.21,-137.19 845.7,-131.13"/>
</a>
</g>
</g>
<!-- Node18 -->
<g id="Node000018" class="node">
<title>Node18</title>
<g id="a_Node000018"><a xlink:href="QuickSort_8hpp.html" target="_top" xlink:title=" ">
<polygon fill="white" stroke="#666666" points="1062.24,-129 940.24,-129 940.24,-110 1062.24,-110 1062.24,-129"/>
<text text-anchor="middle" x="1001.24" y="-117" font-family="Helvetica,sans-Serif" font-size="10.00">Sorters/QuickSort.hpp</text>
</a>
</g>
</g>
<!-- Node15&#45;&gt;Node18 -->
<g id="edge29_Node000015_Node000018" class="edge">
<title>Node15&#45;&gt;Node18</title>
<g id="a_edge29_Node000015_Node000018"><a xlink:title=" ">
<path fill="none" stroke="#63b8ff" d="M921.43,-164.98C933.64,-156.61 955.03,-143.7 972.7,-133.95"/>
<polygon fill="#63b8ff" stroke="#63b8ff" points="974.4,-137.01 981.53,-129.17 971.07,-130.85 974.4,-137.01"/>
</a>
</g>
</g>
<!-- Node19 -->
<g id="Node000019" class="node">
<title>Node19</title>
<g id="a_Node000019"><a xlink:href="MergeSort_8hpp.html" target="_top" xlink:title=" ">
<polygon fill="white" stroke="#666666" points="699.74,-129 574.74,-129 574.74,-110 699.74,-110 699.74,-129"/>
<text text-anchor="middle" x="637.24" y="-117" font-family="Helvetica,sans-Serif" font-size="10.00">Sorters/MergeSort.hpp</text>
</a>
</g>
</g>
<!-- Node15&#45;&gt;Node19 -->
<g id="edge32_Node000015_Node000019" class="edge">
<title>Node15&#45;&gt;Node19</title>
<g id="a_edge32_Node000015_Node000019"><a xlink:title=" ">
<path fill="none" stroke="#63b8ff" d="M868.06,-164.98C820.09,-155.74 743.43,-140.97 691.76,-131.01"/>
<polygon fill="#63b8ff" stroke="#63b8ff" points="692.25,-127.54 681.77,-129.08 690.93,-134.41 692.25,-127.54"/>
</a>
</g>
</g>
<!-- Node17&#45;&gt;Node4 -->
<g id="edge27_Node000017_Node000004" class="edge">
<title>Node17&#45;&gt;Node4</title>
<g id="a_edge27_Node000017_Node000004"><a xlink:title=" ">
<path fill="none" stroke="#63b8ff" d="M811.16,-109.66C792.36,-91.38 749,-49.18 725.34,-26.17"/>
<polygon fill="#63b8ff" stroke="#63b8ff" points="727.75,-23.62 718.14,-19.16 722.87,-28.64 727.75,-23.62"/>
</a>
</g>
</g>
<!-- Node17&#45;&gt;Node13 -->
<g id="edge28_Node000017_Node000013" class="edge">
<title>Node17&#45;&gt;Node13</title>
<g id="a_edge28_Node000017_Node000013"><a xlink:title=" ">
<path fill="none" stroke="#63b8ff" d="M774.77,-109.98C725.31,-100.72 646.19,-85.9 593.01,-75.94"/>
<polygon fill="#63b8ff" stroke="#63b8ff" points="593.54,-72.48 583.07,-74.08 592.25,-79.36 593.54,-72.48"/>
</a>
</g>
</g>
<!-- Node18&#45;&gt;Node4 -->
<g id="edge30_Node000018_Node000004" class="edge">
<title>Node18&#45;&gt;Node4</title>
<g id="a_edge30_Node000018_Node000004"><a xlink:title=" ">
<path fill="none" stroke="#63b8ff" d="M993.89,-109.96C981.44,-96.11 954.78,-68.87 926.24,-55 866.01,-25.72 787.31,-15.69 743.14,-12.26"/>
<polygon fill="#63b8ff" stroke="#63b8ff" points="743.17,-8.75 732.95,-11.54 742.68,-15.74 743.17,-8.75"/>
</a>
</g>
</g>
<!-- Node18&#45;&gt;Node15 -->
<g id="edge31_Node000018_Node000015" class="edge">
<title>Node18&#45;&gt;Node15</title>
<g id="a_edge31_Node000018_Node000015"><a xlink:title=" ">
<path fill="none" stroke="#63b8ff" d="M991.83,-129.17C979.51,-137.6 958.08,-150.51 940.46,-160.23"/>
<polygon fill="#63b8ff" stroke="#63b8ff" points="938.79,-157.15 931.66,-164.98 942.12,-163.31 938.79,-157.15"/>
</a>
</g>
</g>
<!-- Node19&#45;&gt;Node4 -->
<g id="edge33_Node000019_Node000004" class="edge">
<title>Node19&#45;&gt;Node4</title>
<g id="a_edge33_Node000019_Node000004"><a xlink:title=" ">
<path fill="none" stroke="#63b8ff" d="M643.13,-109.66C655.06,-91.77 682.24,-51 697.78,-27.69"/>
<polygon fill="#63b8ff" stroke="#63b8ff" points="700.83,-29.42 703.47,-19.16 695.01,-25.54 700.83,-29.42"/>
</a>
</g>
</g>
<!-- Node19&#45;&gt;Node13 -->
<g id="edge34_Node000019_Node000013" class="edge">
<title>Node19&#45;&gt;Node13</title>
<g id="a_edge34_Node000019_Node000013"><a xlink:title=" ">
<path fill="none" stroke="#63b8ff" d="M621.17,-109.98C605.38,-101.61 581.02,-88.7 562.61,-78.95"/>
<polygon fill="#63b8ff" stroke="#63b8ff" points="564.08,-75.76 553.6,-74.17 560.8,-81.95 564.08,-75.76"/>
</a>
</g>
</g>
</g>
</svg>
