<?xml version="1.0" encoding="UTF-8" standalone="no"?>
<!DOCTYPE svg PUBLIC "-//W3C//DTD SVG 1.1//EN"
 "http://www.w3.org/Graphics/SVG/1.1/DTD/svg11.dtd">
<!-- Generated by graphviz version 2.43.0 (0)
 -->
<!-- Title: include/Sorters/MergeSort.hpp Pages: 1 -->
<svg width="417pt" height="148pt"
 viewBox="0.00 0.00 417.00 148.00" xmlns="http://www.w3.org/2000/svg" xmlns:xlink="http://www.w3.org/1999/xlink">
<g id="graph0" class="graph" transform="scale(1 1) rotate(0) translate(4 144)">
<title>include/Sorters/MergeSort.hpp</title>
<!-- Node1 -->
<g id="Node000001" class="node">
<title>Node1</title>
<g id="a_Node000001"><a xlink:title=" ">
<polygon fill="#999999" stroke="#666666" points="244.5,-140 80.5,-140 80.5,-121 244.5,-121 244.5,-140"/>
<text text-anchor="middle" x="162.5" y="-128" font-family="Helvetica,sans-Serif" font-size="10.00">include/Sorters/MergeSort.hpp</text>
</a>
</g>
</g>
<!-- Node2 -->
<g id="Node000002" class="node">
<title>Node2</title>
<g id="a_Node000002"><a xlink:href="Sorter_8hpp.html" target="_top" xlink:title=" ">
<polygon fill="white" stroke="#666666" points="233.5,-85 91.5,-85 91.5,-66 233.5,-66 233.5,-85"/>
<text text-anchor="middle" x="162.5" y="-73" font-family="Helvetica,sans-Serif" font-size="10.00">include/Sorters/Sorter.hpp</text>
</a>
</g>
</g>
<!-- Node1&#45;&gt;Node2 -->
<g id="edge1_Node000001_Node000002" class="edge">
<title>Node1&#45;&gt;Node2</title>
<g id="a_edge1_Node000001_Node000002"><a xlink:title=" ">
<path fill="none" stroke="#63b8ff" d="M162.5,-110.66C162.5,-101.93 162.5,-91.99 162.5,-85.09"/>
<polygon fill="#63b8ff" stroke="#63b8ff" points="159,-110.75 162.5,-120.75 166,-110.75 159,-110.75"/>
</a>
</g>
</g>
<!-- Node3 -->
<g id="Node000003" class="node">
<title>Node3</title>
<g id="a_Node000003"><a xlink:href="QuickSort_8hpp.html" target="_top" xlink:title=" ">
<polygon fill="white" stroke="#666666" points="161,-24.5 0,-24.5 0,-5.5 161,-5.5 161,-24.5"/>
<text text-anchor="middle" x="80.5" y="-12.5" font-family="Helvetica,sans-Serif" font-size="10.00">include/Sorters/QuickSort.hpp</text>
</a>
</g>
</g>
<!-- Node2&#45;&gt;Node3 -->
<g id="edge2_Node000002_Node000003" class="edge">
<title>Node2&#45;&gt;Node3</title>
<g id="a_edge2_Node000002_Node000003"><a xlink:title=" ">
<path fill="none" stroke="#63b8ff" d="M136.97,-60.47C119.92,-49.32 98.88,-34.1 87.69,-24.67"/>
<polygon fill="#63b8ff" stroke="#63b8ff" points="135.13,-63.45 145.45,-65.87 138.89,-57.54 135.13,-63.45"/>
</a>
</g>
</g>
<!-- Node4 -->
<g id="Node000004" class="node">
<title>Node4</title>
<g id="a_Node000004"><a xlink:href="CourseManager_8cpp.html" target="_top" xlink:title=" ">
<polygon fill="white" stroke="#666666" points="311.5,-30 179.5,-30 179.5,0 311.5,0 311.5,-30"/>
<text text-anchor="start" x="187.5" y="-18" font-family="Helvetica,sans-Serif" font-size="10.00">src/CourseManagement</text>
<text text-anchor="middle" x="245.5" y="-7" font-family="Helvetica,sans-Serif" font-size="10.00">/CourseManager.cpp</text>
</a>
</g>
</g>
<!-- Node2&#45;&gt;Node4 -->
<g id="edge4_Node000002_Node000004" class="edge">
<title>Node2&#45;&gt;Node4</title>
<g id="a_edge4_Node000002_Node000004"><a xlink:title=" ">
<path fill="none" stroke="#63b8ff" d="M183.03,-60.03C195.98,-50.9 212.62,-39.17 225.47,-30.11"/>
<polygon fill="#63b8ff" stroke="#63b8ff" points="180.9,-57.25 174.75,-65.87 184.94,-62.97 180.9,-57.25"/>
</a>
</g>
</g>
<!-- Node5 -->
<g id="Node000005" class="node">
<title>Node5</title>
<g id="a_Node000005"><a xlink:href="main_8cpp.html" target="_top" xlink:title=" ">
<polygon fill="white" stroke="#666666" points="409,-24.5 330,-24.5 330,-5.5 409,-5.5 409,-24.5"/>
<text text-anchor="middle" x="369.5" y="-12.5" font-family="Helvetica,sans-Serif" font-size="10.00">src/main.cpp</text>
</a>
</g>
</g>
<!-- Node2&#45;&gt;Node5 -->
<g id="edge5_Node000002_Node000005" class="edge">
<title>Node2&#45;&gt;Node5</title>
<g id="a_edge5_Node000002_Node000005"><a xlink:title=" ">
<path fill="none" stroke="#63b8ff" d="M202.95,-63.15C234.88,-54.18 280.55,-41.33 320.5,-30 326.71,-28.24 333.37,-26.34 339.71,-24.53"/>
<polygon fill="#63b8ff" stroke="#63b8ff" points="201.78,-59.85 193.09,-65.92 203.67,-66.59 201.78,-59.85"/>
</a>
</g>
</g>
<!-- Node3&#45;&gt;Node2 -->
<g id="edge3_Node000003_Node000002" class="edge">
<title>Node3&#45;&gt;Node2</title>
<g id="a_edge3_Node000003_Node000002"><a xlink:title=" ">
<path fill="none" stroke="#63b8ff" d="M106.1,-30.08C123.16,-41.23 144.19,-56.45 155.36,-65.87"/>
<polygon fill="#63b8ff" stroke="#63b8ff" points="107.93,-27.09 97.61,-24.67 104.16,-32.99 107.93,-27.09"/>
</a>
</g>
</g>
</g>
</svg>
