<?xml version="1.0" encoding="UTF-8" standalone="no"?>
<!DOCTYPE svg PUBLIC "-//W3C//DTD SVG 1.1//EN"
 "http://www.w3.org/Graphics/SVG/1.1/DTD/svg11.dtd">
<!-- Generated by graphviz version 2.43.0 (0)
 -->
<!-- Title: sorter::partition Pages: 1 -->
<svg width="233pt" height="45pt"
 viewBox="0.00 0.00 233.00 45.00" xmlns="http://www.w3.org/2000/svg" xmlns:xlink="http://www.w3.org/1999/xlink">
<g id="graph0" class="graph" transform="scale(1 1) rotate(0) translate(4 41)">
<title>sorter::partition</title>
<!-- Node1 -->
<g id="Node000001" class="node">
<title>Node1</title>
<g id="a_Node000001"><a xlink:title="Partition the sub&#45;array of arr between indices low and high, inclusive. Uses the last element as pivo...">
<polygon fill="#999999" stroke="#666666" points="225,-19 133,-19 133,0 225,0 225,-19"/>
<text text-anchor="middle" x="179" y="-7" font-family="Helvetica,sans-Serif" font-size="10.00">sorter::partition</text>
</a>
</g>
</g>
<!-- Node2 -->
<g id="Node000002" class="node">
<title>Node2</title>
<g id="a_Node000002"><a xlink:href="namespacesorter.html#a31eb666d8b45bf29f4cb1a5a92a697f0" target="_top" xlink:title=" ">
<polygon fill="white" stroke="#666666" points="97,-19 0,-19 0,0 97,0 97,-19"/>
<text text-anchor="middle" x="48.5" y="-7" font-family="Helvetica,sans-Serif" font-size="10.00">sorter::quickSort</text>
</a>
</g>
</g>
<!-- Node1&#45;&gt;Node2 -->
<g id="edge1_Node000001_Node000002" class="edge">
<title>Node1&#45;&gt;Node2</title>
<g id="a_edge1_Node000001_Node000002"><a xlink:title=" ">
<path fill="none" stroke="#63b8ff" d="M122.49,-9.5C114,-9.5 105.3,-9.5 97.01,-9.5"/>
<polygon fill="#63b8ff" stroke="#63b8ff" points="122.7,-13 132.7,-9.5 122.7,-6 122.7,-13"/>
</a>
</g>
</g>
<!-- Node2&#45;&gt;Node2 -->
<g id="edge2_Node000002_Node000002" class="edge">
<title>Node2&#45;&gt;Node2</title>
<g id="a_edge2_Node000002_Node000002"><a xlink:title=" ">
<path fill="none" stroke="#63b8ff" d="M72.68,-28.19C71.36,-33.2 63.3,-37 48.5,-37 25.39,-37 18.72,-27.73 28.46,-19.08"/>
<polygon fill="#63b8ff" stroke="#63b8ff" points="75.86,-26.73 68.54,-19.08 69.49,-29.63 75.86,-26.73"/>
</a>
</g>
</g>
</g>
</svg>
