<?xml version="1.0" encoding="UTF-8" standalone="no"?>
<!DOCTYPE svg PUBLIC "-//W3C//DTD SVG 1.1//EN"
 "http://www.w3.org/Graphics/SVG/1.1/DTD/svg11.dtd">
<!-- Generated by graphviz version 2.43.0 (0)
 -->
<!-- Title: VarLoader::mountCSV Pages: 1 -->
<svg width="449pt" height="64pt"
 viewBox="0.00 0.00 449.00 64.00" xmlns="http://www.w3.org/2000/svg" xmlns:xlink="http://www.w3.org/1999/xlink">
<g id="graph0" class="graph" transform="scale(1 1) rotate(0) translate(4 60)">
<title>VarLoader::mountCSV</title>
<!-- Node1 -->
<g id="Node000001" class="node">
<title>Node1</title>
<g id="a_Node000001"><a xlink:title="Takes a CSV and parses it to resolve them into course objects.">
<polygon fill="#999999" stroke="#666666" points="122,-37 0,-37 0,-18 122,-18 122,-37"/>
<text text-anchor="middle" x="61" y="-25" font-family="Helvetica,sans-Serif" font-size="10.00">VarLoader::mountCSV</text>
</a>
</g>
</g>
<!-- Node2 -->
<g id="Node000002" class="node">
<title>Node2</title>
<g id="a_Node000002"><a xlink:href="classErrLog.html#a881e5dfb84c92034197bd001ad2391a6" target="_top" xlink:title="Generates a log text file in the logs folder.">
<polygon fill="white" stroke="#666666" points="270.5,-56 164.5,-56 164.5,-37 270.5,-37 270.5,-56"/>
<text text-anchor="middle" x="217.5" y="-44" font-family="Helvetica,sans-Serif" font-size="10.00">ErrLog::genLogFile</text>
</a>
</g>
</g>
<!-- Node1&#45;&gt;Node2 -->
<g id="edge1_Node000001_Node000002" class="edge">
<title>Node1&#45;&gt;Node2</title>
<g id="a_edge1_Node000001_Node000002"><a xlink:title=" ">
<path fill="none" stroke="#63b8ff" d="M122.18,-34.9C132.71,-36.2 143.68,-37.55 154.27,-38.85"/>
<polygon fill="#63b8ff" stroke="#63b8ff" points="153.91,-42.33 164.27,-40.08 154.77,-35.38 153.91,-42.33"/>
</a>
</g>
</g>
<!-- Node4 -->
<g id="Node000004" class="node">
<title>Node4</title>
<g id="a_Node000004"><a xlink:href="namespaceVarLoader.html#abd49e6ee2c902e65b2d7f196b7c4f435" target="_top" xlink:title=" ">
<polygon fill="white" stroke="#666666" points="277,-19 158,-19 158,0 277,0 277,-19"/>
<text text-anchor="middle" x="217.5" y="-7" font-family="Helvetica,sans-Serif" font-size="10.00">VarLoader::parseLine</text>
</a>
</g>
</g>
<!-- Node1&#45;&gt;Node4 -->
<g id="edge3_Node000001_Node000004" class="edge">
<title>Node1&#45;&gt;Node4</title>
<g id="a_edge3_Node000001_Node000004"><a xlink:title=" ">
<path fill="none" stroke="#63b8ff" d="M122.18,-20.49C130.58,-19.51 139.27,-18.5 147.81,-17.5"/>
<polygon fill="#63b8ff" stroke="#63b8ff" points="148.23,-20.98 157.76,-16.34 147.42,-14.02 148.23,-20.98"/>
</a>
</g>
</g>
<!-- Node3 -->
<g id="Node000003" class="node">
<title>Node3</title>
<g id="a_Node000003"><a xlink:href="classErrLog.html#af7345266274741d05394ccb688e228ad" target="_top" xlink:title="generates a timestamp for files">
<polygon fill="white" stroke="#666666" points="441,-56 313,-56 313,-37 441,-37 441,-56"/>
<text text-anchor="middle" x="377" y="-44" font-family="Helvetica,sans-Serif" font-size="10.00">ErrLog::genTimeStamp</text>
</a>
</g>
</g>
<!-- Node2&#45;&gt;Node3 -->
<g id="edge2_Node000002_Node000003" class="edge">
<title>Node2&#45;&gt;Node3</title>
<g id="a_edge2_Node000002_Node000003"><a xlink:title=" ">
<path fill="none" stroke="#63b8ff" d="M270.51,-46.5C280.76,-46.5 291.7,-46.5 302.51,-46.5"/>
<polygon fill="#63b8ff" stroke="#63b8ff" points="302.8,-50 312.8,-46.5 302.8,-43 302.8,-50"/>
</a>
</g>
</g>
</g>
</svg>
