<?xml version="1.0" encoding="UTF-8" standalone="no"?>
<!DOCTYPE svg PUBLIC "-//W3C//DTD SVG 1.1//EN"
 "http://www.w3.org/Graphics/SVG/1.1/DTD/svg11.dtd">
<!-- Generated by graphviz version 2.43.0 (0)
 -->
<!-- Title: sorter::mergeSort Pages: 1 -->
<svg width="415pt" height="45pt"
 viewBox="0.00 0.00 415.00 45.00" xmlns="http://www.w3.org/2000/svg" xmlns:xlink="http://www.w3.org/1999/xlink">
<g id="graph0" class="graph" transform="scale(1 1) rotate(0) translate(4 41)">
<title>sorter::mergeSort</title>
<!-- Node1 -->
<g id="Node000001" class="node">
<title>Node1</title>
<g id="a_Node000001"><a xlink:title=" ">
<polygon fill="#999999" stroke="#666666" points="102,-19 0,-19 0,0 102,0 102,-19"/>
<text text-anchor="middle" x="51" y="-7" font-family="Helvetica,sans-Serif" font-size="10.00">sorter::mergeSort</text>
</a>
</g>
</g>
<!-- Node2 -->
<g id="Node000002" class="node">
<title>Node2</title>
<g id="a_Node000002"><a xlink:href="namespacesorter.html#ad8fb83b6f615737f59974fbf088f9493" target="_top" xlink:title=" ">
<polygon fill="white" stroke="#666666" points="288,-19 138,-19 138,0 288,0 288,-19"/>
<text text-anchor="middle" x="213" y="-7" font-family="Helvetica,sans-Serif" font-size="10.00">sorter::mergeSortRecursive</text>
</a>
</g>
</g>
<!-- Node1&#45;&gt;Node2 -->
<g id="edge1_Node000001_Node000002" class="edge">
<title>Node1&#45;&gt;Node2</title>
<g id="a_edge1_Node000001_Node000002"><a xlink:title=" ">
<path fill="none" stroke="#63b8ff" d="M102.19,-9.5C110.35,-9.5 119.01,-9.5 127.73,-9.5"/>
<polygon fill="#63b8ff" stroke="#63b8ff" points="127.97,-13 137.97,-9.5 127.97,-6 127.97,-13"/>
</a>
</g>
</g>
<!-- Node2&#45;&gt;Node2 -->
<g id="edge3_Node000002_Node000002" class="edge">
<title>Node2&#45;&gt;Node2</title>
<g id="a_edge3_Node000002_Node000002"><a xlink:title=" ">
<path fill="none" stroke="#63b8ff" d="M189.57,-19.08C178.18,-27.73 185.98,-37 213,-37 230.73,-37 240.19,-33.01 241.37,-27.82"/>
<polygon fill="#63b8ff" stroke="#63b8ff" points="244.4,-26.06 236.43,-19.08 238.31,-29.51 244.4,-26.06"/>
</a>
</g>
</g>
<!-- Node3 -->
<g id="Node000003" class="node">
<title>Node3</title>
<g id="a_Node000003"><a xlink:href="namespacesorter.html#a4757a062dcf81885e22b632fec0aece4" target="_top" xlink:title=" ">
<polygon fill="white" stroke="#666666" points="407,-19 324,-19 324,0 407,0 407,-19"/>
<text text-anchor="middle" x="365.5" y="-7" font-family="Helvetica,sans-Serif" font-size="10.00">sorter::merge</text>
</a>
</g>
</g>
<!-- Node2&#45;&gt;Node3 -->
<g id="edge2_Node000002_Node000003" class="edge">
<title>Node2&#45;&gt;Node3</title>
<g id="a_edge2_Node000002_Node000003"><a xlink:title=" ">
<path fill="none" stroke="#63b8ff" d="M288.37,-9.5C296.91,-9.5 305.46,-9.5 313.59,-9.5"/>
<polygon fill="#63b8ff" stroke="#63b8ff" points="313.63,-13 323.63,-9.5 313.63,-6 313.63,-13"/>
</a>
</g>
</g>
</g>
</svg>
