<?xml version="1.0" encoding="UTF-8" standalone="no"?>
<!DOCTYPE svg PUBLIC "-//W3C//DTD SVG 1.1//EN"
 "http://www.w3.org/Graphics/SVG/1.1/DTD/svg11.dtd">
<!-- Generated by graphviz version 2.43.0 (0)
 -->
<!-- Title: sorter::quickSort Pages: 1 -->
<svg width="233pt" height="45pt"
 viewBox="0.00 0.00 233.00 45.00" xmlns="http://www.w3.org/2000/svg" xmlns:xlink="http://www.w3.org/1999/xlink">
<g id="graph0" class="graph" transform="scale(1 1) rotate(0) translate(4 41)">
<title>sorter::quickSort</title>
<!-- Node1 -->
<g id="Node000001" class="node">
<title>Node1</title>
<g id="a_Node000001"><a xlink:title=" ">
<polygon fill="#999999" stroke="#666666" points="97,-19 0,-19 0,0 97,0 97,-19"/>
<text text-anchor="middle" x="48.5" y="-7" font-family="Helvetica,sans-Serif" font-size="10.00">sorter::quickSort</text>
</a>
</g>
</g>
<!-- Node1&#45;&gt;Node1 -->
<g id="edge2_Node000001_Node000001" class="edge">
<title>Node1&#45;&gt;Node1</title>
<g id="a_edge2_Node000001_Node000001"><a xlink:title=" ">
<path fill="none" stroke="#63b8ff" d="M28.46,-19.08C18.72,-27.73 25.39,-37 48.5,-37 63.3,-37 71.36,-33.2 72.68,-28.19"/>
<polygon fill="#63b8ff" stroke="#63b8ff" points="75.86,-26.73 68.54,-19.08 69.49,-29.63 75.86,-26.73"/>
</a>
</g>
</g>
<!-- Node2 -->
<g id="Node000002" class="node">
<title>Node2</title>
<g id="a_Node000002"><a xlink:href="namespacesorter.html#ad5e1d5b546383bff48603b3aedd6fc43" target="_top" xlink:title="Partition the sub&#45;array of arr between indices low and high, inclusive. Uses the last element as pivo...">
<polygon fill="white" stroke="#666666" points="225,-19 133,-19 133,0 225,0 225,-19"/>
<text text-anchor="middle" x="179" y="-7" font-family="Helvetica,sans-Serif" font-size="10.00">sorter::partition</text>
</a>
</g>
</g>
<!-- Node1&#45;&gt;Node2 -->
<g id="edge1_Node000001_Node000002" class="edge">
<title>Node1&#45;&gt;Node2</title>
<g id="a_edge1_Node000001_Node000002"><a xlink:title=" ">
<path fill="none" stroke="#63b8ff" d="M97.35,-9.5C105.57,-9.5 114.17,-9.5 122.57,-9.5"/>
<polygon fill="#63b8ff" stroke="#63b8ff" points="122.67,-13 132.67,-9.5 122.67,-6 122.67,-13"/>
</a>
</g>
</g>
</g>
</svg>
