<?xml version="1.0" encoding="UTF-8" standalone="no"?>
<!DOCTYPE svg PUBLIC "-//W3C//DTD SVG 1.1//EN"
 "http://www.w3.org/Graphics/SVG/1.1/DTD/svg11.dtd">
<!-- Generated by graphviz version 2.43.0 (0)
 -->
<!-- Title: main Pages: 1 -->
<svg width="215pt" height="138pt"
 viewBox="0.00 0.00 215.00 138.00" xmlns="http://www.w3.org/2000/svg" xmlns:xlink="http://www.w3.org/1999/xlink">
<g id="graph0" class="graph" transform="scale(1 1) rotate(0) translate(4 134)">
<title>main</title>
<!-- Node1 -->
<g id="Node000001" class="node">
<title>Node1</title>
<g id="a_Node000001"><a xlink:title=" ">
<polygon fill="#999999" stroke="#666666" points="41,-74 0,-74 0,-55 41,-55 41,-74"/>
<text text-anchor="middle" x="20.5" y="-62" font-family="Helvetica,sans-Serif" font-size="10.00">main</text>
</a>
</g>
</g>
<!-- Node2 -->
<g id="Node000002" class="node">
<title>Node2</title>
<g id="a_Node000002"><a xlink:href="Project2_8cpp.html#a983aa5fd6a63f47aa1283735353142d8" target="_top" xlink:title=" ">
<polygon fill="white" stroke="#666666" points="176.5,-130 107.5,-130 107.5,-111 176.5,-111 176.5,-130"/>
<text text-anchor="middle" x="142" y="-118" font-family="Helvetica,sans-Serif" font-size="10.00">bubbleSort</text>
</a>
</g>
</g>
<!-- Node1&#45;&gt;Node2 -->
<g id="edge1_Node000001_Node000002" class="edge">
<title>Node1&#45;&gt;Node2</title>
<g id="a_edge1_Node000001_Node000002"><a xlink:title=" ">
<path fill="none" stroke="#63b8ff" d="M33.15,-74.16C43.93,-82.68 60.71,-94.88 77,-102.5 83.39,-105.49 90.38,-108.08 97.32,-110.28"/>
<polygon fill="#63b8ff" stroke="#63b8ff" points="96.79,-113.78 107.37,-113.25 98.77,-107.06 96.79,-113.78"/>
</a>
</g>
</g>
<!-- Node3 -->
<g id="Node000003" class="node">
<title>Node3</title>
<g id="a_Node000003"><a xlink:href="Project2_8cpp.html#a087c7440bb107ad9b917128515ecf85c" target="_top" xlink:title=" ">
<polygon fill="white" stroke="#666666" points="176,-93 108,-93 108,-74 176,-74 176,-93"/>
<text text-anchor="middle" x="142" y="-81" font-family="Helvetica,sans-Serif" font-size="10.00">mountCSV</text>
</a>
</g>
</g>
<!-- Node1&#45;&gt;Node3 -->
<g id="edge2_Node000001_Node000003" class="edge">
<title>Node1&#45;&gt;Node3</title>
<g id="a_edge2_Node000001_Node000003"><a xlink:title=" ">
<path fill="none" stroke="#63b8ff" d="M41.23,-67.64C56.52,-70.07 78.27,-73.53 97.56,-76.59"/>
<polygon fill="#63b8ff" stroke="#63b8ff" points="97.25,-80.09 107.67,-78.2 98.35,-73.17 97.25,-80.09"/>
</a>
</g>
</g>
<!-- Node4 -->
<g id="Node000004" class="node">
<title>Node4</title>
<g id="a_Node000004"><a xlink:href="Project2_8cpp.html#a37784eaa85670cb1d02f0de2afca5b21" target="_top" xlink:title=" ">
<polygon fill="white" stroke="#666666" points="187.5,-56 96.5,-56 96.5,-37 187.5,-37 187.5,-56"/>
<text text-anchor="middle" x="142" y="-44" font-family="Helvetica,sans-Serif" font-size="10.00">printAllCourses</text>
</a>
</g>
</g>
<!-- Node1&#45;&gt;Node4 -->
<g id="edge3_Node000001_Node000004" class="edge">
<title>Node1&#45;&gt;Node4</title>
<g id="a_edge3_Node000001_Node000004"><a xlink:title=" ">
<path fill="none" stroke="#63b8ff" d="M41.23,-61.53C53.64,-59.66 70.31,-57.15 86.46,-54.71"/>
<polygon fill="#63b8ff" stroke="#63b8ff" points="87.05,-58.17 96.41,-53.22 86,-51.24 87.05,-58.17"/>
</a>
</g>
</g>
<!-- Node5 -->
<g id="Node000005" class="node">
<title>Node5</title>
<g id="a_Node000005"><a xlink:href="Project2_8cpp.html#a500d088daa5e2900bef8711061cce741" target="_top" xlink:title=" ">
<polygon fill="white" stroke="#666666" points="207,-19 77,-19 77,0 207,0 207,-19"/>
<text text-anchor="middle" x="142" y="-7" font-family="Helvetica,sans-Serif" font-size="10.00">printCourseInformation</text>
</a>
</g>
</g>
<!-- Node1&#45;&gt;Node5 -->
<g id="edge4_Node000001_Node000005" class="edge">
<title>Node1&#45;&gt;Node5</title>
<g id="a_edge4_Node000001_Node000005"><a xlink:title=" ">
<path fill="none" stroke="#63b8ff" d="M34.12,-54.8C44.99,-46.83 61.36,-35.71 77,-28.5 82,-26.19 87.35,-24.09 92.74,-22.19"/>
<polygon fill="#63b8ff" stroke="#63b8ff" points="94.03,-25.45 102.44,-19 91.84,-18.8 94.03,-25.45"/>
</a>
</g>
</g>
</g>
</svg>
