<?xml version="1.0" encoding="UTF-8" standalone="no"?>
<!DOCTYPE svg PUBLIC "-//W3C//DTD SVG 1.1//EN"
 "http://www.w3.org/Graphics/SVG/1.1/DTD/svg11.dtd">
<!-- Generated by graphviz version 2.43.0 (0)
 -->
<!-- Title: include/Sorters/QuickSort.hpp Pages: 1 -->
<svg width="356pt" height="247pt"
 viewBox="0.00 0.00 356.29 247.00" xmlns="http://www.w3.org/2000/svg" xmlns:xlink="http://www.w3.org/1999/xlink">
<g id="graph0" class="graph" transform="scale(1 1) rotate(0) translate(4 243)">
<title>include/Sorters/QuickSort.hpp</title>
<!-- Node1 -->
<g id="Node000001" class="node">
<title>Node1</title>
<g id="a_Node000001"><a xlink:title=" ">
<polygon fill="#999999" stroke="#666666" points="165.29,-239 4.29,-239 4.29,-220 165.29,-220 165.29,-239"/>
<text text-anchor="middle" x="84.79" y="-227" font-family="Helvetica,sans-Serif" font-size="10.00">include/Sorters/QuickSort.hpp</text>
</a>
</g>
</g>
<!-- Node2 -->
<g id="Node000002" class="node">
<title>Node2</title>
<g id="a_Node000002"><a xlink:title=" ">
<polygon fill="#e0e0e0" stroke="#999999" points="66.29,-19 19.29,-19 19.29,0 66.29,0 66.29,-19"/>
<text text-anchor="middle" x="42.79" y="-7" font-family="Helvetica,sans-Serif" font-size="10.00">vector</text>
</a>
</g>
</g>
<!-- Node1&#45;&gt;Node2 -->
<g id="edge1_Node000001_Node000002" class="edge">
<title>Node1&#45;&gt;Node2</title>
<g id="a_edge1_Node000001_Node000002"><a xlink:title=" ">
<path fill="none" stroke="#63b8ff" d="M68.28,-219.92C54.72,-212.14 35.85,-199.53 23.79,-184 7.63,-163.21 6.77,-154.85 1.79,-129 -1.7,-110.89 1.61,-65.36 5.79,-55 10.03,-44.46 17.75,-34.55 25.04,-26.77"/>
<polygon fill="#63b8ff" stroke="#63b8ff" points="27.99,-28.77 32.6,-19.23 23.05,-23.81 27.99,-28.77"/>
</a>
</g>
</g>
<!-- Node3 -->
<g id="Node000003" class="node">
<title>Node3</title>
<g id="a_Node000003"><a xlink:href="Sorter_8hpp.html" target="_top" xlink:title=" ">
<polygon fill="white" stroke="#666666" points="136.79,-184 32.79,-184 32.79,-165 136.79,-165 136.79,-184"/>
<text text-anchor="middle" x="84.79" y="-172" font-family="Helvetica,sans-Serif" font-size="10.00">Sorters/Sorter.hpp</text>
</a>
</g>
</g>
<!-- Node1&#45;&gt;Node3 -->
<g id="edge2_Node000001_Node000003" class="edge">
<title>Node1&#45;&gt;Node3</title>
<g id="a_edge2_Node000001_Node000003"><a xlink:title=" ">
<path fill="none" stroke="#63b8ff" d="M79.62,-219.75C78.13,-212.8 77.69,-202.85 78.31,-194.13"/>
<polygon fill="#63b8ff" stroke="#63b8ff" points="81.8,-194.47 79.66,-184.09 74.86,-193.53 81.8,-194.47"/>
</a>
</g>
</g>
<!-- Node3&#45;&gt;Node1 -->
<g id="edge10_Node000003_Node000001" class="edge">
<title>Node3&#45;&gt;Node1</title>
<g id="a_edge10_Node000003_Node000001"><a xlink:title=" ">
<path fill="none" stroke="#63b8ff" d="M89.92,-184.09C91.43,-190.99 91.88,-200.93 91.28,-209.66"/>
<polygon fill="#63b8ff" stroke="#63b8ff" points="87.79,-209.38 89.95,-219.75 94.73,-210.29 87.79,-209.38"/>
</a>
</g>
</g>
<!-- Node3&#45;&gt;Node2 -->
<g id="edge3_Node000003_Node000002" class="edge">
<title>Node3&#45;&gt;Node2</title>
<g id="a_edge3_Node000003_Node000002"><a xlink:title=" ">
<path fill="none" stroke="#63b8ff" d="M58.22,-164.94C41.66,-158.06 21.67,-146.6 11.79,-129 -6.78,-95.93 15.56,-51.43 30.83,-27.47"/>
<polygon fill="#63b8ff" stroke="#63b8ff" points="33.78,-29.35 36.42,-19.09 27.96,-25.47 33.78,-29.35"/>
</a>
</g>
</g>
<!-- Node4 -->
<g id="Node000004" class="node">
<title>Node4</title>
<g id="a_Node000004"><a xlink:title=" ">
<polygon fill="#e0e0e0" stroke="#999999" points="204.79,-129 166.79,-129 166.79,-110 204.79,-110 204.79,-129"/>
<text text-anchor="middle" x="185.79" y="-117" font-family="Helvetica,sans-Serif" font-size="10.00">map</text>
</a>
</g>
</g>
<!-- Node3&#45;&gt;Node4 -->
<g id="edge4_Node000003_Node000004" class="edge">
<title>Node3&#45;&gt;Node4</title>
<g id="a_edge4_Node000003_Node000004"><a xlink:title=" ">
<path fill="none" stroke="#63b8ff" d="M101.01,-164.98C116.97,-156.61 141.57,-143.7 160.16,-133.95"/>
<polygon fill="#63b8ff" stroke="#63b8ff" points="162.04,-136.92 169.26,-129.17 158.78,-130.72 162.04,-136.92"/>
</a>
</g>
</g>
<!-- Node5 -->
<g id="Node000005" class="node">
<title>Node5</title>
<g id="a_Node000005"><a xlink:href="BubbleSort_8hpp.html" target="_top" xlink:title=" ">
<polygon fill="white" stroke="#666666" points="148.79,-129 20.79,-129 20.79,-110 148.79,-110 148.79,-129"/>
<text text-anchor="middle" x="84.79" y="-117" font-family="Helvetica,sans-Serif" font-size="10.00">Sorters/BubbleSort.hpp</text>
</a>
</g>
</g>
<!-- Node3&#45;&gt;Node5 -->
<g id="edge5_Node000003_Node000005" class="edge">
<title>Node3&#45;&gt;Node5</title>
<g id="a_edge5_Node000003_Node000005"><a xlink:title=" ">
<path fill="none" stroke="#63b8ff" d="M84.79,-164.75C84.79,-157.8 84.79,-147.85 84.79,-139.13"/>
<polygon fill="#63b8ff" stroke="#63b8ff" points="88.29,-139.09 84.79,-129.09 81.29,-139.09 88.29,-139.09"/>
</a>
</g>
</g>
<!-- Node8 -->
<g id="Node000008" class="node">
<title>Node8</title>
<g id="a_Node000008"><a xlink:href="MergeSort_8hpp.html" target="_top" xlink:title=" ">
<polygon fill="white" stroke="#666666" points="348.29,-129 223.29,-129 223.29,-110 348.29,-110 348.29,-129"/>
<text text-anchor="middle" x="285.79" y="-117" font-family="Helvetica,sans-Serif" font-size="10.00">Sorters/MergeSort.hpp</text>
</a>
</g>
</g>
<!-- Node3&#45;&gt;Node8 -->
<g id="edge11_Node000003_Node000008" class="edge">
<title>Node3&#45;&gt;Node8</title>
<g id="a_edge11_Node000003_Node000008"><a xlink:title=" ">
<path fill="none" stroke="#63b8ff" d="M117.08,-164.98C151.41,-155.93 205.85,-141.58 243.56,-131.64"/>
<polygon fill="#63b8ff" stroke="#63b8ff" points="244.46,-135.02 253.24,-129.08 242.68,-128.25 244.46,-135.02"/>
</a>
</g>
</g>
<!-- Node5&#45;&gt;Node2 -->
<g id="edge6_Node000005_Node000002" class="edge">
<title>Node5&#45;&gt;Node2</title>
<g id="a_edge6_Node000005_Node000002"><a xlink:title=" ">
<path fill="none" stroke="#63b8ff" d="M79.71,-109.86C74.68,-101.06 67,-86.9 61.79,-74 55.85,-59.31 50.81,-42.06 47.41,-29.24"/>
<polygon fill="#63b8ff" stroke="#63b8ff" points="50.74,-28.12 44.87,-19.3 43.95,-29.86 50.74,-28.12"/>
</a>
</g>
</g>
<!-- Node6 -->
<g id="Node000006" class="node">
<title>Node6</title>
<g id="a_Node000006"><a xlink:href="Course_8hpp.html" target="_top" xlink:title=" ">
<polygon fill="white" stroke="#666666" points="244.29,-74 71.29,-74 71.29,-55 244.29,-55 244.29,-74"/>
<text text-anchor="middle" x="157.79" y="-62" font-family="Helvetica,sans-Serif" font-size="10.00">CourseManagement/Course.hpp</text>
</a>
</g>
</g>
<!-- Node5&#45;&gt;Node6 -->
<g id="edge7_Node000005_Node000006" class="edge">
<title>Node5&#45;&gt;Node6</title>
<g id="a_edge7_Node000005_Node000006"><a xlink:title=" ">
<path fill="none" stroke="#63b8ff" d="M96.52,-109.98C107.52,-102 124.21,-89.88 137.39,-80.31"/>
<polygon fill="#63b8ff" stroke="#63b8ff" points="139.81,-82.88 145.84,-74.17 135.7,-77.21 139.81,-82.88"/>
</a>
</g>
</g>
<!-- Node6&#45;&gt;Node2 -->
<g id="edge9_Node000006_Node000002" class="edge">
<title>Node6&#45;&gt;Node2</title>
<g id="a_edge9_Node000006_Node000002"><a xlink:title=" ">
<path fill="none" stroke="#63b8ff" d="M139.31,-54.98C120.81,-46.46 92.11,-33.23 70.8,-23.41"/>
<polygon fill="#63b8ff" stroke="#63b8ff" points="72.15,-20.18 61.6,-19.17 69.22,-26.53 72.15,-20.18"/>
</a>
</g>
</g>
<!-- Node7 -->
<g id="Node000007" class="node">
<title>Node7</title>
<g id="a_Node000007"><a xlink:title=" ">
<polygon fill="#e0e0e0" stroke="#999999" points="179.79,-19 135.79,-19 135.79,0 179.79,0 179.79,-19"/>
<text text-anchor="middle" x="157.79" y="-7" font-family="Helvetica,sans-Serif" font-size="10.00">string</text>
</a>
</g>
</g>
<!-- Node6&#45;&gt;Node7 -->
<g id="edge8_Node000006_Node000007" class="edge">
<title>Node6&#45;&gt;Node7</title>
<g id="a_edge8_Node000006_Node000007"><a xlink:title=" ">
<path fill="none" stroke="#63b8ff" d="M157.79,-54.75C157.79,-47.8 157.79,-37.85 157.79,-29.13"/>
<polygon fill="#63b8ff" stroke="#63b8ff" points="161.29,-29.09 157.79,-19.09 154.29,-29.09 161.29,-29.09"/>
</a>
</g>
</g>
<!-- Node8&#45;&gt;Node2 -->
<g id="edge12_Node000008_Node000002" class="edge">
<title>Node8&#45;&gt;Node2</title>
<g id="a_edge12_Node000008_Node000002"><a xlink:title=" ">
<path fill="none" stroke="#63b8ff" d="M284,-109.99C280.63,-96.18 271.98,-69 253.79,-55 226.45,-33.96 129.11,-20.15 76.73,-14.07"/>
<polygon fill="#63b8ff" stroke="#63b8ff" points="76.92,-10.56 66.59,-12.92 76.13,-17.52 76.92,-10.56"/>
</a>
</g>
</g>
<!-- Node8&#45;&gt;Node6 -->
<g id="edge13_Node000008_Node000006" class="edge">
<title>Node8&#45;&gt;Node6</title>
<g id="a_edge13_Node000008_Node000006"><a xlink:title=" ">
<path fill="none" stroke="#63b8ff" d="M265.22,-109.98C244.35,-101.34 211.82,-87.87 188.01,-78.02"/>
<polygon fill="#63b8ff" stroke="#63b8ff" points="189.3,-74.76 178.73,-74.17 186.63,-81.23 189.3,-74.76"/>
</a>
</g>
</g>
</g>
</svg>
