<?xml version="1.0" encoding="UTF-8" standalone="no"?>
<!DOCTYPE svg PUBLIC "-//W3C//DTD SVG 1.1//EN"
 "http://www.w3.org/Graphics/SVG/1.1/DTD/svg11.dtd">
<!-- Generated by graphviz version 2.43.0 (0)
 -->
<!-- Title: include/Sorters/QuickSort.hpp Pages: 1 -->
<svg width="238pt" height="148pt"
 viewBox="0.00 0.00 237.50 148.00" xmlns="http://www.w3.org/2000/svg" xmlns:xlink="http://www.w3.org/1999/xlink">
<g id="graph0" class="graph" transform="scale(1 1) rotate(0) translate(4 144)">
<title>include/Sorters/QuickSort.hpp</title>
<!-- Node1 -->
<g id="Node000001" class="node">
<title>Node1</title>
<g id="a_Node000001"><a xlink:title=" ">
<polygon fill="#999999" stroke="#666666" points="208.5,-140 47.5,-140 47.5,-121 208.5,-121 208.5,-140"/>
<text text-anchor="middle" x="128" y="-128" font-family="Helvetica,sans-Serif" font-size="10.00">include/Sorters/QuickSort.hpp</text>
</a>
</g>
</g>
<!-- Node2 -->
<g id="Node000002" class="node">
<title>Node2</title>
<g id="a_Node000002"><a xlink:href="Sorter_8hpp.html" target="_top" xlink:title=" ">
<polygon fill="white" stroke="#666666" points="199,-85 57,-85 57,-66 199,-66 199,-85"/>
<text text-anchor="middle" x="128" y="-73" font-family="Helvetica,sans-Serif" font-size="10.00">include/Sorters/Sorter.hpp</text>
</a>
</g>
</g>
<!-- Node1&#45;&gt;Node2 -->
<g id="edge1_Node000001_Node000002" class="edge">
<title>Node1&#45;&gt;Node2</title>
<g id="a_edge1_Node000001_Node000002"><a xlink:title=" ">
<path fill="none" stroke="#63b8ff" d="M121.51,-110.66C120.91,-101.93 121.36,-91.99 122.87,-85.09"/>
<polygon fill="#63b8ff" stroke="#63b8ff" points="118.06,-111.29 122.83,-120.75 125,-110.38 118.06,-111.29"/>
</a>
</g>
</g>
<!-- Node2&#45;&gt;Node1 -->
<g id="edge2_Node000002_Node000001" class="edge">
<title>Node2&#45;&gt;Node1</title>
<g id="a_edge2_Node000002_Node000001"><a xlink:title=" ">
<path fill="none" stroke="#63b8ff" d="M134.48,-95.13C135.1,-103.85 134.66,-113.8 133.17,-120.75"/>
<polygon fill="#63b8ff" stroke="#63b8ff" points="137.93,-94.53 133.13,-85.09 130.99,-95.47 137.93,-94.53"/>
</a>
</g>
</g>
<!-- Node3 -->
<g id="Node000003" class="node">
<title>Node3</title>
<g id="a_Node000003"><a xlink:href="CourseManager_8cpp.html" target="_top" xlink:title=" ">
<polygon fill="white" stroke="#666666" points="132,-30 0,-30 0,0 132,0 132,-30"/>
<text text-anchor="start" x="8" y="-18" font-family="Helvetica,sans-Serif" font-size="10.00">src/CourseManagement</text>
<text text-anchor="middle" x="66" y="-7" font-family="Helvetica,sans-Serif" font-size="10.00">/CourseManager.cpp</text>
</a>
</g>
</g>
<!-- Node2&#45;&gt;Node3 -->
<g id="edge3_Node000002_Node000003" class="edge">
<title>Node2&#45;&gt;Node3</title>
<g id="a_edge3_Node000002_Node000003"><a xlink:title=" ">
<path fill="none" stroke="#63b8ff" d="M111.54,-58.97C102.04,-50.01 90.19,-38.82 80.96,-30.11"/>
<polygon fill="#63b8ff" stroke="#63b8ff" points="109.18,-61.55 118.85,-65.87 113.98,-56.46 109.18,-61.55"/>
</a>
</g>
</g>
<!-- Node4 -->
<g id="Node000004" class="node">
<title>Node4</title>
<g id="a_Node000004"><a xlink:href="main_8cpp.html" target="_top" xlink:title=" ">
<polygon fill="white" stroke="#666666" points="229.5,-24.5 150.5,-24.5 150.5,-5.5 229.5,-5.5 229.5,-24.5"/>
<text text-anchor="middle" x="190" y="-12.5" font-family="Helvetica,sans-Serif" font-size="10.00">src/main.cpp</text>
</a>
</g>
</g>
<!-- Node2&#45;&gt;Node4 -->
<g id="edge4_Node000002_Node000004" class="edge">
<title>Node2&#45;&gt;Node4</title>
<g id="a_edge4_Node000002_Node000004"><a xlink:title=" ">
<path fill="none" stroke="#63b8ff" d="M144.52,-58.91C156.15,-47.94 171.28,-33.67 180.81,-24.67"/>
<polygon fill="#63b8ff" stroke="#63b8ff" points="142.02,-56.46 137.15,-65.87 146.82,-61.55 142.02,-56.46"/>
</a>
</g>
</g>
</g>
</svg>
