<?xml version="1.0" encoding="UTF-8" standalone="no"?>
<!DOCTYPE svg PUBLIC "-//W3C//DTD SVG 1.1//EN"
 "http://www.w3.org/Graphics/SVG/1.1/DTD/svg11.dtd">
<!-- Generated by graphviz version 2.43.0 (0)
 -->
<!-- Title: include/Sorters/Sorter.hpp Pages: 1 -->
<svg width="493pt" height="192pt"
 viewBox="0.00 0.00 493.04 192.00" xmlns="http://www.w3.org/2000/svg" xmlns:xlink="http://www.w3.org/1999/xlink">
<g id="graph0" class="graph" transform="scale(1 1) rotate(0) translate(4 188)">
<title>include/Sorters/Sorter.hpp</title>
<!-- Node1 -->
<g id="Node000001" class="node">
<title>Node1</title>
<g id="a_Node000001"><a xlink:title=" ">
<polygon fill="#999999" stroke="#666666" points="220.04,-184 78.04,-184 78.04,-165 220.04,-165 220.04,-184"/>
<text text-anchor="middle" x="149.04" y="-172" font-family="Helvetica,sans-Serif" font-size="10.00">include/Sorters/Sorter.hpp</text>
</a>
</g>
</g>
<!-- Node2 -->
<g id="Node000002" class="node">
<title>Node2</title>
<g id="a_Node000002"><a xlink:title=" ">
<polygon fill="#e0e0e0" stroke="#999999" points="151.54,-19 104.54,-19 104.54,0 151.54,0 151.54,-19"/>
<text text-anchor="middle" x="128.04" y="-7" font-family="Helvetica,sans-Serif" font-size="10.00">vector</text>
</a>
</g>
</g>
<!-- Node1&#45;&gt;Node2 -->
<g id="edge1_Node000001_Node000002" class="edge">
<title>Node1&#45;&gt;Node2</title>
<g id="a_edge1_Node000001_Node000002"><a xlink:title=" ">
<path fill="none" stroke="#63b8ff" d="M77.85,-168.34C51.58,-162.56 24.28,-151.15 8.04,-129 -23.73,-85.66 51.74,-43.56 97,-23.19"/>
<polygon fill="#63b8ff" stroke="#63b8ff" points="98.67,-26.28 106.43,-19.07 95.86,-19.87 98.67,-26.28"/>
</a>
</g>
</g>
<!-- Node3 -->
<g id="Node000003" class="node">
<title>Node3</title>
<g id="a_Node000003"><a xlink:title=" ">
<polygon fill="#e0e0e0" stroke="#999999" points="485.04,-129 447.04,-129 447.04,-110 485.04,-110 485.04,-129"/>
<text text-anchor="middle" x="466.04" y="-117" font-family="Helvetica,sans-Serif" font-size="10.00">map</text>
</a>
</g>
</g>
<!-- Node1&#45;&gt;Node3 -->
<g id="edge2_Node000001_Node000003" class="edge">
<title>Node1&#45;&gt;Node3</title>
<g id="a_edge2_Node000001_Node000003"><a xlink:title=" ">
<path fill="none" stroke="#63b8ff" d="M220.24,-165.4C276.65,-158.32 357.57,-146.73 436.72,-129.02"/>
<polygon fill="#63b8ff" stroke="#63b8ff" points="437.89,-132.34 446.86,-126.72 436.33,-125.52 437.89,-132.34"/>
</a>
</g>
</g>
<!-- Node4 -->
<g id="Node000004" class="node">
<title>Node4</title>
<g id="a_Node000004"><a xlink:href="BubbleSort_8hpp.html" target="_top" xlink:title=" ">
<polygon fill="white" stroke="#666666" points="285.04,-129 157.04,-129 157.04,-110 285.04,-110 285.04,-129"/>
<text text-anchor="middle" x="221.04" y="-117" font-family="Helvetica,sans-Serif" font-size="10.00">Sorters/BubbleSort.hpp</text>
</a>
</g>
</g>
<!-- Node1&#45;&gt;Node4 -->
<g id="edge3_Node000001_Node000004" class="edge">
<title>Node1&#45;&gt;Node4</title>
<g id="a_edge3_Node000001_Node000004"><a xlink:title=" ">
<path fill="none" stroke="#63b8ff" d="M160.61,-164.98C171.46,-157 187.92,-144.88 200.93,-135.31"/>
<polygon fill="#63b8ff" stroke="#63b8ff" points="203.29,-137.92 209.27,-129.17 199.14,-132.28 203.29,-137.92"/>
</a>
</g>
</g>
<!-- Node7 -->
<g id="Node000007" class="node">
<title>Node7</title>
<g id="a_Node000007"><a xlink:href="QuickSort_8hpp.html" target="_top" xlink:title=" ">
<polygon fill="white" stroke="#666666" points="139.04,-129 17.04,-129 17.04,-110 139.04,-110 139.04,-129"/>
<text text-anchor="middle" x="78.04" y="-117" font-family="Helvetica,sans-Serif" font-size="10.00">Sorters/QuickSort.hpp</text>
</a>
</g>
</g>
<!-- Node1&#45;&gt;Node7 -->
<g id="edge8_Node000001_Node000007" class="edge">
<title>Node1&#45;&gt;Node7</title>
<g id="a_edge8_Node000001_Node000007"><a xlink:title=" ">
<path fill="none" stroke="#63b8ff" d="M132.52,-164.98C120.3,-157.15 104.12,-145.34 92.44,-135.86"/>
<polygon fill="#63b8ff" stroke="#63b8ff" points="94.41,-132.95 84.51,-129.17 89.89,-138.3 94.41,-132.95"/>
</a>
</g>
</g>
<!-- Node8 -->
<g id="Node000008" class="node">
<title>Node8</title>
<g id="a_Node000008"><a xlink:href="MergeSort_8hpp.html" target="_top" xlink:title=" ">
<polygon fill="white" stroke="#666666" points="428.54,-129 303.54,-129 303.54,-110 428.54,-110 428.54,-129"/>
<text text-anchor="middle" x="366.04" y="-117" font-family="Helvetica,sans-Serif" font-size="10.00">Sorters/MergeSort.hpp</text>
</a>
</g>
</g>
<!-- Node1&#45;&gt;Node8 -->
<g id="edge11_Node000001_Node000008" class="edge">
<title>Node1&#45;&gt;Node8</title>
<g id="a_edge11_Node000001_Node000008"><a xlink:title=" ">
<path fill="none" stroke="#63b8ff" d="M183.91,-164.98C221.13,-155.89 280.24,-141.46 320.97,-131.51"/>
<polygon fill="#63b8ff" stroke="#63b8ff" points="322.02,-134.85 330.91,-129.08 320.36,-128.05 322.02,-134.85"/>
</a>
</g>
</g>
<!-- Node4&#45;&gt;Node2 -->
<g id="edge4_Node000004_Node000002" class="edge">
<title>Node4&#45;&gt;Node2</title>
<g id="a_edge4_Node000004_Node000002"><a xlink:title=" ">
<path fill="none" stroke="#63b8ff" d="M198.58,-109.91C182.37,-102.64 161.13,-90.71 148.04,-74 137.91,-61.06 132.87,-42.9 130.38,-29.32"/>
<polygon fill="#63b8ff" stroke="#63b8ff" points="133.81,-28.56 128.84,-19.2 126.89,-29.61 133.81,-28.56"/>
</a>
</g>
</g>
<!-- Node5 -->
<g id="Node000005" class="node">
<title>Node5</title>
<g id="a_Node000005"><a xlink:href="Course_8hpp.html" target="_top" xlink:title=" ">
<polygon fill="white" stroke="#666666" points="329.54,-74 156.54,-74 156.54,-55 329.54,-55 329.54,-74"/>
<text text-anchor="middle" x="243.04" y="-62" font-family="Helvetica,sans-Serif" font-size="10.00">CourseManagement/Course.hpp</text>
</a>
</g>
</g>
<!-- Node4&#45;&gt;Node5 -->
<g id="edge5_Node000004_Node000005" class="edge">
<title>Node4&#45;&gt;Node5</title>
<g id="a_edge5_Node000004_Node000005"><a xlink:title=" ">
<path fill="none" stroke="#63b8ff" d="M224.68,-109.75C227.62,-102.65 231.88,-92.4 235.55,-83.56"/>
<polygon fill="#63b8ff" stroke="#63b8ff" points="238.88,-84.67 239.48,-74.09 232.41,-81.98 238.88,-84.67"/>
</a>
</g>
</g>
<!-- Node5&#45;&gt;Node2 -->
<g id="edge7_Node000005_Node000002" class="edge">
<title>Node5&#45;&gt;Node2</title>
<g id="a_edge7_Node000005_Node000002"><a xlink:title=" ">
<path fill="none" stroke="#63b8ff" d="M224.57,-54.98C206.07,-46.46 177.36,-33.23 156.06,-23.41"/>
<polygon fill="#63b8ff" stroke="#63b8ff" points="157.4,-20.18 146.86,-19.17 154.47,-26.53 157.4,-20.18"/>
</a>
</g>
</g>
<!-- Node6 -->
<g id="Node000006" class="node">
<title>Node6</title>
<g id="a_Node000006"><a xlink:title=" ">
<polygon fill="#e0e0e0" stroke="#999999" points="265.04,-19 221.04,-19 221.04,0 265.04,0 265.04,-19"/>
<text text-anchor="middle" x="243.04" y="-7" font-family="Helvetica,sans-Serif" font-size="10.00">string</text>
</a>
</g>
</g>
<!-- Node5&#45;&gt;Node6 -->
<g id="edge6_Node000005_Node000006" class="edge">
<title>Node5&#45;&gt;Node6</title>
<g id="a_edge6_Node000005_Node000006"><a xlink:title=" ">
<path fill="none" stroke="#63b8ff" d="M243.04,-54.75C243.04,-47.8 243.04,-37.85 243.04,-29.13"/>
<polygon fill="#63b8ff" stroke="#63b8ff" points="246.54,-29.09 243.04,-19.09 239.54,-29.09 246.54,-29.09"/>
</a>
</g>
</g>
<!-- Node7&#45;&gt;Node1 -->
<g id="edge10_Node000007_Node000001" class="edge">
<title>Node7&#45;&gt;Node1</title>
<g id="a_edge10_Node000007_Node000001"><a xlink:title=" ">
<path fill="none" stroke="#63b8ff" d="M94.81,-129.17C107.08,-137.06 123.25,-148.87 134.88,-158.32"/>
<polygon fill="#63b8ff" stroke="#63b8ff" points="132.86,-161.19 142.75,-164.98 137.38,-155.85 132.86,-161.19"/>
</a>
</g>
</g>
<!-- Node7&#45;&gt;Node2 -->
<g id="edge9_Node000007_Node000002" class="edge">
<title>Node7&#45;&gt;Node2</title>
<g id="a_edge9_Node000007_Node000002"><a xlink:title=" ">
<path fill="none" stroke="#63b8ff" d="M82.14,-109.66C90.34,-91.93 108.96,-51.73 119.79,-28.32"/>
<polygon fill="#63b8ff" stroke="#63b8ff" points="123.01,-29.7 124.04,-19.16 116.66,-26.76 123.01,-29.7"/>
</a>
</g>
</g>
<!-- Node8&#45;&gt;Node2 -->
<g id="edge12_Node000008_Node000002" class="edge">
<title>Node8&#45;&gt;Node2</title>
<g id="a_edge12_Node000008_Node000002"><a xlink:title=" ">
<path fill="none" stroke="#63b8ff" d="M364.88,-109.58C362.57,-95.68 356.07,-69 339.04,-55 312.33,-33.03 214.26,-19.59 161.76,-13.82"/>
<polygon fill="#63b8ff" stroke="#63b8ff" points="161.91,-10.31 151.59,-12.73 161.16,-17.27 161.91,-10.31"/>
</a>
</g>
</g>
<!-- Node8&#45;&gt;Node5 -->
<g id="edge13_Node000008_Node000005" class="edge">
<title>Node8&#45;&gt;Node5</title>
<g id="a_edge13_Node000008_Node000005"><a xlink:title=" ">
<path fill="none" stroke="#63b8ff" d="M346.28,-109.98C326.32,-101.38 295.24,-87.99 272.4,-78.15"/>
<polygon fill="#63b8ff" stroke="#63b8ff" points="273.73,-74.91 263.17,-74.17 270.96,-81.34 273.73,-74.91"/>
</a>
</g>
</g>
</g>
</svg>
