<?xml version="1.0" encoding="UTF-8" standalone="no"?>
<!DOCTYPE svg PUBLIC "-//W3C//DTD SVG 1.1//EN"
 "http://www.w3.org/Graphics/SVG/1.1/DTD/svg11.dtd">
<!-- Generated by graphviz version 2.43.0 (0)
 -->
<!-- Title: src/ValidationTools/Validator.hpp Pages: 1 -->
<svg width="274pt" height="170pt"
 viewBox="0.00 0.00 273.50 170.00" xmlns="http://www.w3.org/2000/svg" xmlns:xlink="http://www.w3.org/1999/xlink">
<g id="graph0" class="graph" transform="scale(1 1) rotate(0) translate(4 166)">
<title>src/ValidationTools/Validator.hpp</title>
<!-- Node1 -->
<g id="Node000001" class="node">
<title>Node1</title>
<g id="a_Node000001"><a xlink:title=" ">
<polygon fill="#999999" stroke="#666666" points="171.5,-162 64.5,-162 64.5,-132 171.5,-132 171.5,-162"/>
<text text-anchor="start" x="72.5" y="-150" font-family="Helvetica,sans-Serif" font-size="10.00">src/ValidationTools</text>
<text text-anchor="middle" x="118" y="-139" font-family="Helvetica,sans-Serif" font-size="10.00">/Validator.hpp</text>
</a>
</g>
</g>
<!-- Node2 -->
<g id="Node000002" class="node">
<title>Node2</title>
<g id="a_Node000002"><a xlink:href="CourseManager_8hpp.html" target="_top" xlink:title=" ">
<polygon fill="white" stroke="#666666" points="247.5,-96 94.5,-96 94.5,-66 247.5,-66 247.5,-96"/>
<text text-anchor="start" x="102.5" y="-84" font-family="Helvetica,sans-Serif" font-size="10.00">include/CourseManagement</text>
<text text-anchor="middle" x="171" y="-73" font-family="Helvetica,sans-Serif" font-size="10.00">/CourseManager.hpp</text>
</a>
</g>
</g>
<!-- Node1&#45;&gt;Node2 -->
<g id="edge1_Node000001_Node000002" class="edge">
<title>Node1&#45;&gt;Node2</title>
<g id="a_edge1_Node000001_Node000002"><a xlink:title=" ">
<path fill="none" stroke="#63b8ff" d="M136.15,-124.09C143.8,-114.85 152.48,-104.36 159.27,-96.16"/>
<polygon fill="#63b8ff" stroke="#63b8ff" points="133.44,-121.86 129.76,-131.8 138.84,-126.33 133.44,-121.86"/>
</a>
</g>
</g>
<!-- Node3 -->
<g id="Node000003" class="node">
<title>Node3</title>
<g id="a_Node000003"><a xlink:href="CourseManager_8cpp.html" target="_top" xlink:title=" ">
<polygon fill="white" stroke="#666666" points="132,-30 0,-30 0,0 132,0 132,-30"/>
<text text-anchor="start" x="8" y="-18" font-family="Helvetica,sans-Serif" font-size="10.00">src/CourseManagement</text>
<text text-anchor="middle" x="66" y="-7" font-family="Helvetica,sans-Serif" font-size="10.00">/CourseManager.cpp</text>
</a>
</g>
</g>
<!-- Node1&#45;&gt;Node3 -->
<g id="edge5_Node000001_Node000003" class="edge">
<title>Node1&#45;&gt;Node3</title>
<g id="a_edge5_Node000001_Node000003"><a xlink:title=" ">
<path fill="none" stroke="#63b8ff" d="M100.75,-123.53C95.05,-115.24 89.12,-105.53 85,-96 75.48,-73.99 70.27,-46.41 67.82,-30.06"/>
<polygon fill="#63b8ff" stroke="#63b8ff" points="98.08,-125.81 106.75,-131.9 103.77,-121.73 98.08,-125.81"/>
</a>
</g>
</g>
<!-- Node2&#45;&gt;Node2 -->
<g id="edge2_Node000002_Node000002" class="edge">
<title>Node2&#45;&gt;Node2</title>
<g id="a_edge2_Node000002_Node000002"><a xlink:title=" ">
<path fill="none" stroke="#63b8ff" d="M257.69,-89.36C262.58,-87.34 265.5,-84.55 265.5,-81 265.5,-75.46 258.39,-71.78 247.75,-69.96"/>
<polygon fill="#63b8ff" stroke="#63b8ff" points="256.5,-86.06 247.75,-92.04 258.32,-92.82 256.5,-86.06"/>
</a>
</g>
</g>
<!-- Node2&#45;&gt;Node3 -->
<g id="edge3_Node000002_Node000003" class="edge">
<title>Node2&#45;&gt;Node3</title>
<g id="a_edge3_Node000002_Node000003"><a xlink:title=" ">
<path fill="none" stroke="#63b8ff" d="M139.33,-60.69C123.12,-50.82 103.75,-39.01 88.99,-30.01"/>
<polygon fill="#63b8ff" stroke="#63b8ff" points="137.6,-63.74 147.96,-65.95 141.24,-57.76 137.6,-63.74"/>
</a>
</g>
</g>
<!-- Node4 -->
<g id="Node000004" class="node">
<title>Node4</title>
<g id="a_Node000004"><a xlink:href="main_8cpp.html" target="_top" xlink:title=" ">
<polygon fill="white" stroke="#666666" points="229.5,-24.5 150.5,-24.5 150.5,-5.5 229.5,-5.5 229.5,-24.5"/>
<text text-anchor="middle" x="190" y="-12.5" font-family="Helvetica,sans-Serif" font-size="10.00">src/main.cpp</text>
</a>
</g>
</g>
<!-- Node2&#45;&gt;Node4 -->
<g id="edge4_Node000002_Node000004" class="edge">
<title>Node2&#45;&gt;Node4</title>
<g id="a_edge4_Node000002_Node000004"><a xlink:title=" ">
<path fill="none" stroke="#63b8ff" d="M178.14,-55.94C181.37,-45.06 184.99,-32.86 187.37,-24.84"/>
<polygon fill="#63b8ff" stroke="#63b8ff" points="174.71,-55.21 175.22,-65.8 181.42,-57.21 174.71,-55.21"/>
</a>
</g>
</g>
</g>
</svg>
