<?xml version="1.0" encoding="UTF-8" standalone="no"?>
<!DOCTYPE svg PUBLIC "-//W3C//DTD SVG 1.1//EN"
 "http://www.w3.org/Graphics/SVG/1.1/DTD/svg11.dtd">
<!-- Generated by graphviz version 2.43.0 (0)
 -->
<!-- Title: src/ValidationTools/Validator.cpp Pages: 1 -->
<svg width="665pt" height="148pt"
 viewBox="0.00 0.00 665.40 148.00" xmlns="http://www.w3.org/2000/svg" xmlns:xlink="http://www.w3.org/1999/xlink">
<g id="graph0" class="graph" transform="scale(1 1) rotate(0) translate(4 144)">
<title>src/ValidationTools/Validator.cpp</title>
<!-- Node1 -->
<g id="Node000001" class="node">
<title>Node1</title>
<g id="a_Node000001"><a xlink:title=" ">
<polygon fill="#999999" stroke="#666666" points="334.4,-140 227.4,-140 227.4,-110 334.4,-110 334.4,-140"/>
<text text-anchor="start" x="235.4" y="-128" font-family="Helvetica,sans-Serif" font-size="10.00">src/ValidationTools</text>
<text text-anchor="middle" x="280.9" y="-117" font-family="Helvetica,sans-Serif" font-size="10.00">/Validator.cpp</text>
</a>
</g>
</g>
<!-- Node2 -->
<g id="Node000002" class="node">
<title>Node2</title>
<g id="a_Node000002"><a xlink:title=" ">
<polygon fill="#e0e0e0" stroke="#999999" points="65.9,-19 5.9,-19 5.9,0 65.9,0 65.9,-19"/>
<text text-anchor="middle" x="35.9" y="-7" font-family="Helvetica,sans-Serif" font-size="10.00">iostream</text>
</a>
</g>
</g>
<!-- Node1&#45;&gt;Node2 -->
<g id="edge1_Node000001_Node000002" class="edge">
<title>Node1&#45;&gt;Node2</title>
<g id="a_edge1_Node000001_Node000002"><a xlink:title=" ">
<path fill="none" stroke="#63b8ff" d="M227.38,-122.17C155.26,-118.44 32.68,-107.27 4.9,-74 -7.06,-59.67 6.14,-39.95 18.83,-26.3"/>
<polygon fill="#63b8ff" stroke="#63b8ff" points="21.47,-28.61 26.04,-19.05 16.5,-23.67 21.47,-28.61"/>
</a>
</g>
</g>
<!-- Node3 -->
<g id="Node000003" class="node">
<title>Node3</title>
<g id="a_Node000003"><a xlink:title=" ">
<polygon fill="#e0e0e0" stroke="#999999" points="147.4,-19 92.4,-19 92.4,0 147.4,0 147.4,-19"/>
<text text-anchor="middle" x="119.9" y="-7" font-family="Helvetica,sans-Serif" font-size="10.00">fstream</text>
</a>
</g>
</g>
<!-- Node1&#45;&gt;Node3 -->
<g id="edge2_Node000001_Node000003" class="edge">
<title>Node1&#45;&gt;Node3</title>
<g id="a_edge2_Node000001_Node000003"><a xlink:title=" ">
<path fill="none" stroke="#63b8ff" d="M272.42,-109.84C262.63,-94.54 245.24,-70.3 224.9,-55 204.69,-39.79 178.5,-28.68 157.33,-21.36"/>
<polygon fill="#63b8ff" stroke="#63b8ff" points="158.29,-17.99 147.69,-18.17 156.09,-24.64 158.29,-17.99"/>
</a>
</g>
</g>
<!-- Node4 -->
<g id="Node000004" class="node">
<title>Node4</title>
<g id="a_Node000004"><a xlink:title=" ">
<polygon fill="#e0e0e0" stroke="#999999" points="215.9,-74 159.9,-74 159.9,-55 215.9,-55 215.9,-74"/>
<text text-anchor="middle" x="187.9" y="-62" font-family="Helvetica,sans-Serif" font-size="10.00">sstream</text>
</a>
</g>
</g>
<!-- Node1&#45;&gt;Node4 -->
<g id="edge3_Node000001_Node000004" class="edge">
<title>Node1&#45;&gt;Node4</title>
<g id="a_edge3_Node000001_Node000004"><a xlink:title=" ">
<path fill="none" stroke="#63b8ff" d="M258.39,-109.84C243.84,-100.68 224.97,-88.82 210.42,-79.66"/>
<polygon fill="#63b8ff" stroke="#63b8ff" points="211.89,-76.46 201.56,-74.09 208.17,-82.38 211.89,-76.46"/>
</a>
</g>
</g>
<!-- Node5 -->
<g id="Node000005" class="node">
<title>Node5</title>
<g id="a_Node000005"><a xlink:title=" ">
<polygon fill="#e0e0e0" stroke="#999999" points="504.4,-19 457.4,-19 457.4,0 504.4,0 504.4,-19"/>
<text text-anchor="middle" x="480.9" y="-7" font-family="Helvetica,sans-Serif" font-size="10.00">vector</text>
</a>
</g>
</g>
<!-- Node1&#45;&gt;Node5 -->
<g id="edge4_Node000001_Node000005" class="edge">
<title>Node1&#45;&gt;Node5</title>
<g id="a_edge4_Node000001_Node000005"><a xlink:title=" ">
<path fill="none" stroke="#63b8ff" d="M334.75,-115.74C366.81,-108.75 406.96,-96.18 436.9,-74 452.86,-62.18 465.08,-42.79 472.54,-28.54"/>
<polygon fill="#63b8ff" stroke="#63b8ff" points="475.84,-29.77 477.12,-19.26 469.56,-26.68 475.84,-29.77"/>
</a>
</g>
</g>
<!-- Node6 -->
<g id="Node000006" class="node">
<title>Node6</title>
<g id="a_Node000006"><a xlink:title=" ">
<polygon fill="#e0e0e0" stroke="#999999" points="365.4,-74 272.4,-74 272.4,-55 365.4,-55 365.4,-74"/>
<text text-anchor="middle" x="318.9" y="-62" font-family="Helvetica,sans-Serif" font-size="10.00">unordered_map</text>
</a>
</g>
</g>
<!-- Node1&#45;&gt;Node6 -->
<g id="edge5_Node000001_Node000006" class="edge">
<title>Node1&#45;&gt;Node6</title>
<g id="a_edge5_Node000001_Node000006"><a xlink:title=" ">
<path fill="none" stroke="#63b8ff" d="M290.1,-109.84C295.39,-101.69 302.08,-91.4 307.68,-82.78"/>
<polygon fill="#63b8ff" stroke="#63b8ff" points="310.69,-84.56 313.21,-74.27 304.82,-80.75 310.69,-84.56"/>
</a>
</g>
</g>
<!-- Node7 -->
<g id="Node000007" class="node">
<title>Node7</title>
<g id="a_Node000007"><a xlink:title=" ">
<polygon fill="#e0e0e0" stroke="#999999" points="427.9,-74 383.9,-74 383.9,-55 427.9,-55 427.9,-74"/>
<text text-anchor="middle" x="405.9" y="-62" font-family="Helvetica,sans-Serif" font-size="10.00">limits</text>
</a>
</g>
</g>
<!-- Node1&#45;&gt;Node7 -->
<g id="edge6_Node000001_Node000007" class="edge">
<title>Node1&#45;&gt;Node7</title>
<g id="a_edge6_Node000001_Node000007"><a xlink:title=" ">
<path fill="none" stroke="#63b8ff" d="M310.84,-109.99C331.32,-100.4 358.28,-87.79 378.26,-78.44"/>
<polygon fill="#63b8ff" stroke="#63b8ff" points="379.87,-81.55 387.44,-74.14 376.9,-75.21 379.87,-81.55"/>
</a>
</g>
</g>
<!-- Node8 -->
<g id="Node000008" class="node">
<title>Node8</title>
<g id="a_Node000008"><a xlink:href="Course_8hpp.html" target="_top" xlink:title=" ">
<polygon fill="white" stroke="#666666" points="657.4,-74 484.4,-74 484.4,-55 657.4,-55 657.4,-74"/>
<text text-anchor="middle" x="570.9" y="-62" font-family="Helvetica,sans-Serif" font-size="10.00">CourseManagement/Course.hpp</text>
</a>
</g>
</g>
<!-- Node1&#45;&gt;Node8 -->
<g id="edge7_Node000001_Node000008" class="edge">
<title>Node1&#45;&gt;Node8</title>
<g id="a_edge7_Node000001_Node000008"><a xlink:title=" ">
<path fill="none" stroke="#63b8ff" d="M334.43,-113.2C386.9,-102.62 466.39,-86.58 518.48,-76.07"/>
<polygon fill="#63b8ff" stroke="#63b8ff" points="519.41,-79.46 528.52,-74.05 518.02,-72.6 519.41,-79.46"/>
</a>
</g>
</g>
<!-- Node10 -->
<g id="Node000010" class="node">
<title>Node10</title>
<g id="a_Node000010"><a xlink:href="Err_8hpp.html" target="_top" xlink:title=" ">
<polygon fill="white" stroke="#666666" points="141.4,-74 14.4,-74 14.4,-55 141.4,-55 141.4,-74"/>
<text text-anchor="middle" x="77.9" y="-62" font-family="Helvetica,sans-Serif" font-size="10.00">ValidationTools/Err.hpp</text>
</a>
</g>
</g>
<!-- Node1&#45;&gt;Node10 -->
<g id="edge10_Node000001_Node000010" class="edge">
<title>Node1&#45;&gt;Node10</title>
<g id="a_edge10_Node000001_Node000010"><a xlink:title=" ">
<path fill="none" stroke="#63b8ff" d="M232.28,-109.99C197.09,-99.85 150.15,-86.32 117.3,-76.85"/>
<polygon fill="#63b8ff" stroke="#63b8ff" points="118.16,-73.46 107.58,-74.05 116.22,-80.19 118.16,-73.46"/>
</a>
</g>
</g>
<!-- Node8&#45;&gt;Node5 -->
<g id="edge9_Node000008_Node000005" class="edge">
<title>Node8&#45;&gt;Node5</title>
<g id="a_edge9_Node000008_Node000005"><a xlink:title=" ">
<path fill="none" stroke="#63b8ff" d="M556.44,-54.98C542.48,-46.77 521.11,-34.18 504.65,-24.49"/>
<polygon fill="#63b8ff" stroke="#63b8ff" points="506.02,-21.23 495.62,-19.17 502.47,-27.26 506.02,-21.23"/>
</a>
</g>
</g>
<!-- Node9 -->
<g id="Node000009" class="node">
<title>Node9</title>
<g id="a_Node000009"><a xlink:title=" ">
<polygon fill="#e0e0e0" stroke="#999999" points="592.9,-19 548.9,-19 548.9,0 592.9,0 592.9,-19"/>
<text text-anchor="middle" x="570.9" y="-7" font-family="Helvetica,sans-Serif" font-size="10.00">string</text>
</a>
</g>
</g>
<!-- Node8&#45;&gt;Node9 -->
<g id="edge8_Node000008_Node000009" class="edge">
<title>Node8&#45;&gt;Node9</title>
<g id="a_edge8_Node000008_Node000009"><a xlink:title=" ">
<path fill="none" stroke="#63b8ff" d="M570.9,-54.75C570.9,-47.8 570.9,-37.85 570.9,-29.13"/>
<polygon fill="#63b8ff" stroke="#63b8ff" points="574.4,-29.09 570.9,-19.09 567.4,-29.09 574.4,-29.09"/>
</a>
</g>
</g>
<!-- Node10&#45;&gt;Node2 -->
<g id="edge11_Node000010_Node000002" class="edge">
<title>Node10&#45;&gt;Node2</title>
<g id="a_edge11_Node000010_Node000002"><a xlink:title=" ">
<path fill="none" stroke="#63b8ff" d="M70.97,-54.75C65.03,-47.26 56.33,-36.28 49.08,-27.13"/>
<polygon fill="#63b8ff" stroke="#63b8ff" points="51.66,-24.75 42.71,-19.09 46.18,-29.1 51.66,-24.75"/>
</a>
</g>
</g>
<!-- Node10&#45;&gt;Node3 -->
<g id="edge12_Node000010_Node000003" class="edge">
<title>Node10&#45;&gt;Node3</title>
<g id="a_edge12_Node000010_Node000003"><a xlink:title=" ">
<path fill="none" stroke="#63b8ff" d="M84.84,-54.75C90.77,-47.26 99.47,-36.28 106.73,-27.13"/>
<polygon fill="#63b8ff" stroke="#63b8ff" points="109.63,-29.1 113.09,-19.09 104.14,-24.75 109.63,-29.1"/>
</a>
</g>
</g>
</g>
</svg>
