<?xml version="1.0" encoding="UTF-8" standalone="no"?>
<!DOCTYPE svg PUBLIC "-//W3C//DTD SVG 1.1//EN"
 "http://www.w3.org/Graphics/SVG/1.1/DTD/svg11.dtd">
<!-- Generated by graphviz version 2.43.0 (0)
 -->
<!-- Title: src/ValidationTools/Validator.hpp Pages: 1 -->
<svg width="322pt" height="148pt"
 viewBox="0.00 0.00 321.81 148.00" xmlns="http://www.w3.org/2000/svg" xmlns:xlink="http://www.w3.org/1999/xlink">
<g id="graph0" class="graph" transform="scale(1 1) rotate(0) translate(4 144)">
<title>src/ValidationTools/Validator.hpp</title>
<!-- Node1 -->
<g id="Node000001" class="node">
<title>Node1</title>
<g id="a_Node000001"><a xlink:title=" ">
<polygon fill="#999999" stroke="#666666" points="228.88,-140 121.88,-140 121.88,-110 228.88,-110 228.88,-140"/>
<text text-anchor="start" x="129.88" y="-128" font-family="Helvetica,sans-Serif" font-size="10.00">src/ValidationTools</text>
<text text-anchor="middle" x="175.38" y="-117" font-family="Helvetica,sans-Serif" font-size="10.00">/Validator.hpp</text>
</a>
</g>
</g>
<!-- Node2 -->
<g id="Node000002" class="node">
<title>Node2</title>
<g id="a_Node000002"><a xlink:title=" ">
<polygon fill="#e0e0e0" stroke="#999999" points="77.38,-19 33.38,-19 33.38,0 77.38,0 77.38,-19"/>
<text text-anchor="middle" x="55.38" y="-7" font-family="Helvetica,sans-Serif" font-size="10.00">string</text>
</a>
</g>
</g>
<!-- Node1&#45;&gt;Node2 -->
<g id="edge1_Node000001_Node000002" class="edge">
<title>Node1&#45;&gt;Node2</title>
<g id="a_edge1_Node000001_Node000002"><a xlink:title=" ">
<path fill="none" stroke="#63b8ff" d="M121.5,-115.43C76.88,-107.1 18.57,-92.93 4.38,-74 -8.58,-56.71 12.1,-37.44 30.88,-24.71"/>
<polygon fill="#63b8ff" stroke="#63b8ff" points="32.97,-27.52 39.52,-19.19 29.2,-21.62 32.97,-27.52"/>
</a>
</g>
</g>
<!-- Node3 -->
<g id="Node000003" class="node">
<title>Node3</title>
<g id="a_Node000003"><a xlink:title=" ">
<polygon fill="#e0e0e0" stroke="#999999" points="167.88,-19 120.88,-19 120.88,0 167.88,0 167.88,-19"/>
<text text-anchor="middle" x="144.38" y="-7" font-family="Helvetica,sans-Serif" font-size="10.00">vector</text>
</a>
</g>
</g>
<!-- Node1&#45;&gt;Node3 -->
<g id="edge2_Node000001_Node000003" class="edge">
<title>Node1&#45;&gt;Node3</title>
<g id="a_edge2_Node000001_Node000003"><a xlink:title=" ">
<path fill="none" stroke="#63b8ff" d="M229.06,-115.77C275.72,-106.26 332.25,-87.58 307.38,-55 291.75,-34.54 220.92,-21.22 177.94,-14.86"/>
<polygon fill="#63b8ff" stroke="#63b8ff" points="178.31,-11.38 167.92,-13.43 177.33,-18.31 178.31,-11.38"/>
</a>
</g>
</g>
<!-- Node4 -->
<g id="Node000004" class="node">
<title>Node4</title>
<g id="a_Node000004"><a xlink:title=" ">
<polygon fill="#e0e0e0" stroke="#999999" points="297.88,-74 204.88,-74 204.88,-55 297.88,-55 297.88,-74"/>
<text text-anchor="middle" x="251.38" y="-62" font-family="Helvetica,sans-Serif" font-size="10.00">unordered_map</text>
</a>
</g>
</g>
<!-- Node1&#45;&gt;Node4 -->
<g id="edge3_Node000001_Node000004" class="edge">
<title>Node1&#45;&gt;Node4</title>
<g id="a_edge3_Node000001_Node000004"><a xlink:title=" ">
<path fill="none" stroke="#63b8ff" d="M193.77,-109.84C205.26,-101 220.03,-89.63 231.74,-80.62"/>
<polygon fill="#63b8ff" stroke="#63b8ff" points="234.2,-83.14 239.99,-74.27 229.93,-77.59 234.2,-83.14"/>
</a>
</g>
</g>
<!-- Node5 -->
<g id="Node000005" class="node">
<title>Node5</title>
<g id="a_Node000005"><a xlink:href="Course_8hpp.html" target="_top" xlink:title=" ">
<polygon fill="white" stroke="#666666" points="186.88,-74 13.88,-74 13.88,-55 186.88,-55 186.88,-74"/>
<text text-anchor="middle" x="100.38" y="-62" font-family="Helvetica,sans-Serif" font-size="10.00">CourseManagement/Course.hpp</text>
</a>
</g>
</g>
<!-- Node1&#45;&gt;Node5 -->
<g id="edge4_Node000001_Node000005" class="edge">
<title>Node1&#45;&gt;Node5</title>
<g id="a_edge4_Node000001_Node000005"><a xlink:title=" ">
<path fill="none" stroke="#63b8ff" d="M157.22,-109.84C145.89,-101 131.31,-89.63 119.76,-80.62"/>
<polygon fill="#63b8ff" stroke="#63b8ff" points="121.65,-77.66 111.61,-74.27 117.35,-83.18 121.65,-77.66"/>
</a>
</g>
</g>
<!-- Node5&#45;&gt;Node2 -->
<g id="edge5_Node000005_Node000002" class="edge">
<title>Node5&#45;&gt;Node2</title>
<g id="a_edge5_Node000005_Node000002"><a xlink:title=" ">
<path fill="none" stroke="#63b8ff" d="M92.95,-54.75C86.52,-47.18 77.07,-36.05 69.25,-26.84"/>
<polygon fill="#63b8ff" stroke="#63b8ff" points="71.81,-24.45 62.67,-19.09 66.47,-28.98 71.81,-24.45"/>
</a>
</g>
</g>
<!-- Node5&#45;&gt;Node3 -->
<g id="edge6_Node000005_Node000003" class="edge">
<title>Node5&#45;&gt;Node3</title>
<g id="a_edge6_Node000005_Node000003"><a xlink:title=" ">
<path fill="none" stroke="#63b8ff" d="M107.64,-54.75C113.92,-47.18 123.16,-36.05 130.81,-26.84"/>
<polygon fill="#63b8ff" stroke="#63b8ff" points="133.55,-29.02 137.25,-19.09 128.17,-24.55 133.55,-29.02"/>
</a>
</g>
</g>
</g>
</svg>
